<?xml version="1.0" encoding="utf-8"?>
<!-- Generator: Adobe Illustrator 15.1.0, SVG Export Plug-In  -->
<!DOCTYPE svg PUBLIC "-//W3C//DTD SVG 1.0//EN" "http://www.w3.org/TR/2001/REC-SVG-20010904/DTD/svg10.dtd" [
	<!ENTITY ns_flows "http://ns.adobe.com/Flows/1.0/">
]>
<svg version="1.0"
	 xmlns="http://www.w3.org/2000/svg" xmlns:xlink="http://www.w3.org/1999/xlink" xmlns:a="http://ns.adobe.com/AdobeSVGViewerExtensions/3.0/"
	 x="0px" y="0px" width="850px" height="150px" viewBox="0 0 850 150" enable-background="new 0 0 850 150" xml:space="preserve">
<defs>
</defs>
<path fill="#E0E0E0" d="M150,75c0,41.4-33.6,75-75,75S0,116.4,0,75S33.6,0,75,0S150,33.6,150,75z"/>
<path fill="none" d="M140,10v130H10V10H140z"/>
<path opacity="0.54" d="M129.2,75l-21.7-21.7v16.3H75v10.8h32.5v16.2L129.2,75z M102.1,112.9V91.3H91.3v21.7H42.4V37.1h48.9v21.7
	h10.8V37.1c0-6-4.9-10.8-10.8-10.8H42.5c-6,0-10.8,4.9-10.8,10.8v75.8c0,6,4.9,10.8,10.8,10.8h48.8
	C97.2,123.8,102.1,118.9,102.1,112.9z"/>
<path fill="#E0E0E0" d="M320,75c0,41.4-33.6,75-75,75s-75-33.6-75-75s33.6-75,75-75S320,33.6,320,75z"/>
<path fill="none" d="M180,10h130v130H180V10z"/>
<path opacity="0.54" d="M269.4,75c7.5,0,13.5-6.1,13.5-13.5c0-7.5-6-13.5-13.5-13.5s-13.5,6.1-13.5,13.5
	C255.8,68.9,261.9,75,269.4,75z M228.8,69.6c9,0,16.2-7.3,16.2-16.3c0-9-7.2-16.3-16.2-16.3s-16.3,7.3-16.3,16.3
	C212.5,62.3,219.8,69.6,228.8,69.6z M269.4,85.8c-9.9,0-29.8,5-29.8,14.9v12.2h59.6v-12.2C299.2,90.8,279.3,85.8,269.4,85.8z
	 M228.8,80.4c-12.6,0-37.9,6.3-37.9,19v13.5h37.9v-12.2c0-4.6,1.8-12.7,12.8-18.8C236.9,81,232.3,80.4,228.8,80.4z"/>
<path fill="#E0E0E0" d="M490,75c0,41.4-33.6,75-75,75s-75-33.6-75-75s33.6-75,75-75S490,33.6,490,75z"/>
<path fill="none" d="M356,15h120v120H356V15z"/>
<path opacity="0.54" d="M469.5,110L424,64.5c4.5-11.5,2-25-7.5-34.5c-10-10-25-12-37-6.5L401,45l-15,15l-22-21.5
	c-6,12-3.5,27,6.5,37c9.5,9.5,23,12,34.5,7.5l45.5,45.5c2,2,5,2,7,0L469,117C471.5,115,471.5,111.5,469.5,110z"/>
<path fill="#E0E0E0" d="M660,75c0,41.4-33.6,75-75,75s-75-33.6-75-75s33.6-75,75-75S660,33.6,660,75z"/>
<path fill="none" d="M520,10h130v130H520V10z"/>
<path opacity="0.54" d="M617.5,20.8h-65v32.5h0.1l-0.1,0.1L574.2,75l-21.7,21.7l0.1,0.1h-0.1v32.4h65V96.7h-0.1l0.1-0.1L595.8,75
	l21.7-21.6l-0.1-0.1h0.1V20.8z M606.7,99.4v11l-0.1-0.1L585,88.7l-21.6,21.6l-0.1,0.1v-11L585,77.7L606.7,99.4z M606.7,50.6
	L585,72.3l-21.7-21.7v-19h43.3V50.6z"/>
<path fill="#E0E0E0" d="M830,75c0,41.4-33.6,75-75,75s-75-33.6-75-75s33.6-75,75-75S830,33.6,830,75z"/>
<path fill="none" d="M690,10h130v130H690V10z"/>
<path opacity="0.54" d="M755,20.8c-29.9,0-54.2,24.3-54.2,54.2c0,29.9,24.3,54.2,54.2,54.2s54.2-24.3,54.2-54.2
	C809.2,45.1,784.9,20.8,755,20.8z M711.7,75c0-23.9,19.4-43.3,43.3-43.3c10,0,19.2,3.4,26.5,9.2l-60.7,60.7
	C715.1,94.2,711.7,85,711.7,75z M755,118.3c-10,0-19.2-3.4-26.5-9.2l60.7-60.7c5.7,7.3,9.2,16.5,9.2,26.5
	C798.3,98.9,778.9,118.3,755,118.3z"/>
</svg>
