<?xml version="1.0" encoding="utf-8"?>
<!-- Generator: Adobe Illustrator 16.0.0, SVG Export Plug-In . SVG Version: 6.00 Build 0)  -->
<!DOCTYPE svg PUBLIC "-//W3C//DTD SVG 1.1//EN" "http://www.w3.org/Graphics/SVG/1.1/DTD/svg11.dtd">
<svg version="1.1" id="圖層_1" xmlns="http://www.w3.org/2000/svg" xmlns:xlink="http://www.w3.org/1999/xlink" x="0px" y="0px"
	 width="24px" height="24px" viewBox="0 0 24 24" enable-background="new 0 0 24 24" xml:space="preserve">
<path display="none" d="M14.8,9.514c-0.128,0.108-0.31,0.165-0.567,0.142C14.277,10.04,14.909,10.027,14.8,9.514z"/>
<path display="none" d="M14.988,6.496c0.236,0.141-0.049,0.803,0.283,0.848c0.08-0.503,0.258-0.904,0.473-1.273
	c-0.924-0.104-1.426,0.21-1.512,0.944C14.6,6.954,14.682,6.612,14.988,6.496z"/>
<path display="none" d="M14.279,8.947c0.061,0.138,0.269,0.022,0.472,0.095c-0.073-0.102-0.135-0.21-0.187-0.33
	C14.375,8.697,14.436,8.931,14.279,8.947z"/>
<path display="none" d="M13.998,13.62c0.105-0.204,0.052-0.604-0.234-0.565C13.62,13.251,13.63,13.672,13.998,13.62z"/>
<path display="none" d="M12.871,19.675c-0.234-1.196-0.051-1.381,0.133-2.2c2.952-0.705,5.221-4.875,5.221-9.913
	c0-1.644,0.041-3.193-0.388-4.563H6.392c-0.429,1.37-0.388,2.919-0.388,4.564c0,4.809,2.068,8.828,4.825,9.794
	c0.362,1.5,0.278,1.59,0.146,2.307c-4.587,0.2-4.708,2.021-4.708,2.021s5.435,0.705,11.229,0
	C17.496,21.688,17.264,19.922,12.871,19.675z M6.885,8.482c0-0.246-0.001-0.489,0-0.728C7.217,7.508,7.728,7.3,8.113,7.156
	c1.018-0.379,2.016-0.576,3.271-0.487c0.795,0.059,1.376,0.45,2.079,0.443c-0.123-0.461-0.722-0.571-1.194-0.665
	c-2.001-0.396-4.239-0.11-5.381,0.887c0.005-0.402,0.02-0.795,0.056-1.178c0.207-0.149,0.432-0.277,0.593-0.37
	C8.464,5.241,9.85,4.73,11.339,4.811c0.106,0.219,0.093,0.556,0.177,0.797c0.373-0.115,0.382-0.592,0.708-0.751
	c2.117,0.402,4.201,0.841,4.82,2.742c0,0.146,0,0.294,0,0.441c-0.612-0.265-1.651-0.477-2.122,0.045
	c-0.423,1.362,0.621,3.49,0.221,5.085c-0.095,0.371-0.609,1.212-1.019,1.238c-0.362,0.025-0.347-0.264-0.62-0.397
	c-0.38-0.032-0.697-0.126-0.839-0.396c0.588-1.69-0.728-2.184-1.638-2.698c-0.112-0.05-0.086-0.237-0.087-0.399
	c-0.165,0.308-0.605,0.726-0.663,1.283c-0.116,1.134,0.738,2.025,1.018,3.185c0.094,0.391,0.152,0.871,0.184,1.377h-0.537
	c0.001-1.354-0.495-2.579-1.15-3.367c0-0.65,0-1.296,0-1.945c-0.442,0.37-0.665,1.256-0.532,1.858
	c0.069,0.308,0.36,0.569,0.532,0.928c0.336,0.702,0.559,1.628,0.82,2.449C8.476,15.423,6.885,12.258,6.885,8.482z"/>
<path display="none" d="M2.27,6.69C2.202,5.554,2.847,4.659,3.983,4.589C5.118,4.521,6.261,5.8,5.343,6.478
	c0,0,0.029-0.779-0.636-0.635C4.042,5.985,4.376,7.209,5.211,6.875C6.046,6.54,6.573,5.392,4.914,4.119
	C3.256,2.846,1.016,4.821,1.593,6.654c0.578,1.831,1.965,2.447,2.573,3.084c0.608,0.636,2.168,1.552,1.966,3.768
	c0,0-0.154,0.865-1.043,0.739c0,0,0.162-1.179-0.771-1.146c-0.931,0.029-0.968,1.146-0.402,1.5C4.484,14.953,6,15.12,6.498,13.95
	c0.496-1.17,0.058-2.414-1.034-3.748C4.372,8.87,2.338,7.827,2.27,6.69z"/>
<path display="none" d="M19.361,4.118c-1.657,1.273-1.131,2.421-0.297,2.756c0.838,0.335,1.17-0.889,0.504-1.032
	c-0.666-0.144-0.635,0.635-0.635,0.635c-0.918-0.677,0.224-1.956,1.357-1.889c1.139,0.07,1.782,0.965,1.714,2.101
	c-0.067,1.137-2.103,2.18-3.194,3.513c-1.092,1.334-1.529,2.578-1.033,3.748c0.498,1.17,2.016,1.003,2.58,0.649
	c0.568-0.354,0.531-1.472-0.401-1.5c-0.931-0.033-0.769,1.146-0.769,1.146c-0.888,0.125-1.043-0.739-1.043-0.739
	c-0.203-2.216,1.355-3.132,1.965-3.768c0.609-0.637,1.996-1.253,2.572-3.084C23.262,4.821,21.021,2.846,19.361,4.118z"/>
<path display="none" d="M17,17H7V7h10V17z M9,15h6V9H9V15z"/>
<rect x="3" y="7" display="none" width="2" height="2"/>
<path display="none" d="M5,3C3.896,3,3,3.896,3,5h2V3z"/>
<rect x="3" y="11" display="none" width="2" height="2"/>
<path display="none" d="M3,19c0,1.104,0.896,2,2,2v-2H3z"/>
<rect x="3" y="15" display="none" width="2" height="2"/>
<rect x="15" y="3" display="none" width="2" height="2"/>
<rect x="19" y="15" display="none" width="2" height="2"/>
<rect x="19" y="7" display="none" width="2" height="2"/>
<rect x="11" y="3" display="none" width="2" height="2"/>
<rect x="19" y="11" display="none" width="2" height="2"/>
<path display="none" d="M21,5c0-1.104-0.896-2-2-2v2H21z"/>
<rect x="7" y="19" display="none" width="2" height="2"/>
<rect x="15" y="19" display="none" width="2" height="2"/>
<rect x="7" y="3" display="none" width="2" height="2"/>
<rect x="11" y="19" display="none" width="2" height="2"/>
<path display="none" d="M21,19h-2v2C20.104,21,21,20.104,21,19z"/>
<rect x="3" y="7" display="none" width="2" height="2"/>
<path display="none" d="M5,3C3.896,3,3,3.896,3,5h2V3z"/>
<rect x="3" y="11" display="none" width="2" height="2"/>
<path display="none" d="M3,19c0,1.104,0.896,2,2,2v-2H3z"/>
<rect x="3" y="15" display="none" width="2" height="2"/>
<rect x="15" y="3" display="none" width="2" height="2"/>
<rect x="19" y="15" display="none" width="2" height="2"/>
<rect x="19" y="7" display="none" width="2" height="2"/>
<rect x="11" y="3" display="none" width="2" height="2"/>
<rect x="19" y="11" display="none" width="2" height="2"/>
<path display="none" d="M21,5c0-1.104-0.896-2-2-2v2H21z"/>
<rect x="7" y="19" display="none" width="2" height="2"/>
<rect x="15" y="19" display="none" width="2" height="2"/>
<rect x="7" y="3" display="none" width="2" height="2"/>
<rect x="11" y="19" display="none" width="2" height="2"/>
<path display="none" d="M21,19h-2v2C20.104,21,21,20.104,21,19z"/>
<path display="none" d="M7,7v10h10V7H7z M10.5,15.92l-3-3l1.41-1.41l1.59,1.58l4.59-4.59l1.41,1.42L10.5,15.92z"/>
<path display="none" d="M15.641,21h-7.35v-0.85c0.202-0.016,0.399-0.034,0.593-0.058c0.194-0.022,0.361-0.062,0.5-0.116
	c0.249-0.093,0.423-0.227,0.524-0.4c0.1-0.174,0.151-0.405,0.151-0.692v-6.768c0-0.271-0.062-0.51-0.186-0.715
	s-0.279-0.37-0.465-0.494c-0.14-0.093-0.352-0.182-0.634-0.268C8.49,10.555,8.232,10.5,8,10.477V9.628l5.698-0.302L13.872,9.5v9.232
	c0,0.271,0.058,0.502,0.174,0.691c0.116,0.19,0.283,0.332,0.5,0.426c0.155,0.069,0.326,0.131,0.513,0.186
	c0.187,0.054,0.379,0.093,0.582,0.115V21z M13.941,5.139c0,0.589-0.227,1.092-0.68,1.506c-0.453,0.415-0.991,0.622-1.611,0.622
	c-0.627,0-1.168-0.208-1.622-0.622C9.575,6.231,9.348,5.728,9.348,5.139c0-0.589,0.227-1.093,0.681-1.511
	C10.482,3.209,11.023,3,11.651,3s1.167,0.209,1.617,0.628C13.717,4.046,13.941,4.55,13.941,5.139z"/>
<path display="none" d="M19,3h-1V1h-2v2H8V1H6v2H5C3.895,3,3.01,3.895,3.01,5L3,19c0,1.105,0.895,2,2,2h14c1.105,0,2-0.895,2-2V5
	C21,3.895,20.105,3,19,3z M19,19H5V8h14V19z"/>
<rect x="6" y="10" display="none" width="3.273" height="2"/>
<rect x="6" y="13" display="none" width="3.273" height="2"/>
<rect x="6" y="16" display="none" width="3.273" height="2"/>
<rect x="10.364" y="10" display="none" width="3.273" height="2"/>
<rect x="14.727" y="10" display="none" width="3.273" height="2"/>
<rect x="10.364" y="13" display="none" width="3.273" height="2"/>
<rect x="14.727" y="13" display="none" width="3.273" height="2"/>
<rect x="10.364" y="16" display="none" width="3.273" height="2"/>
<rect x="14.727" y="16" display="none" width="3.273" height="2"/>
<path display="none" d="M19,3h-1V1h-2v2H8V1H6v2H5C3.895,3,3.01,3.895,3.01,5L3,19c0,1.105,0.895,2,2,2h14c1.105,0,2-0.895,2-2V5
	C21,3.895,20.105,3,19,3z M19,19H5V9h14V19z"/>
<path display="none" d="M18,9v1.757h2V6c0-1.105-0.895-2-2-2h-1V2h-2v2H8V2H6v2H5C3.895,4,3.01,4.895,3.01,6L3,19
	c0,1.105,0.895,2,2,2h4.758v-2H5V9H18z"/>
<rect x="6" y="10" display="none" width="3" height="2"/>
<polygon display="none" points="13,10 10,10 10,10.757 12.828,10.757 13,10.585 "/>
<polygon display="none" points="6,15 8.586,15 9,14.586 9,13 6,13 "/>
<polygon display="none" points="7.976,16 6,16 6,18 9,18 9,17.805 7.585,16.391 "/>
<path display="none" d="M20.096,14.486v-2.692h-2.691L15.5,9.891l-1.904,1.903h-2.692v2.692L9,16.391l1.904,1.903v2.692h2.692
	l1.904,1.904l1.904-1.904h2.691v-2.692L22,16.391L20.096,14.486z M15.5,19.855c-1.913,0-3.464-1.553-3.464-3.465
	c0-1.914,1.551-3.466,3.464-3.466s3.464,1.552,3.464,3.466C18.964,18.303,17.413,19.855,15.5,19.855z"/>
<path display="none" d="M15,10c-3.313,0-6,2.688-6,6s2.687,6,6,6c3.313,0,6-2.688,6-6S18.313,10,15,10z M15,20c-2.209,0-4-1.791-4-4
	s1.791-4,4-4s4,1.791,4,4S17.209,20,15,20z"/>
<polygon display="none" points="15.5,12.8 14.5,12.8 14.5,16.3 17.5,18.104 18.016,17.245 15.5,15.734 "/>
<path display="none" d="M5,19V9h13v0.683c0.749,0.356,1.426,0.837,2,1.423V6c0-1.105-0.895-2-2-2h-1V2h-2v2H8V2H6v2H5
	C3.895,4,3.01,4.895,3.01,6L3,19c0,1.105,0.895,2,2,2h5.105c-0.586-0.574-1.066-1.251-1.423-2H5z"/>
<rect x="6" y="10" display="none" width="3" height="2"/>
<path display="none" d="M11.408,10H10v1.105C10.418,10.678,10.893,10.309,11.408,10z"/>
<path display="none" d="M6,13v2h2.08c0.101-0.707,0.307-1.378,0.603-2H6z"/>
<path display="none" d="M6,16v2h2.294C8.105,17.366,8,16.695,8,16H6z"/>
<circle display="none" cx="19.188" cy="11.575" r="1.18"/>
<path display="none" d="M22.006,11.059c-0.289,0.001-0.525,0.236-0.525,0.526v0.525v1.978l-1.975-0.001l-2.441-2.442v0.001
	c-0.094-0.089-0.221-0.144-0.359-0.143h-2.501c-0.291,0-0.526,0.235-0.526,0.524v3.208l-0.89,0.932l4.481-0.001l0.785-0.827
	c0.002,0,0.004,0,0.004,0h1.446c0,0,0,0,0.001-0.001l2.502,0.001c0.291,0,0.525-0.234,0.525-0.525c0-0.033-0.004-0.066-0.01-0.099
	c0.004-0.032,0.01-0.065,0.009-0.1l0.001-2.502h0.001l-0.001-0.525C22.533,11.295,22.298,11.06,22.006,11.059z M14.729,14.182
	l-0.002-1.431l1.434-0.001L14.729,14.182z"/>
<path display="none" d="M8.725,22c-0.186,0-0.371-0.07-0.513-0.212c-0.283-0.283-0.283-0.742,0-1.026l3.989-3.988
	c0.136-0.137,0.32-0.213,0.513-0.213h4.896c0.293,0,0.559,0.176,0.67,0.447c0.113,0.271,0.051,0.583-0.157,0.791l-3.083,3.083
	c-0.283,0.283-0.742,0.283-1.025,0c-0.283-0.282-0.283-0.741,0-1.024l1.844-1.846h-2.844l-3.777,3.777
	C9.097,21.93,8.911,22,8.725,22z"/>
<path display="none" fill="none" d="M5,9v10h3.56L10,17.561V16h1.561l0.503-0.525L12.516,15H10v-2h2.676v-0.974
	c0-0.009,0.002-0.018,0.002-0.026H10v-2h3v1.099c0.24-0.309,0.593-0.521,1-0.576V10h3v0.502h0.299
	c0.096-0.168,0.206-0.328,0.346-0.468C17.754,9.925,17.874,9.832,18,9.749V9H5z M9,18H6v-2h3V18z M9,15H6v-2h3V15z M9,12H6v-2h3V12z
	"/>
<path display="none" d="M8.56,19H5V9h13v0.749c0.35-0.229,0.758-0.353,1.188-0.353c0.283,0,0.558,0.056,0.813,0.158V6
	c0-1.105-0.895-2-2-2h-1V2h-2v2H8V2H6v2H5C3.895,4,3.01,4.895,3.01,6L3,19c0,1.105,0.895,2,2,2h2.027
	c0.056-0.346,0.212-0.68,0.478-0.945L8.56,19z"/>
<rect x="6" y="10" display="none" width="3" height="2"/>
<path display="none" d="M10,10v2h2.68c0.006-0.34,0.125-0.65,0.32-0.901V10H10z"/>
<path display="none" d="M14,10v0.522c0.066-0.009,0.133-0.021,0.203-0.021H17V10H14z"/>
<rect x="6" y="13" display="none" width="3" height="2"/>
<polygon display="none" points="10,15 12.516,15 12.677,14.832 12.676,13 10,13 "/>
<rect x="6" y="16" display="none" width="3" height="2"/>
<path display="none" d="M10,17.561l1.493-1.494c0.005-0.004,0.011-0.008,0.017-0.014L11.561,16H10V17.561z"/>
<path display="none" d="M12.871,19.675c-0.234-1.196-0.051-1.381,0.133-2.2c2.952-0.705,5.221-4.875,5.221-9.912
	c0-1.645,0.041-3.193-0.388-4.563H6.392C5.963,4.37,6.004,5.918,6.004,7.563c0,4.809,2.068,8.828,4.825,9.794
	c0.362,1.5,0.278,1.588,0.146,2.308c-4.587,0.2-4.708,2.022-4.708,2.022s5.435,0.703,11.229,0
	C17.496,21.688,17.264,19.923,12.871,19.675z M8.415,4.596h2.128c0,2.489,0.168,4.503,0.499,5.984l-2.076,0.464
	C8.595,9.388,8.415,7.278,8.415,4.596z M10.854,14.922c-0.502-0.502-0.905-1.102-1.233-1.832l1.942-0.871
	c0.223,0.498,0.476,0.879,0.796,1.199L10.854,14.922z"/>
<path display="none" d="M6.499,13.95c0.496-1.169,0.058-2.413-1.034-3.748C4.372,8.87,2.338,7.827,2.27,6.69
	C2.202,5.554,2.847,4.659,3.983,4.589C5.118,4.521,6.26,5.8,5.343,6.478c0,0,0.029-0.779-0.636-0.635
	C4.042,5.985,4.376,7.209,5.211,6.875C6.046,6.54,6.573,5.392,4.914,4.119C3.256,2.846,1.016,4.821,1.593,6.654
	c0.578,1.831,1.965,2.447,2.573,3.084c0.608,0.636,2.168,1.551,1.966,3.768c0,0-0.154,0.865-1.043,0.739
	c0,0,0.162-1.179-0.771-1.146c-0.931,0.029-0.968,1.146-0.402,1.5C4.484,14.954,6.001,15.121,6.499,13.95z"/>
<path display="none" d="M19.361,4.118c-1.657,1.273-1.131,2.421-0.297,2.756c0.838,0.335,1.17-0.889,0.504-1.032
	c-0.666-0.144-0.635,0.635-0.635,0.635c-0.918-0.677,0.224-1.956,1.357-1.889c1.139,0.07,1.782,0.965,1.714,2.101
	c-0.067,1.137-2.103,2.18-3.194,3.513c-1.092,1.334-1.529,2.578-1.033,3.748c0.498,1.17,2.015,1.003,2.58,0.649
	c0.568-0.354,0.531-1.472-0.401-1.5c-0.931-0.033-0.769,1.146-0.769,1.146c-0.888,0.125-1.043-0.739-1.043-0.739
	c-0.203-2.217,1.355-3.132,1.965-3.768c0.609-0.637,1.996-1.253,2.574-3.084C23.262,4.821,21.021,2.846,19.361,4.118z"/>
<path display="none" d="M16.586,20.779c-1.243,0-7.142,0-9.172,0l0,0c0-0.844,0.684-1.528,1.529-1.528h6.116
	C15.902,19.251,16.586,19.936,16.586,20.779L16.586,20.779z"/>
<path display="none" d="M18.586,21.779c-1.243,0-11.142,0-13.172,0l0,0c0-0.844,0.684-1.528,1.529-1.528h10.116
	C17.902,20.251,18.586,20.936,18.586,21.779L18.586,21.779z"/>
<path display="none" d="M8.088,5.605c0-0.423-0.342-0.764-0.764-0.764h-4.56C2.342,4.841,2,5.183,2,5.605
	c0,3.743,0.907,5.84,3.392,7.522c-0.369,0.279-0.623,0.7-0.623,1.198c0,0.844,0.684,1.528,1.529,1.528
	c0.845,0,1.528-0.685,1.528-1.528c0-0.12-0.042-0.228-0.069-0.339c0.099-0.07,0.189-0.153,0.248-0.269
	c0.188-0.378,0.036-0.837-0.342-1.026C4.674,11.198,3.666,9.716,3.542,6.37h3.782C7.746,6.37,8.088,6.028,8.088,5.605z"/>
<path display="none" d="M22,5.605c0-0.423-0.342-0.764-0.764-0.764h-4.562c-0.423,0-0.765,0.341-0.765,0.764
	s0.342,0.765,0.765,0.765h3.783c-0.125,3.346-1.133,4.828-4.122,6.321c-0.377,0.188-0.529,0.648-0.341,1.026
	c0.058,0.116,0.149,0.198,0.248,0.269c-0.026,0.111-0.069,0.219-0.069,0.339c0,0.844,0.684,1.528,1.529,1.528
	c0.845,0,1.529-0.685,1.529-1.528c0-0.498-0.254-0.919-0.623-1.199C21.094,11.446,22,9.348,22,5.605z"/>
<path display="none" d="M17.75,4H12H6.25c0,0-0.109,2.715,0,4.259c0.305,4.323,1.021,6.353,3.815,8.526
	c0.947,0.736,1.15,1.844,1.17,2.46v1.532H12h0.764v-1.532c0.021-0.616,0.225-1.724,1.17-2.46c2.795-2.174,3.512-4.203,3.816-8.526
	C17.859,6.715,17.75,4,17.75,4z M8.903,11.431C8.409,9.605,8.368,7.64,8.368,5.784h1.528c0,1.753,0.038,3.603,0.482,5.249
	L8.903,11.431z M10.677,14.705c-0.428-0.423-0.802-0.936-1.107-1.521l1.356-0.706c0.232,0.444,0.509,0.829,0.826,1.139
	L10.677,14.705z"/>
<path display="none" d="M19.072,4.377c-0.682,0-1.233,0.552-1.233,1.234c0,0.68,0.552,1.231,1.233,1.231
	c0.521,0,0.96-0.324,1.141-0.782c0.339,0.311,0.555,0.751,0.555,1.244C20.768,8.239,20.006,9,19.072,9
	c-0.605,0-1.168,0.183-1.635,0.498c0.043-0.441,0.072-0.889,0.072-1.349c0-1.495,0.036-2.904-0.354-4.149H12H6.845
	c-0.39,1.246-0.354,2.655-0.354,4.149c0,0.459,0.031,0.907,0.072,1.349C6.095,9.184,5.534,9,4.929,9
	C3.994,9,3.233,8.239,3.233,7.304c0-0.493,0.216-0.934,0.555-1.244c0.181,0.458,0.621,0.782,1.141,0.782
	c0.682,0,1.234-0.551,1.234-1.231c0-0.682-0.552-1.234-1.234-1.234C3.312,4.377,2,5.687,2,7.304c0,1.617,1.312,2.929,2.929,2.929
	c0.932,0,1.689,0.757,1.694,1.688c-0.058-0.007-0.108-0.034-0.168-0.034c-0.776,0-1.403,0.628-1.403,1.403s0.627,1.403,1.403,1.403
	c0.577,0,1.07-0.35,1.286-0.846c0.782,1.594,1.873,2.766,3.137,3.209c0.331,1.362,0.255,1.443,0.134,2.098
	c-4.172,0.182-4.283,1.839-4.283,1.839S8.952,21.28,12,21.277c3.047,0.003,5.27-0.284,5.27-0.284s-0.109-1.657-4.281-1.839
	c-0.122-0.654-0.197-0.735,0.134-2.098c1.265-0.443,2.354-1.615,3.137-3.209c0.216,0.497,0.709,0.846,1.286,0.846
	c0.775,0,1.404-0.629,1.404-1.403s-0.629-1.403-1.404-1.403c-0.061,0-0.109,0.027-0.167,0.034c0.004-0.931,0.761-1.688,1.692-1.688
	c1.617,0,2.929-1.312,2.929-2.929C21.999,5.687,20.688,4.377,19.072,4.377z M8.936,11.7C8.405,9.736,8.359,7.623,8.359,5.625h1.644
	c0,1.887,0.04,3.875,0.52,5.646L8.936,11.7z M10.846,15.22c-0.463-0.454-0.863-1.003-1.192-1.635l1.458-0.759
	c0.25,0.477,0.549,0.889,0.889,1.226L10.846,15.22z"/>
<path display="none" d="M10.468,5.299H9.354c0,1.353,0.03,2.783,0.391,4.113l1.074-0.29C10.495,7.922,10.468,6.576,10.468,5.299z"/>
<path display="none" d="M10.23,10.688c0.223,0.428,0.495,0.799,0.806,1.107l0.783-0.792c-0.23-0.227-0.432-0.506-0.602-0.829
	L10.23,10.688z"/>
<path display="none" d="M7.777,5.726H5.84c0.08,2.195,0.695,3.288,2.405,4.278C8.019,9.206,7.894,8.27,7.812,7.102
	C7.785,6.708,7.777,6.209,7.777,5.726z"/>
<path display="none" d="M21.924,4.732C18.979,3.006,15.563,2,11.906,2C8.33,2,4.982,2.958,2.084,4.613
	c-0.001,0.071-0.011,0.14-0.011,0.21c0,7.344,4,13.743,9.928,17.176c5.929-3.433,9.927-9.832,9.927-17.176
	C21.927,4.793,21.924,4.764,21.924,4.732z M16.814,10.647c0.268,0.204,0.453,0.511,0.453,0.873c0,0.615-0.498,1.113-1.113,1.113
	c-0.594,0-1.067-0.466-1.103-1.051c-0.395,0.616-0.92,1.167-1.643,1.729c-0.69,0.537-0.839,1.344-0.853,1.793v0.004h1.67
	c0.479,0,0.877,0.304,1.035,0.728h0.42c0.616,0,1.113,0.498,1.113,1.113c-0.904,0-8.114,0-9.593,0c0-0.616,0.498-1.113,1.114-1.113
	h0.42c0.157-0.424,0.557-0.728,1.036-0.728h1.67v-0.004c-0.015-0.449-0.163-1.256-0.853-1.793c-0.723-0.562-1.248-1.113-1.643-1.729
	c-0.035,0.585-0.508,1.052-1.101,1.052c-0.615,0-1.113-0.499-1.113-1.113c0-0.362,0.185-0.669,0.455-0.873
	c-1.81-1.224-2.47-2.753-2.47-5.478c0-0.308,0.249-0.556,0.557-0.556h2.52C7.802,4.25,7.812,4,7.812,4H12h4.188
	c0,0,0.011,0.25,0.02,0.613h2.52c0.309,0,0.558,0.248,0.558,0.556C19.283,7.894,18.623,9.423,16.814,10.647z"/>
<path display="none" d="M16.188,7.102c-0.082,1.167-0.207,2.104-0.434,2.902c1.71-0.99,2.324-2.084,2.405-4.278h-1.937
	C16.225,6.209,16.216,6.708,16.188,7.102z"/>
<rect x="10.233" y="7.787" display="none" width="7.152" height="1.668"/>
<rect x="6.738" y="7.787" display="none" width="2.058" height="1.668"/>
<rect x="10.233" y="10.883" display="none" width="7.152" height="1.668"/>
<rect x="6.738" y="10.883" display="none" width="2.058" height="1.668"/>
<rect x="10.233" y="14.178" display="none" width="7.152" height="1.668"/>
<path display="none" d="M18.979,3.841h-2.207v1.04h0.969c0.529,0,0.959,0.43,0.959,0.96V20c0,0.53-0.43,0.959-0.959,0.959H9.688
	V17.73c0-0.508-0.411-0.92-0.918-0.92H5.74V5.841c0-0.53,0.429-0.96,0.959-0.96h0.684v-1.04H5.46c-0.53,0-0.96,0.43-0.96,0.959
	v11.216v0.795v0.078v0.805l1.187,1.187l2.126,2.125L8.808,22h0.803h0.077h0.328h8.962c0.53,0,0.961-0.43,0.961-0.96V4.8
	C19.939,4.271,19.509,3.841,18.979,3.841z"/>
<path display="none" d="M9.116,5.621h6.089c0.453,0,0.82-0.369,0.82-0.821V3.979c0-0.433-0.334-0.787-0.762-0.818v0.493
	c0,0.441-0.355,0.798-0.797,0.798H9.854c-0.44,0-0.797-0.357-0.797-0.798V3.161C8.631,3.192,8.295,3.546,8.295,3.979V4.8
	C8.295,5.252,8.663,5.621,9.116,5.621z"/>
<path display="none" d="M9.717,2.519C9.717,2.232,9.949,2,10.236,2h3.849c0.287,0,0.521,0.232,0.521,0.519v0.854
	c0,0.287-0.233,0.519-0.521,0.519h-3.849c-0.287,0-0.519-0.232-0.519-0.519V2.519z"/>
<path display="none" d="M19.686,3.523v16.685c0,0.491-0.399,0.89-0.892,0.89H5.249c-0.065,0-0.128-0.008-0.19-0.021v0.031
	C5.059,21.602,5.458,22,5.95,22h13.545c0.491,0,0.892-0.398,0.892-0.891V4.394C20.387,3.967,20.086,3.61,19.686,3.523z"/>
<path display="none" d="M18.092,2H4.548C4.056,2,3.657,2.399,3.657,2.891v2.511h1.149c0.038,0,0.21,0.001,0.259,0.001
	c0.958,0,1.886,0.927,1.886,1.884c0,0.958-0.928,1.887-1.886,1.887c-0.049,0-0.222,0-0.259,0H3.657v4.328h1.149
	c0.038,0,0.21,0,0.259,0c0.958,0,1.886,0.928,1.886,1.887c0,0.957-0.928,1.885-1.886,1.885c-0.049,0-0.222,0-0.259,0H3.657v2.332
	c0,0.492,0.399,0.892,0.892,0.892h13.544c0.493,0,0.892-0.399,0.892-0.892V2.891C18.984,2.399,18.585,2,18.092,2z M11.307,17.891
	l-0.685-0.686v1.66H9.78v-1.66l-0.685,0.686L8.5,17.294l1.106-1.104l0.596-0.597l0.595,0.597l1.106,1.104L11.307,17.891z
	 M13.333,13.077v0.704c0,0.154-0.056,0.287-0.167,0.402c-0.111,0.116-0.248,0.174-0.409,0.174h-0.842
	c-0.162,0-0.298-0.059-0.41-0.174c-0.111-0.115-0.167-0.25-0.167-0.402v-0.704H9.01c-0.146,0-0.271-0.05-0.375-0.15
	c-0.104-0.1-0.156-0.223-0.156-0.368v-0.74c0-0.145,0.052-0.268,0.156-0.368c0.104-0.101,0.229-0.15,0.375-0.15h4.832
	c0.139,0,0.262-0.054,0.369-0.161c0.107-0.108,0.163-0.25,0.163-0.427c0-0.177-0.056-0.317-0.163-0.421
	c-0.107-0.103-0.23-0.156-0.369-0.156h-3.056c-0.699,0-1.295-0.223-1.787-0.669C8.506,9.022,8.26,8.468,8.26,7.807
	c0-0.661,0.246-1.22,0.738-1.678s1.088-0.687,1.787-0.687h0.554V5.017c0-0.162,0.056-0.298,0.167-0.41
	c0.111-0.112,0.248-0.167,0.41-0.167h0.842c0.161,0,0.299,0.055,0.409,0.167c0.112,0.112,0.167,0.248,0.167,0.41v0.426h2.387
	c0.146,0,0.271,0.05,0.375,0.15c0.104,0.1,0.156,0.223,0.156,0.369V6.7c0,0.146-0.052,0.269-0.156,0.369
	c-0.104,0.1-0.229,0.15-0.375,0.15h-4.936c-0.146,0-0.271,0.054-0.375,0.162c-0.104,0.108-0.156,0.25-0.156,0.427
	c0,0.37,0.177,0.553,0.53,0.553h3.056c0.699,0,1.295,0.227,1.787,0.681c0.491,0.454,0.738,1.011,0.738,1.672
	s-0.247,1.221-0.738,1.678c-0.492,0.458-1.088,0.686-1.787,0.686L13.333,13.077L13.333,13.077z M16.334,18.27l-0.596,0.596
	l-0.594-0.596l-1.106-1.105l0.595-0.596l0.686,0.685v-1.661h0.842v1.661l0.686-0.685l0.596,0.596L16.334,18.27z"/>
<path display="none" d="M3.545,8.244h1.198c0.021,0,0.117,0,0.145,0c0.534,0,0.967-0.433,0.967-0.966
	c0-0.534-0.433-0.967-0.967-0.967c-0.027,0-0.124,0-0.145,0H3.545C3.244,6.31,3,6.554,3,6.854v0.847
	C3,8.001,3.244,8.244,3.545,8.244z"/>
<path display="none" d="M3.626,16.294h1.198c0.021,0,0.117,0,0.145,0c0.534,0,0.967-0.433,0.967-0.967s-0.433-0.968-0.967-0.968
	c-0.028,0-0.124,0-0.145,0H3.626c-0.301,0-0.545,0.244-0.545,0.543v0.848C3.081,16.05,3.325,16.294,3.626,16.294z"/>
<path display="none" d="M7.789,12.873l0.004-0.005l-0.034-0.025l0,0c0-0.001,0-0.001,0-0.001l-1.241-0.93L6.503,11.93
	c-0.414-0.157-1.872,1.22-3.336,3.175c-1.462,1.953-2.376,3.736-2.111,4.093l-0.014,0.019l0.033,0.025l0,0l0,0l1.243,0.932
	l0.003-0.005c0.415,0.157,1.882-1.235,3.347-3.188C7.133,15.025,8.057,13.225,7.789,12.873z M3.5,15.354
	c1.179-1.576,2.277-2.748,2.45-2.619c0.173,0.13-0.644,1.513-1.825,3.088c-1.18,1.574-2.277,2.748-2.451,2.619
	C1.502,18.313,2.318,16.93,3.5,15.354z M2.324,19.43l-0.003,0.004L1.743,19c0.665-0.477,1.686-1.557,2.715-2.928
	c1.028-1.372,1.777-2.655,2.048-3.428l0.548,0.412l0,0l0,0l0.028,0.021L7.08,13.082c0.232,0.307-0.571,1.873-1.845,3.573
	S2.684,19.566,2.324,19.43z"/>
<path display="none" d="M9.685,13.989c-0.629,0-0.995,0.044-1.541,0.085c-0.058,0.132-0.123,0.271-0.197,0.418
	c0.564-0.041,1.009-0.087,1.738-0.087c1.969,0,3.565,0.176,3.565,0.392c0,0.215-1.59,0.391-3.553,0.391v0.416
	c1.697,0,3.176-0.166,3.959-0.408v0.688l0,0v0.035H13.65c-0.106,0.372-1.841,0.667-3.966,0.667c-1.235,0-1.929-0.079-2.658-0.235
	c-0.115,0.172-0.234,0.346-0.359,0.524c0.836,0.167,1.65,0.252,3.017,0.252c1.704,0,3.187-0.165,3.972-0.409v0.756
	c0,0.002,0,0.002,0,0.002v0.035H13.65c-0.106,0.371-1.841,0.667-3.966,0.667c-2.033,0-3.508-0.108-3.743-0.457
	c-0.209,0.274-0.614,0.686-0.822,0.939v0.892h0.006c0.122,0.428,2.117,0.766,4.559,0.766c2.443,0,4.437-0.338,4.559-0.766h0.006
	V19.51v-1.554h-0.008c0-0.002,0.001-0.002,0.001-0.003h0.006v-0.041l0,0v-0.001v-1.552v-0.004v-0.037l0,0l0,0v-1.521l0,0l0,0v-0.031
	h-0.006C14.148,14.333,12.145,13.989,9.685,13.989z M13.656,19.072C13.656,19.073,13.656,19.073,13.656,19.072L13.656,19.072v0.035
	H13.65c-0.106,0.371-1.841,0.668-3.966,0.668s-3.859-0.295-3.966-0.668H5.714v-0.801c0.784,0.244,2.268,0.409,3.97,0.409
	c1.704,0,3.187-0.165,3.972-0.409V19.072z"/>
<path display="none" d="M22.939,12.207c-0.574-3.5-2.521-7.551-8.428-7.472c0.698-0.631,1.62-1.286,1.627-1.478
	c0.006-0.225-1.49-0.1-1.713-0.059c-0.221,0.042-0.359-1.181-1.001-1.071c-0.25,0.042-1.631,0.922-2.051,0.862
	c-0.344-0.25-1.556-1.107-2.133-0.976C8.993,2.144,9.354,3.144,9.354,3.144s-1.937,0.292-1.9,0.611
	c0.025,0.234,2.53,0.839,3.109,1.486c-3.109,1.453-4.674,3.303-5.027,6.366c0,0,0.544-0.544,1.016-0.459
	c0.473,0.084,1.266,0.81,1.654,1.164c0.389,0.355,0.306,0.781,0.218,1.097c0.488-0.027,0.832-0.101,1.369-0.101
	c2.791,0,4.956,0.481,5.066,0.996h0.004v0.037l0,0v1.814l0,0V16.2v0.005v1.848l0,0v0.051h-0.006c0,0-0.002,0.002-0.002,0.004h0.008
	v0.75c0.234,0.013,0.211-0.006,0.449-0.006C20.275,18.854,23.536,15.842,22.939,12.207z M20.927,13.355
	c-0.27,0.403-0.645,0.625-1.128,0.66l-0.662,0.049l0.219,1.139c0.035,0.186-0.03,0.283-0.195,0.296l-1.002,0.074
	c-0.167,0.013-0.27-0.074-0.305-0.259l-0.219-1.139l-2.127,0.157c-0.168,0.013-0.27-0.073-0.305-0.258l-0.215-1.11
	c-0.035-0.186,0.031-0.283,0.197-0.297l4.293-0.319c0.166-0.012,0.232-0.11,0.196-0.297L19.646,11.9
	c-0.037-0.185-0.139-0.272-0.306-0.259l-2.778,0.207c-0.483,0.035-0.934-0.124-1.35-0.478c-0.415-0.354-0.673-0.799-0.777-1.337
	L14.4,9.853c-0.104-0.537-0.021-1.007,0.248-1.412c0.27-0.405,0.646-0.625,1.129-0.662l0.613-0.045L16.188,6.68
	c-0.035-0.185,0.031-0.284,0.197-0.296l1.002-0.074c0.166-0.013,0.268,0.074,0.305,0.258l0.203,1.056l2.162-0.161
	c0.168-0.014,0.271,0.073,0.305,0.259l0.215,1.11c0.035,0.186-0.03,0.284-0.198,0.296L16.1,9.447
	c-0.166,0.012-0.232,0.11-0.197,0.297l0.035,0.179c0.037,0.186,0.138,0.272,0.304,0.259l2.778-0.206
	c0.483-0.037,0.933,0.123,1.349,0.476c0.416,0.354,0.675,0.8,0.778,1.336l0.029,0.154C21.279,12.479,21.195,12.95,20.927,13.355z"/>
<path display="none" d="M8,2c2.761,0,5,2.239,5,5s-2.239,5-5,5S3,9.761,3,7S5.239,2,8,2z M8,11.18c2.309,0,4.181-1.872,4.181-4.181
	S10.309,2.82,8,2.82S3.819,4.691,3.819,7S5.691,11.18,8,11.18z"/>
<rect x="7.843" y="15.405" display="none" width="6.448" height="1.354"/>
<path display="none" d="M19.734,17.673l-2.264,2.265L16.409,21h-0.938H6.226c-0.541,0-0.979-0.439-0.979-0.979v-7.187
	c0.406,0.135,0.671,0.237,1.265,0.321v5.804c0,0.541,0.438,0.979,0.979,0.979h7.979V16.45c0-0.541,0.438-0.979,0.979-0.979h3.285
	V4.512c0-0.542-0.439-0.98-0.979-0.98h-5.317c0,0-0.595-0.782-0.906-1.061h7.49c0.541,0,0.979,0.438,0.979,0.98V15.47v0.938
	L19.734,17.673z"/>
<rect x="14.046" y="6.072" display="none" width="4.571" height="1.354"/>
<rect x="11.527" y="12.024" display="none" width="7.09" height="1.355"/>
<rect x="14.046" y="9.122" display="none" width="4.571" height="1.354"/>
<polygon display="none" points="6.397,7.542 6.019,9.747 8,8.706 9.981,9.747 9.603,7.542 11.205,5.979 8.991,5.658 8,3.652 
	7.009,5.658 4.795,5.979 "/>
<path display="none" d="M17.346,19.195l0.002-0.006c0,0-2.765-3.604-2.766-3.607c-0.221-0.286-0.625-0.333-0.907-0.118l-1.662,1.279
	c-0.646,0.496-1.314-0.11-2.573-1.448c-0.833-0.886-1.771-2.052-2.549-3.33c-0.546-0.897-1.011-1.824-0.335-2.343
	c0,0,1.668-1.273,1.668-1.275l0.001-0.003c0.298-0.228,0.327-0.637,0.118-0.909L8.344,7.43c0,0-2.843-3.711-2.846-3.712
	C5.28,3.43,4.875,3.382,4.592,3.598L2.918,4.879C2.209,5.561,0.375,9.014,5.385,15.73c5.277,7.076,9.398,6.259,10.17,5.643
	c0,0,1.672-1.264,1.672-1.266v-0.002C17.527,19.876,17.555,19.468,17.346,19.195z"/>
<path display="none" d="M19.284,12.106l1.677,0.153C21.436,7.076,17.604,2.473,12.418,2l-0.153,1.677
	C16.523,4.066,19.673,7.847,19.284,12.106z"/>
<path display="none" d="M16.16,11.821l1.589,0.145c0.312-3.412-2.211-6.442-5.624-6.753L11.98,6.801
	C14.518,7.033,16.393,9.285,16.16,11.821z"/>
<path display="none" d="M13.62,11.589l1.06,0.097c0.156-1.72-1.115-3.247-2.834-3.404l-0.097,1.06
	C12.884,9.445,13.725,10.453,13.62,11.589z"/>
<path display="none" fill="none" d="M24,0v24H0V0H24z"/>
<path display="none" d="M22,12l-4-4v3h-6v2h6v3L22,12z M17,19v-4h-1.99v4H5.98V5h9.029v4H17V5c0-1.1-0.9-2-2-2H6C4.9,3,4,3.9,4,5v14
	c0,1.1,0.9,2,2,2h9C16.1,21,17,20.1,17,19z"/>
<path display="none" fill="none" d="M0,0h24v24H0V0z"/>
<polygon display="none" points="22,12 18,8 18,11 12,11 12,13 18,13 18,16 "/>
<polygon display="none" fill="none" points="18.09,10.52 18,10.512 18,10.598 "/>
<polygon display="none" points="15.145,15 15.77,17.68 12,15.4 8.24,17.67 9.24,13.391 5.92,10.51 10.3,10.13 12,6.1 13.229,9 16,9 
	16,8.723 14.811,8.62 12,2 9.189,8.63 2,9.24 7.46,13.97 5.82,21 12,17.27 18.18,21 16.789,15 "/>
<path display="none" fill="none" d="M0,0h24v24H0V0z M18.311,6l-2.76,5L18.311,6z"/>
<path display="none" d="M7,18c-1.1,0-1.99,0.9-1.99,2S5.9,22,7,22s2-0.9,2-2S8.101,18,7,18z M17,18c-1.1,0-1.99,0.9-1.99,2
	S15.9,22,17,22s2-0.9,2-2S18.1,18,17,18z M7.17,14.75l0.03-0.12L8.1,13h7.45c0.75,0,1.41-0.41,1.75-1.03l3.859-7.01L19.42,4h-0.01
	l-1.1,2l-2.761,5H8.53L8.4,10.73L6.161,6L5.21,4L4.27,2H1v2h2l3.6,7.59l-1.35,2.45C5.09,14.32,5,14.65,5,15c0,1.1,0.9,2,2,2h12v-2
	H7.42C7.291,15,7.17,14.891,7.17,14.75z M12.881,4.934c0.338,0.086,0.676,0.18,1.018,0.281c0.34,0.102,0.648,0.227,0.922,0.377
	c0.275,0.148,0.498,0.33,0.671,0.541c0.172,0.212,0.258,0.469,0.258,0.771c0,0.346-0.095,0.646-0.285,0.905
	c-0.188,0.258-0.448,0.475-0.78,0.651c-0.334,0.176-0.728,0.312-1.181,0.408c-0.455,0.096-0.948,0.154-1.482,0.176l-0.281,1.335
	h-1.33l0.271-1.346C9.974,9.002,9.288,8.922,8.623,8.795v-1.25C8.98,7.627,9.357,7.703,9.754,7.771
	c0.395,0.07,0.782,0.119,1.16,0.146l0.4-1.932c-0.327-0.078-0.65-0.168-0.971-0.27C10.022,5.613,9.736,5.49,9.484,5.343
	c-0.252-0.147-0.456-0.327-0.611-0.54C8.716,4.592,8.638,4.336,8.638,4.037c0-0.248,0.068-0.485,0.204-0.709
	c0.137-0.225,0.347-0.426,0.631-0.602c0.286-0.176,0.648-0.32,1.09-0.435S11.529,2.11,12.14,2.09L12.375,1h1.33l-0.234,1.137
	c0.268,0.018,0.531,0.041,0.789,0.07c0.26,0.027,0.51,0.062,0.746,0.102v1.147c-0.271-0.061-0.561-0.114-0.865-0.161
	c-0.305-0.045-0.604-0.08-0.904-0.101L12.881,4.934z M11.904,3.184c-0.479,0.035-0.814,0.118-1.009,0.248
	c-0.195,0.13-0.292,0.295-0.292,0.494c0,0.16,0.087,0.295,0.258,0.405c0.172,0.11,0.42,0.21,0.748,0.3L11.904,3.184z M12.246,7.93
	c0.271-0.021,0.504-0.057,0.695-0.107c0.19-0.049,0.348-0.111,0.465-0.184c0.119-0.073,0.207-0.154,0.262-0.243
	s0.084-0.185,0.084-0.288c0-0.203-0.094-0.367-0.277-0.492c-0.186-0.123-0.479-0.232-0.889-0.324L12.246,7.93z"/>
<path display="none" d="M7.921,13.005c-0.031-1.046-1.042-2.094-2.088-2.094c-1.062,0-2.118,1.107-2.118,2.168
	c0,0.772,0.533,1.5,1.232,1.84C5.643,13.825,6.792,13.208,7.921,13.005z"/>
<path display="none" d="M4.672,15.43c-0.149,0-0.324,0-0.548,0c-0.531,0-1.327,0.266-1.593,1.063C2.266,17.288,2,18.549,2,18.549
	h1.768c0.205-0.851,0.478-1.906,0.755-2.74C4.567,15.677,4.618,15.552,4.672,15.43z"/>
<path display="none" d="M20.125,18.549H22c0,0-0.266-1.261-0.531-2.058c-0.266-0.798-0.873-1.063-1.404-1.063
	c-0.844,0-0.641,0-0.84,0c0.053,0.123,0.103,0.249,0.146,0.381C19.648,16.643,19.921,17.698,20.125,18.549z"/>
<path display="none" d="M19.012,14.992c0.805-0.303,1.479-1.102,1.479-1.938c0-1.063-1.029-2.144-2.091-2.144
	c-1.035,0-2.062,1.051-2.113,2.087C17.456,13.212,18.416,13.915,19.012,14.992z"/>
<path display="none" d="M12.074,13.417c2.125,0,4.287-2.008,4.287-4.132c0-2.123-2.06-4.285-4.183-4.285
	c-2.123,0-4.235,2.214-4.235,4.337C7.943,11.462,9.951,13.417,12.074,13.417z"/>
<path display="none" d="M18.318,16.159c-0.532-1.593-1.746-2.124-2.809-2.124c-2.273,0-0.748,0-2.502,0c-2.134,0-2.125,0-4.248,0
	c-1.062,0-2.655,0.531-3.186,2.124c-0.531,1.593-1.063,4.116-1.063,4.116H19.38C19.38,20.275,18.85,17.752,18.318,16.159z"/>
<path display="none" d="M20.707,13.375c0.07-0.449,0.167-0.911,0.107-1.375C20.197,7.131,17.075,3.493,12,3.185
	c-0.466-0.029-0.927,0.037-1.376,0.108C9.812,2.791,8.854,2.5,7.827,2.5C4.885,2.5,2.5,4.884,2.5,7.827
	c0,1.026,0.291,1.983,0.793,2.798C3.224,11.072,3.135,11.534,3.186,12c0.515,4.766,3.946,8.813,8.814,8.813
	c0.468,0,0.927-0.035,1.376-0.105c0.813,0.5,1.771,0.792,2.797,0.792c2.942,0,5.327-2.386,5.327-5.327
	C21.5,15.145,21.209,14.188,20.707,13.375z M16.186,16.009c-0.373,0.537-0.92,0.957-1.638,1.257
	c-0.717,0.303-1.563,0.453-2.543,0.453c-1.174,0-2.146-0.205-2.912-0.619c-0.543-0.298-0.985-0.694-1.326-1.191
	c-0.34-0.498-0.513-0.983-0.513-1.458c0-0.28,0.106-0.524,0.314-0.722c0.21-0.201,0.481-0.302,0.8-0.302
	c0.262,0,0.486,0.079,0.669,0.236c0.182,0.155,0.334,0.382,0.458,0.681c0.149,0.348,0.312,0.639,0.484,0.869
	c0.171,0.229,0.413,0.419,0.725,0.569c0.309,0.147,0.721,0.225,1.235,0.225c0.706,0,1.273-0.153,1.709-0.455
	c0.438-0.302,0.647-0.671,0.647-1.116c0-0.355-0.112-0.64-0.346-0.859c-0.234-0.223-0.537-0.393-0.913-0.51
	c-0.377-0.121-0.885-0.248-1.52-0.381c-0.853-0.188-1.566-0.402-2.144-0.651c-0.579-0.25-1.039-0.591-1.38-1.022
	C7.651,10.576,7.48,10.035,7.48,9.393c0-0.61,0.18-1.158,0.541-1.633c0.36-0.478,0.881-0.842,1.561-1.097
	c0.678-0.255,1.476-0.381,2.389-0.381c0.731,0,1.363,0.084,1.897,0.252c0.532,0.169,0.979,0.394,1.334,0.675
	c0.354,0.279,0.614,0.575,0.778,0.884c0.164,0.313,0.246,0.614,0.246,0.911c0,0.276-0.106,0.525-0.313,0.745
	c-0.208,0.218-0.474,0.331-0.785,0.329c-0.278,0-0.499-0.065-0.651-0.202c-0.148-0.132-0.306-0.341-0.474-0.635
	c-0.213-0.41-0.468-0.729-0.765-0.958c-0.289-0.224-0.766-0.341-1.43-0.339c-0.613,0-1.105,0.125-1.475,0.37
	c-0.374,0.25-0.552,0.54-0.552,0.878c0,0.212,0.061,0.391,0.184,0.544c0.125,0.154,0.299,0.288,0.522,0.401
	c0.223,0.114,0.45,0.202,0.678,0.267c0.231,0.065,0.614,0.16,1.146,0.285c0.667,0.144,1.273,0.304,1.817,0.479
	c0.543,0.176,1.007,0.389,1.39,0.642c0.387,0.251,0.688,0.573,0.902,0.961c0.217,0.39,0.325,0.864,0.325,1.424
	C16.746,14.868,16.559,15.473,16.186,16.009z"/>
<path display="none" d="M17.583,5.256c-0.586-1.267-1.694-2.435-3.528-2.945c-0.613-0.17-1.311-0.326-2.11-0.309
	c-2.409,0.052-3.937,1.022-4.842,2.32C6.222,5.583,5.9,7.091,5.783,8.076C5.782,8.11,5.771,8.529,6.023,9.069
	c0.466,0.551,1.345,0.959,1.974,1.194c0.907,0.338,1.931,0.557,3.116,0.67c0.296,0.117,0.67,0.218,1.166,0.219
	c0.327,0.002,0.67-0.066,1.008-0.195c0.757-0.063,1.465-0.205,2.107-0.438c0.772-0.28,1.436-0.657,1.969-1.122
	c0.113-0.099,0.523-0.475,0.613-0.586c0.131-0.155,0.198-0.442,0.254-0.822C18.188,7.252,18.034,6.232,17.583,5.256z M13.514,4.519
	c0.7,0,1.27,0.843,1.27,1.882s-0.569,1.881-1.27,1.881c-0.701,0-1.271-0.842-1.271-1.881S12.813,4.519,13.514,4.519z M10.515,4.541
	c0.701,0,1.269,0.842,1.269,1.882c0,1.039-0.568,1.881-1.269,1.881c-0.701,0-1.269-0.842-1.269-1.881
	C9.246,5.383,9.814,4.541,10.515,4.541z M14.107,10.513c0.236-0.17,0.453-0.364,0.627-0.573l-0.158-0.097
	c-0.456,0.55-1.43,1.042-2.336,1.042c-0.7,0-1.316-0.267-1.638-0.411c-0.079-0.036-0.71-0.404-0.948-0.6L9.517,9.973
	c0.049,0.041,0.522,0.371,0.798,0.555c-0.287-0.061-1.583-0.365-1.583-0.928c0-0.635,1.948-1.182,3.348-1.182
	c0.523,0,1.143,0.08,1.713,0.21c-0.009-0.004-0.018-0.007-0.025-0.01c0.571,0.13,1.094,0.313,1.422,0.517
	c0.013,0.007,0.024,0.015,0.037,0.022c0.037,0.024,0.071,0.049,0.104,0.074c0.025,0.02,0.048,0.041,0.07,0.061
	c0.002,0.002,0.004,0.005,0.008,0.007c0.094,0.091,0.152,0.184,0.152,0.278C15.561,10.077,14.448,10.419,14.107,10.513z"/>
<path display="none" d="M6.4,12.677c0.693,0.362,1.401,0.696,2.136,0.964c1.936,0.516,3.926,0.543,5.897,0.215
	c1.035-0.17,2.104-0.447,3.016-0.981c0.58-0.34,1.92-1.175,1.593-2.006l0,0c-0.056-0.139-0.146-0.212-0.249-0.315
	c-0.158-0.156-0.102-0.303-0.025-0.495c0.151-0.382,0.25-0.894-0.072-1.225c0,0.002,0,0.003,0,0.004
	c-0.051-0.054-0.107-0.097-0.162-0.132c-0.006,0.247-0.21,0.46-0.355,0.64c-0.199,0.245-0.425,0.457-0.673,0.65
	c-0.476,0.374-1.01,0.671-1.567,0.904c-1.088,0.455-2.264,0.64-3.438,0.652c-1.28,0-2.577-0.147-3.813-0.487
	c-1.086-0.299-2.272-0.735-2.972-1.667c0,0-0.258-0.354-0.252-0.641C5.458,8.76,5.454,8.763,5.45,8.767L5.294,8.919
	c0-0.001,0-0.001,0-0.003C5.045,9.2,4.934,9.575,4.984,9.948c-0.37,0.204-0.344,0.746-0.264,1.094l0,0
	c0.012,0.056,0.027,0.113,0.045,0.174C4.766,11.217,5.153,12.024,6.4,12.677C6.503,12.73,5.153,12.024,6.4,12.677z"/>
<path display="none" d="M6.123,13.09c-0.191,0.49-0.362,1.057-0.426,1.579c-0.088,0.72,0.292,1.257,0.958,1.503
	c0.5,0.186,1.3,0.453,1.755,0.046c0.354-0.317,0.398-0.87,0.434-1.313l0.066-0.579c-0.023,0.052-1.012-0.353-1.079-0.38
	C7.267,13.72,6.591,13.491,6.123,13.09C5.982,13.453,6.207,13.162,6.123,13.09z"/>
<path display="none" d="M19.945,11.761c0,0-0.146-0.181-0.326-0.382c-0.023,0.112-0.063,0.223-0.117,0.329
	c-0.313,0.603-0.875,1.032-1.423,1.419c-0.125,0.087-0.257,0.169-0.396,0.249c0.281,0.669,0.576,1.692,0.357,2.733
	c-0.372,1.772-2.451,3.678-5.931,3.678c-3.479,0-5.491-2.002-5.799-2.605c-0.117-0.229-0.213-0.453-0.286-0.697
	c-0.116-0.069-0.228-0.147-0.329-0.241c-0.832-0.777-0.556-1.771-0.392-2.364l0.015-0.054c0.106-0.407,0.206-0.737,0.313-0.995
	c-0.825-0.581-1.186-1.079-1.307-1.274c-0.647,0.904-1.666,2.653-1.215,4.231c0,0,0.106,0.219,0.39,0.072
	C3.689,15.762,3.924,15.453,4.366,15c0,0,0.125,1.984,2.288,3.423c-0.18,0.019-0.356,0.044-0.524,0.082c0,0-1.532,0.438-1.532,1.204
	c0,0.768,1.663,1.115,1.663,1.115s3.37,0.679,5.142-0.656c0.148-0.111,0.252-0.216,0.322-0.314c0.114,0.006,0.225,0.016,0.342,0.02
	c0,0,0.197,0.003,0.523-0.016c0.071,0.099,0.174,0.201,0.319,0.312c0.893,0.671,2.188,0.834,3.257,0.828
	c0.589,0.015,1.245-0.022,1.875-0.169c0.007-0.001,0.011-0.003,0.011-0.003s0.007-0.001,0.015-0.003
	c0.013-0.002,0.022-0.004,0.035-0.008c0.209-0.049,1.096-0.278,1.459-0.715c0.012-0.012,0.021-0.027,0.03-0.043
	c0.075-0.104,0.124-0.22,0.124-0.346c0-0.766-1.531-1.204-1.531-1.204c-0.23-0.051-0.478-0.082-0.727-0.098
	c1.061-0.709,1.951-1.761,2.283-3.32c0,0,0.582,0.683,1.007,0.88c0.106,0.049,0.226,0.042,0.296,0.004
	c0.077-0.041,0.121-0.171,0.146-0.384C21.285,14.822,20.971,13.061,19.945,11.761z"/>
<ellipse display="none" cx="10.915" cy="6.774" rx="0.458" ry="0.69"/>
<ellipse display="none" cx="13.074" cy="6.774" rx="0.459" ry="0.69"/>
<path display="none" d="M12.171,2C7.06,2,2.916,6.143,2.916,11.255c0,1.748,0.486,3.384,1.329,4.779L2.574,21l5.125-1.641
	c1.326,0.732,2.851,1.15,4.473,1.15c5.112,0,9.255-4.144,9.255-9.255C21.426,6.143,17.283,2,12.171,2z M12.171,18.959
	c-1.564,0-3.022-0.469-4.238-1.273l-2.961,0.947l0.963-2.861c-0.923-1.271-1.468-2.83-1.468-4.518c0-4.249,3.456-7.706,7.704-7.706
	c4.249,0,7.705,3.457,7.705,7.706S16.42,18.959,12.171,18.959z M16.512,13.357c-0.232-0.127-1.373-0.742-1.586-0.83
	c-0.213-0.086-0.369-0.132-0.537,0.099c-0.166,0.229-0.639,0.745-0.781,0.897c-0.146,0.153-0.283,0.166-0.516,0.041
	c-0.232-0.129-0.983-0.405-1.855-1.245c-0.678-0.652-1.125-1.445-1.252-1.685c-0.13-0.242-0.001-0.365,0.122-0.478
	c0.11-0.102,0.246-0.268,0.369-0.401c0.124-0.134,0.167-0.231,0.25-0.386c0.085-0.154,0.051-0.293-0.003-0.414
	c-0.054-0.121-0.484-1.301-0.663-1.781c-0.18-0.48-0.378-0.408-0.517-0.414c-0.138-0.004-0.294-0.03-0.452-0.035
	C8.933,6.72,8.675,6.771,8.45,6.999C8.224,7.227,7.593,7.775,7.549,8.938C7.505,10.1,8.31,11.255,8.422,11.417
	c0.112,0.163,1.536,2.681,3.902,3.718c2.365,1.036,2.379,0.721,2.813,0.697s1.418-0.52,1.637-1.063
	c0.218-0.545,0.234-1.019,0.18-1.119S16.743,13.484,16.512,13.357z"/>
<path display="none" d="M22,11.115C22,6.641,17.514,3,12,3C6.487,3,2,6.641,2,11.115c0,4.011,3.558,7.371,8.363,8.007
	c0.325,0.069,0.769,0.216,0.88,0.493c0.101,0.252,0.066,0.648,0.032,0.902c0,0-0.117,0.707-0.142,0.856
	c-0.043,0.253-0.201,0.989,0.866,0.539c1.067-0.449,5.759-3.39,7.856-5.806l0,0C21.307,14.52,22,12.906,22,11.115z M8.085,13.777
	H6.099c-0.29,0-0.525-0.235-0.525-0.525V9.279c0-0.289,0.235-0.524,0.525-0.524c0.289,0,0.524,0.235,0.524,0.524v3.45h1.462
	c0.29,0,0.524,0.234,0.524,0.522C8.609,13.542,8.375,13.777,8.085,13.777z M10.141,13.252c0,0.29-0.235,0.525-0.524,0.525
	c-0.289,0-0.524-0.235-0.524-0.525V9.279c0-0.289,0.235-0.524,0.524-0.524c0.289,0,0.524,0.235,0.524,0.524V13.252z M14.923,13.252
	c0,0.227-0.144,0.428-0.358,0.498c-0.053,0.02-0.109,0.027-0.166,0.027c-0.164,0-0.32-0.078-0.418-0.211l-2.038-2.771v2.457
	c0,0.29-0.235,0.525-0.524,0.525s-0.524-0.235-0.524-0.525V9.279c0-0.227,0.144-0.426,0.358-0.498
	c0.054-0.018,0.11-0.026,0.167-0.026c0.164,0,0.32,0.078,0.419,0.21l2.036,2.773V9.279c0-0.289,0.236-0.524,0.523-0.524
	c0.291,0,0.524,0.235,0.524,0.524V13.252z M18.139,10.742c0.289,0,0.523,0.234,0.523,0.523s-0.235,0.524-0.523,0.524h-1.463v0.938
	h1.463c0.288,0,0.523,0.235,0.523,0.523c0,0.29-0.235,0.525-0.523,0.525H16.15c-0.289,0-0.523-0.235-0.523-0.525v-1.984
	c0,0,0,0,0-0.002V9.281c0-0.001,0-0.002,0-0.002c0-0.289,0.234-0.524,0.523-0.524h1.988c0.289,0,0.523,0.235,0.523,0.524
	c0,0.289-0.235,0.524-0.523,0.524h-1.463v0.938L18.139,10.742L18.139,10.742z"/>
<path display="none" d="M13.348,5.036c-2.078-1.17-4.668-1.347-6.905-0.539c-1.469,0.529-2.8,1.513-3.621,2.852
	c-0.745,1.208-1.025,2.715-0.665,4.096c0.361,1.534,1.424,2.821,2.719,3.679c-0.244,0.708-0.484,1.415-0.71,2.129
	c0.818-0.425,1.627-0.868,2.442-1.302c0.983,0.314,2.017,0.467,3.049,0.434c-0.27-0.789-0.333-1.639-0.211-2.461
	c0.195-1.142,0.813-2.187,1.667-2.961c1.438-1.346,3.475-1.915,5.415-1.777C16.164,7.407,14.914,5.903,13.348,5.036z M7.776,8.26
	C7.632,8.956,6.699,9.292,6.153,8.825C5.522,8.379,5.698,7.274,6.441,7.051C7.169,6.77,7.996,7.509,7.776,8.26z M12.824,8.057
	c0.007,0.803-1.061,1.302-1.661,0.758c-0.623-0.445-0.446-1.531,0.285-1.756C12.102,6.801,12.876,7.353,12.824,8.057z"/>
<path display="none" d="M21.617,12.92c-0.508-1.148-1.467-2.059-2.576-2.622c-1.961-0.995-4.4-0.987-6.355,0.023
	c-1.359,0.698-2.495,1.948-2.817,3.47c-0.266,1.119-0.026,2.324,0.566,3.301c0.885,1.467,2.481,2.402,4.143,2.703
	c1.204,0.244,2.446,0.102,3.614-0.24c0.699,0.273,1.328,0.715,2.007,1.039c-0.175-0.585-0.36-1.171-0.562-1.75
	c0.76-0.543,1.453-1.217,1.869-2.063C22.126,15.598,22.163,14.135,21.617,12.92z M14.79,13.359
	c-0.172,0.543-0.964,0.707-1.345,0.293c-0.422-0.383-0.258-1.183,0.295-1.353C14.354,12.042,15.061,12.748,14.79,13.359z
	 M18.786,13.436c-0.21,0.488-0.942,0.602-1.304,0.224c-0.176-0.157-0.219-0.396-0.289-0.607c0.095-0.381,0.349-0.777,0.781-0.795
	C18.573,12.174,19.1,12.9,18.786,13.436z"/>
<path display="none" fill="none" d="M0,0h24v24H0V0z"/>
<path display="none" d="M6.62,10.79c1.439,2.83,3.76,5.14,6.59,6.59l2.2-2.2c0.27-0.27,0.67-0.359,1.02-0.24
	c1.12,0.371,2.33,0.57,3.57,0.57c0.55,0,1,0.45,1,1V20c0,0.55-0.45,1-1,1C10.61,21,3,13.391,3,4c0-0.55,0.45-1,1-1h3.5
	c0.55,0,1,0.45,1,1c0,1.25,0.2,2.45,0.569,3.57C9.18,7.92,9.1,8.31,8.819,8.59L6.62,10.79z"/>
<polygon display="none" points="14.627,3 17.061,5.433 14,8.492 15.508,10 18.566,6.94 21,9.373 21,3 "/>
<path display="none" fill="none" d="M0,0h24v24H0V0z"/>
<path display="none" d="M6.62,10.79c1.439,2.83,3.76,5.14,6.59,6.59l2.2-2.2c0.27-0.27,0.67-0.359,1.02-0.24
	c1.12,0.371,2.33,0.57,3.57,0.57c0.55,0,1,0.45,1,1V20c0,0.55-0.45,1-1,1C10.61,21,3,13.391,3,4c0-0.55,0.45-1,1-1h3.5
	c0.55,0,1,0.45,1,1c0,1.25,0.2,2.45,0.569,3.57C9.18,7.92,9.1,8.31,8.819,8.59L6.62,10.79z"/>
<path display="none" fill="none" d="M0,0h24v24H0V0z"/>
<path display="none" d="M20,4H4C2.9,4,2.01,4.9,2.01,6L2,18c0,1.1,0.9,2,2,2h16c1.1,0,2-0.9,2-2V6C22,4.9,21.1,4,20,4z M20,18H4V8
	l8,5l8-5V18z M12,11L4,6h16L12,11z"/>
<path display="none" d="M20,4H4C2.9,4,2.01,4.899,2.01,6L2,18c0,1.1,0.9,2,2,2h16c1.1,0,2-0.9,2-2V6C22,4.899,21.1,4,20,4z M20,8
	l-8,5L4,8V6l8,5l8-5V8z"/>
<path display="none" fill="none" d="M0,0h24v24H0V0z"/>
<path display="none" d="M20,2H4C2.9,2,2.01,2.9,2.01,4L2,22l4-4h14c1.1,0,2-0.9,2-2V4C22,2.9,21.1,2,20,2z M18,14H6v-2h12V14z
	 M18,11H6V9h12V11z M18,8H6V6h12V8z"/>
<path display="none" fill="none" d="M0,0h24v24H0V0z"/>
<g>
	<path fill="#F0AA3F" d="M12,12c2.21,0,4-1.791,4-4c0-2.211-1.789-4-4-4C9.792,4,8,5.79,8,8C8,10.209,9.792,12,12,12z M12,14
		c-2.67,0-8,1.34-8,4v2h16v-2C20,15.34,14.67,14,12,14z"/>
	<path fill="none" d="M0,0h24v24H0V0z"/>
	<g>
		<path fill="#D79C29" d="M12,12c2.21,0,4-1.791,4-4c0-2.211-1.789-4-4-4V12z"/>
		<path fill="#D79C29" d="M12,14v6h8v-2C20,15.34,14.67,14,12,14z"/>
	</g>
</g>
</svg>
