<svg xmlns="http://www.w3.org/2000/svg" viewBox="0 0 420.54 186.17"><defs><style>.cls-1{fill:#ff7600;}.cls-2,.cls-3{fill:#fff;}.cls-3,.cls-4{opacity:0.7;}</style></defs><g id="圖層_2" data-name="圖層 2"><g id="圖層_1-2" data-name="圖層 1"><path id="Path_46" data-name="Path 46" class="cls-1" d="M309.15,78.11a53,53,0,0,1-11.43-1.22,28.42,28.42,0,0,1-9.7-4,17.45,17.45,0,0,1-6.12-6.56A19,19,0,0,1,280,57.69a22.1,22.1,0,0,1,.7-5.49,18.79,18.79,0,0,1,2.14-5,15.65,15.65,0,0,1,3.27-3.94,18.25,18.25,0,0,1,3.65-2.49,44.23,44.23,0,0,1,5.17-2.07.66.66,0,0,0,.41-.57.64.64,0,0,0-.34-.61,32.63,32.63,0,0,1-4.51-2.61,17.54,17.54,0,0,1-2.74-2.57A14.44,14.44,0,0,1,285.56,29a14.6,14.6,0,0,1-1.23-3.75,20.57,20.57,0,0,1-.36-3.92,19.63,19.63,0,0,1,2.27-9.49,18.48,18.48,0,0,1,6.75-7,29.63,29.63,0,0,1,9.67-3.82,54.94,54.94,0,0,1,10.93-1,42.39,42.39,0,0,1,10.52,1.29,24,24,0,0,1,8.6,4,17,17,0,0,1,5.21,6.19,19.42,19.42,0,0,1,1.65,8.37,22.21,22.21,0,0,1-.45,4.52,15.18,15.18,0,0,1-1.35,3.94,15.92,15.92,0,0,1-2.28,3.32,18.81,18.81,0,0,1-2.85,2.65,39.43,39.43,0,0,1-5.12,3,.66.66,0,0,0-.33.63.63.63,0,0,0,.45.55,43.63,43.63,0,0,1,5.19,1.8,14.35,14.35,0,0,1,3.35,2.14,13.92,13.92,0,0,1,4.44,7.15,19.43,19.43,0,0,1,.51,4.43,22.55,22.55,0,0,1-2.55,10.4,21.18,21.18,0,0,1-7,7.95,30.15,30.15,0,0,1-10.33,4.36,54.6,54.6,0,0,1-12.15,1.36M311,44.93A11.21,11.21,0,0,0,303,47.64a9.32,9.32,0,0,0-2.9,7.06,9.14,9.14,0,0,0,1.29,4.71,8.31,8.31,0,0,0,3.76,3.3,12.46,12.46,0,0,0,5.21,1.09,12,12,0,0,0,5.32-1.18,9.23,9.23,0,0,0,3.87-3.56A10.11,10.11,0,0,0,321,53.65a8.05,8.05,0,0,0-2.72-6.43A11,11,0,0,0,311,44.94m1.34-30.75a9.68,9.68,0,0,0-7.12,2.64,8.9,8.9,0,0,0-2.65,6.51,8.1,8.1,0,0,0,1.16,4.26A7.2,7.2,0,0,0,307,30.51a10.8,10.8,0,0,0,4.41.92,10,10,0,0,0,6.95-2.53,8.68,8.68,0,0,0,2.83-6.68,7.54,7.54,0,0,0-2.45-5.86,9.21,9.21,0,0,0-6.43-2.17"/><path id="Path_47" data-name="Path 47" class="cls-1" d="M377.93,78.11a52.69,52.69,0,0,1-11.42-1.22,28.58,28.58,0,0,1-9.71-4,17.53,17.53,0,0,1-6.11-6.57,18.88,18.88,0,0,1-1.91-8.61,21.56,21.56,0,0,1,.7-5.48,19.47,19.47,0,0,1,2.12-5,16.31,16.31,0,0,1,3.29-3.93,17.62,17.62,0,0,1,3.65-2.5,43.94,43.94,0,0,1,5.15-2.07.65.65,0,0,0,.08-1.18,31.94,31.94,0,0,1-4.5-2.61,16.28,16.28,0,0,1-2.74-2.57,15,15,0,0,1-3.42-7.08,22.34,22.34,0,0,1-.37-3.92A19.83,19.83,0,0,1,355,11.84a18.51,18.51,0,0,1,6.75-7,29.94,29.94,0,0,1,9.67-3.82,54.93,54.93,0,0,1,10.93-1A42.47,42.47,0,0,1,392.9,1.3a23.84,23.84,0,0,1,8.6,4,17.23,17.23,0,0,1,5.21,6.19,19.44,19.44,0,0,1,1.64,8.37,22.86,22.86,0,0,1-.44,4.52,15.4,15.4,0,0,1-1.36,3.95,16.68,16.68,0,0,1-2.27,3.32,20.59,20.59,0,0,1-2.87,2.65,38.6,38.6,0,0,1-5.11,3,.65.65,0,0,0,.11,1.19,45.27,45.27,0,0,1,5.18,1.79A14.33,14.33,0,0,1,405,42.46a13.78,13.78,0,0,1,4.43,7.14,18.39,18.39,0,0,1,.53,4.43,22.64,22.64,0,0,1-2.57,10.41,21.11,21.11,0,0,1-6.95,7.94,30.13,30.13,0,0,1-10.34,4.37,54.94,54.94,0,0,1-12.13,1.35m1.82-33.17a11.23,11.23,0,0,0-7.94,2.72,9.28,9.28,0,0,0-2.92,7.05,9.12,9.12,0,0,0,1.3,4.71,8.36,8.36,0,0,0,3.76,3.3,12.46,12.46,0,0,0,5.21,1.09,11.92,11.92,0,0,0,5.32-1.18,9.2,9.2,0,0,0,3.88-3.56,10.27,10.27,0,0,0,1.43-5.41,8,8,0,0,0-2.71-6.43,11,11,0,0,0-7.34-2.28m1.33-30.75a9.69,9.69,0,0,0-7.12,2.64,9,9,0,0,0-2.65,6.51,8.24,8.24,0,0,0,1.17,4.27,7.14,7.14,0,0,0,3.27,2.9,10.7,10.7,0,0,0,4.43.92,9.93,9.93,0,0,0,6.93-2.53,8.6,8.6,0,0,0,2.84-6.68,7.54,7.54,0,0,0-2.43-5.85,9.21,9.21,0,0,0-6.43-2.18"/><path class="cls-2" d="M136.94,24.19a28.18,28.18,0,0,0-10.16-6,38.4,38.4,0,0,0-12.61-2.1,39.7,39.7,0,0,0-13.52,2.35A29.4,29.4,0,0,0,89.8,25.11a26.84,26.84,0,0,0-6.39,9.73,32.53,32.53,0,0,0-2,11.42,31.84,31.84,0,0,0,2.07,11.42A24.86,24.86,0,0,0,89.63,67a27,27,0,0,0,10.26,5.92,41.24,41.24,0,0,0,12.9,2h0a41.2,41.2,0,0,0,13.83-2.32,25.78,25.78,0,0,0,10.66-6.91,27.67,27.67,0,0,0,5.95-9.91A35.84,35.84,0,0,0,145,44.59a32.36,32.36,0,0,0-2-11.28A24.26,24.26,0,0,0,136.94,24.19ZM123.3,52.47A12.13,12.13,0,0,1,119,58.32a10.93,10.93,0,0,1-6.4,2,10.16,10.16,0,0,1-7.84-3.48A14.32,14.32,0,0,1,101.66,47a22.15,22.15,0,0,1,1.42-8,11.92,11.92,0,0,1,4.27-5.7,11.19,11.19,0,0,1,6.46-2v0a10.31,10.31,0,0,1,6,1.78,10,10,0,0,1,3.74,4.77,18.37,18.37,0,0,1,1.12,6.52A23.28,23.28,0,0,1,123.3,52.47Z"/><path class="cls-2" d="M201.58,17.62c-3.31,0-6.81-.05-10.5-.12l-8.37,24.24c-1.47,4.24-2.31,6.55-2.51,7.06l-1.39,4.49c-.09.26-.33.1-.59.1h0c-.27,0-.5.14-.57-.14-2.13-8.81-4.11-16.2-5.89-22.64-1.68-6-2.84-10.4-3.49-13.06q-4.62.11-9.83.1c-3.26,0-6.77,0-10.51-.09l12.54,38L166,73.46c4.19-.07,8-.11,11.36-.11,3.11,0,6.7,0,10.75.11l2.79-7.13,13.78-33.06,7-15.72C208.18,17.61,204.81,17.62,201.58,17.62Z"/><path class="cls-2" d="M265.84,22.16a16.31,16.31,0,0,0-7.92-4.61,42.31,42.31,0,0,0-11.42-1.47,121.22,121.22,0,0,0-26,3.42l-.8,6.14c-.16,1.26-.53,3.47-1.08,6.56a63,63,0,0,1,22-5.07A9.58,9.58,0,0,1,246,28.38a4.37,4.37,0,0,1,2,3.82,4.63,4.63,0,0,1-1.33,3.28,6.16,6.16,0,0,1-1.78,1.25,23.42,23.42,0,0,1-3.43,1.15c-1.56.44-3.28.84-5.15,1.22a88.29,88.29,0,0,0-11,2.83,29.8,29.8,0,0,0-6.74,3.15,18.58,18.58,0,0,0-4.26,4,17,17,0,0,0-2.67,4.75,15.35,15.35,0,0,0-.85,4.94,17.37,17.37,0,0,0,2.3,8.3,13.53,13.53,0,0,0,6.52,6,27.16,27.16,0,0,0,10.84,1.88h0a53.11,53.11,0,0,0,8.25-.71c1.19-4.6,2.27-8.31,3.19-11a15.48,15.48,0,0,1-5,.81,7.2,7.2,0,0,1-5-1.51,4.94,4.94,0,0,1-1.66-3.72,5.74,5.74,0,0,1,.59-2.54,6.76,6.76,0,0,1,1.88-2.17,10.94,10.94,0,0,1,3-1.66c1.1-.42,2.62-.92,4.56-1.53s3.24-1,4-1.33,1.8-.77,3.14-1.43a.46.46,0,0,1,.26-.07.55.55,0,0,1,.33.11.64.64,0,0,1,.27.56c-.55,12.07-1.07,20.4-1.53,24.75,3.52-.06,6.87-.1,10-.1s6.56.05,9.87.1c.27-11.52.69-21,1.22-28.19s.79-12,.79-14.07A13.19,13.19,0,0,0,265.84,22.16Z"/><path class="cls-2" d="M57,2c0,4.27-.23,11.44-.61,21.31-.4,10.75-.81,19.27-1.19,25.33A1.27,1.27,0,0,1,54,49.79a1.19,1.19,0,0,1-1-.66l-3-6.1L28.21,2c-5,.06-8.83.1-11.62.1-3.83,0-6.53,0-12.9-.1V9.2L3,24.62.91,62.9,0,72.81q6.74-.07,9.33-.08,3,0,8.6.08l.49-20.24,1.11-25.45A1.26,1.26,0,0,1,20.72,26a1.17,1.17,0,0,1,1.07.67c1.67,3.43,3.3,6.63,4.89,9.53,2.45,4.66,5.11,9.49,7.88,14.35l8.68,15.33q1.21,2.22,3.65,7h0q8.07-.1,12.73-.1,5.34,0,11.41.09l.28-11.65,2.33-44.5L74.77,2q-7.22.1-8.83.1C63.64,2.11,60.64,2.08,57,2Z"/><path class="cls-2" d="M3.09,98.83H22.76v4.79H8.91v23.43c0,1.48.62,2.22,1.88,2.22H21.22v4.45H7.71q-4.78.17-4.62-4.79Zm6.5,6.33h5.47a33.15,33.15,0,0,0,1.2,8.55,37.56,37.56,0,0,0,1.37-8.55h5.13q-.51,9.41-3.59,14.7A23.14,23.14,0,0,0,22.76,124v5a35.52,35.52,0,0,1-6.5-5.3,36.9,36.9,0,0,1-6.67,5.3v-5A39.46,39.46,0,0,0,13.35,120Q10.11,114.57,9.59,105.16Zm22.23,21.55q-2.73,6.15-10.09,9.91v-5.13a20.49,20.49,0,0,0,5.3-8.55q1.38-4.09,1.37-12V109.6a30.9,30.9,0,0,1-5.81,4.62v-5q2.73-3.93,3.42-12h6.5a3,3,0,0,1-.17.68,21.68,21.68,0,0,0-.17,2.4h9.74v11.11H36.1v-6.32H30.8a12.37,12.37,0,0,1-1.88,3.59h6.15v2.39q-.51,13.17,6.84,20v5.13A23.63,23.63,0,0,1,31.82,126.71Z"/><path class="cls-2" d="M102.18,98.66v5H92.26v26.51h10.43v4.78H63.87v-4.78H74.3V103.62H64.39v-5Zm-37.79,8.89h6.49A80.37,80.37,0,0,0,73.62,124H68Q65.74,118.15,64.39,107.55Zm17.1-3.93v26.51h3.59V103.62ZM102,107.55q-1.37,10.61-3.59,16.42H92.77a79.69,79.69,0,0,0,2.74-16.42Z"/><path class="cls-2" d="M128.07,136.28V113.19c-.45.12-1.25.35-2.39.69a5.4,5.4,0,0,0-1.2.34V110q4.78-3.09,6.67-12.83h7.18a40.45,40.45,0,0,1-3.42,9.92v29.24Zm35.57-3.76a33.43,33.43,0,0,1-5.81-6.67v3.08h-4.62v7.35h-7v-7.35h-4.79V126a24.42,24.42,0,0,1-5.47,6.5v-5.47q3.76-7.53,3.42-19.84H137v-4.79h9.23v-5.3h7v5.3h9.58v4.79h-2.74q-.35,12.32,3.59,19.84Zm-18.29-25.31q-.18,11.46-3.08,17.27h3.93V107.21Zm11.8,17.27q-3.09-5.3-2.91-17.27h-1v17.27Z"/><path class="cls-2" d="M186.12,104.13V99.34h15.22V97.12h8.89v2.22h15.05v4.79H205.1a35.77,35.77,0,0,1-4.28,2.74l-1,.51h8c1.82-.11,3.64-.28,5.47-.51-.46-.57-1-1.2-1.54-1.88h6.5a31.76,31.76,0,0,1,5,7.52H216a4.36,4.36,0,0,0-.17-1c.12.23.06.12-.17-.34q-5.47.51-16.41.86h-8.9v-4.62a7,7,0,0,0,.86-.51,38.14,38.14,0,0,0,4.61-2.74ZM213,132c1.14.11,1.65-.46,1.54-1.71V130H197.23v6.16h-7.35V113.37H222v17.27c.11,3.76-1.65,5.58-5.3,5.47H211.6V132Zm1.54-14.2H197.23v2h17.28ZM197.23,124v1.88h17.28V124Z"/><path class="cls-3" d="M182.08,163.68l.07,0c3.92-1.54,6.14-3.3,6.58-5.21a.78.78,0,0,0-.11-.66c-.19-.26-.71-.6-2.09-.72-1.31.79-3.15,2-5.46,3.52l-.12,0-.91.1.11-.36c1.6-5.47,2.68-9,3.2-10.61a10.12,10.12,0,0,0-.37-4.53,24.55,24.55,0,0,0-4.77,1.33l-.25.09-.08-.25c-.42-1.38-1.86-2.42-4.29-3.12,0,.28,0,.8.06,1.81v.13l-.1.08c-6.76,5.24-11.4,9-13.81,11.19l-.05.21a39.67,39.67,0,0,0,7.7-3.3l.08,0,.61-.06-.08.34c-.21.92-1.31,4.22-3.35,10.08l1.88,2.14-.27,1.18-.18,0c-.91.1-6.14,1.9-15.52,5.38a2.2,2.2,0,0,0,1,2.65l.93-.09c2-1.59,7.29-3.75,16.25-6.57l.68-.08-.25,1.09-.08,0c-14.6,9.9-17.91,13-18.11,13.91l-.07.32c3.17-.52,9-3.9,17.35-10.08,2.5-2,4.15-3,5-3.1l.88-.09-.1.35c-1,3.45-1.63,6-2,7.68l-1.27,4.67-4.8.49a.81.81,0,0,0,.14.43c.38.57,1.68,1.39,5.78,2.11a8.61,8.61,0,0,0,2.3-.64c1.25-5,2.19-8.46,2.87-11,.47-1.77.82-3,1-3.89a15.7,15.7,0,0,0,.17-4.22v-.24l.24,0C178.7,166.13,179.49,165.78,182.08,163.68Zm-5.35-2.15c-.42,1.81-2.95,3.24-7.73,4.36l-.63.07.33-1.45c.52-2.28,3.15-3.78,8-4.61l.37-.06Zm.87-3.82-5.75,1.47-.64.07.08-.34a6,6,0,0,0-2-5.76l-.1-.1.16-.7.09,0,7.86-5,.14.2a2,2,0,0,0,1.91,1l.34,0-.87,3.8-1.25.13c-3.77.5-4.3,1.1-4.36,1.34l0,.1.45-.05,1.65.11-.12.5-.29.64,3.58-1.2Z"/><g class="cls-4"><path class="cls-2" d="M248.31,161.21l-.48,0-.05.3a19.37,19.37,0,0,0-.24,2.8,8,8,0,0,0-.61,1.52l-.13.46.08.13c.43.75.85,1.1,1.32,1.1h0c.44,0,1.17-.5,3.6-3.58l.13-.16-.06-.19A3.12,3.12,0,0,0,248.31,161.21Z"/><path class="cls-2" d="M239.68,144h0l-.53.05a3.07,3.07,0,0,0-1.83,1.26c-.62.12-1.82.68-4.81,3.26l-.09.08-.2.82.51-.05a23.43,23.43,0,0,0,3.29-.73,24.54,24.54,0,0,0,5.72-2.45l.13-.08.1-.4-.06-.12A2.51,2.51,0,0,0,239.68,144Z"/><path class="cls-2" d="M258.43,154.6a47.76,47.76,0,0,0-7.4-4.12,9.51,9.51,0,0,1,.61-1.45,2.72,2.72,0,0,1,2.05-1l1.55-.16c.91-.19,1.29-.4,1.38-.76l.07-.27a.56.56,0,0,0-.1-.47c-.22-.29-.75-.57-3.2-.68h-.32l0,.21-.23,0-.61.06a2.21,2.21,0,0,1-1.1-.29l-.11-.05-.14,0a6.65,6.65,0,0,1-.77.16l-.27,0-.28,1.16c-.29.21-1.44.88-5.52,3v0a.59.59,0,0,0-.1-.48c-.22-.29-.79-.6-3.41-.71l-.32,0-.06.22a.84.84,0,0,1-.27.05l-.65.07a2.39,2.39,0,0,1-1.19-.31l-.12-.06-.13,0c-.48.12-.72.16-.83.18l-.28,0-.29,1.24c-.32.24-1.7,1-6.88,3.66-1.52.48-1.71.65-1.78.92l-.07.31.15.14a2.57,2.57,0,0,0,1.78.82h0l.23,0a9.61,9.61,0,0,0,2.17-.64c1.43-.78,2.33-1.25,2.89-1.55a71.22,71.22,0,0,1-5.93,7l-.07.08-.17.69.92-.1c2.48-.87,3.06-1.36,3.21-1.75.77-1,1.33-1.62,1.73-2l-.19.8c-.1.41-.22,1-.37,1.91l-1,.22-.13.54c-.27,1.12.62,1.93,2.62,2.43l.1,0,.82-.25v-.27a40.61,40.61,0,0,1,.88-6.75c.55.38,1.39,1,2.51,2a.62.62,0,0,0,.12.26c.18.25.62.51,2.06.7l-.64.07,0,.37a21,21,0,0,1-.67,7.46,38.69,38.69,0,0,1-1.84,4.61c-.21.74-1.1,1.19-2.66,1.35l-1.55.16.28-1a31,31,0,0,1,2.36-5.1.51.51,0,0,0-.08-.45l0-.05a.74.74,0,0,0-.15-.34c-.31-.45-1.2-1-5.28-1.18h-.3l-.19.64.14.15c.93,1,1,2.76.36,5.23l-.75,2.65c-1.66.29-4.27.89-8,1.83l-.21.06-.15.5.07.13c.29.55,1.12,1,2.61,1.41l.08,0L248,173.5a49.64,49.64,0,0,1,7.83.39h.08l.09,0c.71-.27,1-.5,1.12-.81l.25-.86-.22-.15a9.65,9.65,0,0,0-6.61-1.48c-3.19.6-5.7,1-7.45,1.2l.15-.55a8.1,8.1,0,0,0,.44-2.72,29,29,0,0,0,2.78-6.75l.23-.81-.33-.1a29.09,29.09,0,0,1-3.74-1.43c.73.07,1.65.13,2.84.16h.31l.27-1.14-.19-.14c-.49-.34-1-.69-1.56-1,1.34-.54,1.81-.91,1.94-1.24.68-.86,1.18-1.44,1.55-1.83l-.16.65c-.1.42-.22,1-.35,1.77l-.9.21-.12.52c-.25,1.05.58,1.82,2.46,2.29l.1,0,.79-.24v-.27a40,40,0,0,1,.8-6.25c.52.36,1.29,1,2.3,1.8a.66.66,0,0,0,.11.24c.28.37,1.12.76,5.2.89h.31l.26-1.1Zm-20.51-.72a10.22,10.22,0,0,1,.66-1.59,3,3,0,0,1,2.23-1.07l.71-.07a.36.36,0,0,0-.07.17l-.08.31.15.14a2.58,2.58,0,0,0,1.69.77l.22,0a9.56,9.56,0,0,0,2-.6l2.6-1.4a63.43,63.43,0,0,1-5,6Q240.78,155.19,237.92,153.88Z"/><path class="cls-2" d="M252.63,141.27h0l-.5,0a2.84,2.84,0,0,0-1.71,1.17c-.58.12-1.71.65-4.49,3l-.09.09-.2.8.51,0a21.84,21.84,0,0,0,3.07-.68,23,23,0,0,0,5.34-2.28l.14-.09.09-.39-.07-.12A2.35,2.35,0,0,0,252.63,141.27Z"/><path class="cls-2" d="M231.27,145.22l-.22-.5a76.34,76.34,0,0,0,11.61-2.48q12-2.94,12.25-3.84c.18-.73-.17-1.05-1-1l0-.25,1-.09.13-.55-3,.3-.75.34.05-.27q-16.84,4.07-19,5.05c.07-.3-.12-.46-.58-.47l-1.62.16a1,1,0,0,0-.83.62,14.91,14.91,0,0,1-3.58.09c1.09,1.46,1.79,2.17,2.11,2.14a40.28,40.28,0,0,0-4.84,9.64Q217,169,211.05,175q-.31,1.33-4.31,1.74l-.05.27,1.32-.13-.48.55,0,1.3,2-.19q3.12-.32,8-6.29,8.33-11.94,8.86-14.23Q230.19,147.15,231.27,145.22Z"/></g><g class="cls-4"><path class="cls-2" d="M314.81,168.74a3.3,3.3,0,0,0,.72-.85c.55-2.75-1.28-4.89-5.61-6.54l-1,.11-.13.6.07,1.45-.24,0c-.15,0-.16.07-.16.11-.3,1.42,1.46,3.21,5.24,5.3h.07l.11-.51.18,0a.81.81,0,0,1,.7.18A.54.54,0,0,1,314.81,168.74Z"/><path class="cls-2" d="M322.93,156.17l.15,0,.34-1.62a6.54,6.54,0,0,0-2-1.06l-4.14.42c-2,.21-4.88.67-8.49,1.37l-.47.09.8-1.79.26-1.26a13.59,13.59,0,0,0,.34-3.07v0l1.91-6.06a2.25,2.25,0,0,1,0-1.36l1.27-5.89.52-.65h.13c2.77.2,4.51.27,5.18.23a2.43,2.43,0,0,1,1-.84c.22-1.17.06-1.65-.12-1.85a.72.72,0,0,0-.66-.19l-.36,0a14.58,14.58,0,0,0-4.21.94l-.23.1-.35-.81.57-2.7a3.87,3.87,0,0,0-.79-3,2.37,2.37,0,0,0-1.92-.5l-1.6.16-2.15.47-.12.57c1.69,0,2.11,0,2.2,0l.31,0,0,.31c-.24,2-.46,3.54-.66,4.47l-.36,1.75-3.42.6-1,.1,0-.31c.14-1.11-.47-2.41-1.82-3.86,0,0,0,0-.05.06l0,.18-.18,0a2.48,2.48,0,0,1-.95-.15c-.35.05-.76.15-.82.42a1.23,1.23,0,0,0,.08.84l.08.14-.45.58.29.68-.44,0a6.46,6.46,0,0,1,0,1.38l0,.24c-.26,1.22-2.38,2-6.68,2.43l-1.69.17-.42-.15a.43.43,0,0,1-.12.11l.55.8-1,.1a4,4,0,0,0,1.52.61l1.09-.51-.09.43.9-.1,1.13-.52-.08.38,1.94-.42,1.95-.2-.4,1.92L298.5,142a.21.21,0,0,1,.08.06.43.43,0,0,1,.08.4L297.12,147a.39.39,0,0,1,.1.08.45.45,0,0,1,.09.4c-.11.48-.89,2.74-2.41,6.9l.32.7-.35,0c-.14,0-.15.06-.16.1l-.1.48a1.44,1.44,0,0,1,1.14.35.81.81,0,0,1,.21.53H296c1.83-.18,2.95-1.42,3.45-3.77.11-.52.78-1.22,5-2l.37-.06-.19.87v1.59l-.05.07a2.35,2.35,0,0,0-.44.68l.05,1.5-.23,0a.24.24,0,0,0-.13,0l.27.64-.24.09c-3.76,1.41-11.52,3.41-23.08,5.94l-.38.09.08-.38a1.36,1.36,0,0,0-1-1.62l-.26,0c-.4,0-.77.56-1.08,1.51l-.1.48a1.4,1.4,0,0,0,.25,1.31c.66.73,2.34,1,5,.69a13.82,13.82,0,0,1,2.62-.53l1.57-.16a77.24,77.24,0,0,1,8.72-2.43l.95-.1-.8,1a25.37,25.37,0,0,1-5.95,6.24l.27.63-.34,0c-.14,0-.15.06-.16.1l0,.18,2.25-.23c1.85-.19,4.25-1.78,7.13-4.73.31-1.55.06-2.63-.75-3.21l-.13-.1.12-.58.51-.05a23.21,23.21,0,0,0,2.95-.56c.22,0,.45.06,1.14,1.23l.07-.33,1.18-.12-.28,1.3a3.2,3.2,0,0,0,.9-.32l.11-.06.11,0a2.47,2.47,0,0,0,1.13.12c.51-.06.93-.84,1.24-2.27.25-1.18,2.12-1.93,5.73-2.3l.34,0-.05.26,3.51-.35,2-.53-.06.31C321.29,156.42,322.46,156.22,322.93,156.17Zm-17.29-7.82-.17,0c-3.19.55-3.77.79-3.87.87l-.54.43.13-.61-.4,0,.87-2.26c.07-.37.65-.89,4.28-1.59l.37-.08Zm1.55-5.83-2.48.53-2.33.24.11-.36c.73-2.46,1.17-4.06,1.32-4.76h0c.05-.24.13-.61,4.24-1.39l.37-.07Z"/></g><g class="cls-4"><path class="cls-2" d="M408.15,151.6a1.36,1.36,0,0,0,.33,1.39,2,2,0,0,0,1.6.37,3.72,3.72,0,0,0,1.94-.75,2.59,2.59,0,0,0,1-1.56,1.27,1.27,0,0,0-.35-1.36,1.71,1.71,0,0,0-1.24-.42h-.36a3.57,3.57,0,0,0-1.91.76A2.82,2.82,0,0,0,408.15,151.6Z"/><path class="cls-2" d="M420.54,117.62c-1-1.4-2.94-2-5.69-1.85a144.32,144.32,0,0,1-4.47,23.14c0,1.45,0,2.22,0,2.28,0,1.86.06,3.16.1,3.85a2.78,2.78,0,0,0,.43,1.15c.17.29.34.29.46.27a1.13,1.13,0,0,0,.7-.43,5.94,5.94,0,0,0,.82-1.1A49.19,49.19,0,0,0,416,138.6l.18-.37Z"/></g><g class="cls-4"><path class="cls-2" d="M203.6,160.05a3,3,0,0,1-1.66,2,2.53,2.53,0,0,1-2.46.29,1.62,1.62,0,0,1-.78-1.94,2.89,2.89,0,0,1,1.49-2.12,2.43,2.43,0,0,1,2.44-.09A1.58,1.58,0,0,1,203.6,160.05Z"/></g><g class="cls-4"><path class="cls-2" d="M273.66,153.18a3.25,3.25,0,0,1-2.82-.41,2.76,2.76,0,0,1-1.66-2.14,1.75,1.75,0,0,1,1.37-1.81,3.12,3.12,0,0,1,2.82.2,2.64,2.64,0,0,1,1.45,2.23A1.74,1.74,0,0,1,273.66,153.18Z"/></g><g class="cls-4"><path class="cls-2" d="M330.84,146.18a2.59,2.59,0,0,1-2.19.57,2.17,2.17,0,0,1-1.86-1.05,1.38,1.38,0,0,1,.44-1.74,2.45,2.45,0,0,1,2.11-.72,2.09,2.09,0,0,1,1.75,1.17A1.38,1.38,0,0,1,330.84,146.18Z"/></g><path class="cls-3" d="M401,127.47s-.06-.08-.24-.06l-.36,0,.23-.71.21-.24a3.79,3.79,0,0,0-1.77-.33,68.14,68.14,0,0,0-10.37,2l-1.14.11.62-.52a5.11,5.11,0,0,0,1.79-2.4.59.59,0,0,0-.06-.53c-.18-.23-.67-.52-2.06-.56a.61.61,0,0,1-.5.27l-.22,0,0-.21a15,15,0,0,1-.48-2.51,16.51,16.51,0,0,0-5.33-2.83l-1.42.15a3,3,0,0,0-1.31,1.16l0,1c3.77,1.82,3.75,2.12,3.73,2.36l-.13.49h-.18a54.78,54.78,0,0,0-5.42,1.93,16,16,0,0,0-5.17,1.59,2.82,2.82,0,0,0,.18-.45.59.59,0,0,0-.06-.53c-.17-.24-.67-.52-2-.56a.64.64,0,0,1-.51.27l-.21,0-.05-.2a15,15,0,0,1-.48-2.51,16.51,16.51,0,0,0-5.33-2.83l-1.42.15c-.24.07-.66.33-1.31,1.16l0,1c3.78,1.82,3.75,2.12,3.73,2.36l-.13.49h-.18a54.78,54.78,0,0,0-5.42,1.93c-4,.68-6.17,1.73-6.56,3.12a.3.3,0,0,0,0,.1s0,0,.11,0h.06l.92-.41.06.3c.09.45.22.73.37.7l.28,0a19.16,19.16,0,0,0,3.67-.85l.23-.07.27.76-.15.54-.53,1a.12.12,0,0,1,.05,0,.39.39,0,0,1,.06.39l-.1.36-.14,0c-7,2.14-8.48,2.68-9.17,3l-3.53,1.35a38.23,38.23,0,0,0-4.82,1.72l-.27,1c1.33.81,1.66.84,1.73.84l3.09-.94c14.67-5.06,25.24-8.3,31.58-9.71l0,.06.06.05a.41.41,0,0,1,.06.39l-.1.36-.14,0a124.06,124.06,0,0,0-13,4.53,22.24,22.24,0,0,0-2.79.84c-4.58,1.05-5.62,1.5-5.84,1.67l-.27,1,.12.07-.28,0,.09-.34a.16.16,0,0,0,0-.15c0-.07-.2-.23-.72-.36l-1.14.12c-.36,0-.73.49-1.08,1.32.72,4.52,1.9,6.78,3.56,6.63l2.55-1.31-.59.82c-1.32,1.84-5.87,5.54-13.9,11.31l-.11.38c0,.08.25.3,1,.5l.54-.05a35.24,35.24,0,0,0,11.69-7.95l.07-.06.75-.08-.17.59a29.11,29.11,0,0,1-2.24,4.93,2.62,2.62,0,0,0,.77,2.17c1.17,1.14,3.72,1.52,7.56,1.13l2.79-.64c3.14-.63,7-4.34,2.08-3.26-1.09.23-2.41.56-4,.94a35.15,35.15,0,0,0,10.86-7.58l.07-.06.75-.08-.17.59a30.6,30.6,0,0,1-2.24,4.93,2.64,2.64,0,0,0,.76,2.17c1.18,1.14,3.73,1.52,7.57,1.13,3.51-.81,5.92-1.45,7.13-1.88l.45-.17-.1.34c4.34-.66,5.94-1.53,6.45-2.24l-.22,0,.09-.34a1,1,0,0,1,.74-.68c1.06-8.76.53-11.38-.11-12a.48.48,0,0,0-.44-.17l-.41,0c-.38,1.37-.77,3.09-1.17,5.1q-1.15,3.18-2.7,6.47c-.07.24-.19.68-11.47,3.17h-.08a6.88,6.88,0,0,1-2.29-.52l-.18-.09.07-.2a79.25,79.25,0,0,1,2.69-7.53,21.85,21.85,0,0,1-.25-4.17v0l.25-.88.09-.05c4.08-2.24,6.69-4,7.76-5.15a1.73,1.73,0,0,0-.18-1.51c-.51-.67-1.74-1-3.66-1h-.06c-2.85.29-6.31,1.57-10.28,3.82l-.1,0-.64.07.1-.35a.19.19,0,0,0,0-.15c-.05-.07-.2-.22-.72-.36l-1.15.12c-.35,0-.72.49-1.08,1.32.7,4.4,1.86,6.63,3.44,6.63h.13l2.54-1.31-.59.83c-1.31,1.83-5.86,5.53-13.9,11.3l-.1.38c0,.07.22.26.78.44l-1,.23h-.08a6.81,6.81,0,0,1-2.28-.52l-.18-.09.06-.2a78,78,0,0,1,2.7-7.53,21.68,21.68,0,0,1-.26-4.17v0l.25-.88.1,0c4.08-2.24,6.69-4,7.75-5.15a1.66,1.66,0,0,0-.18-1.51,1.59,1.59,0,0,0-.13-.13c15.49-5.23,25.67-8.12,30.27-8.58a10.11,10.11,0,0,0,2.27,0l.89-.49C401.14,127.67,401.05,127.52,401,127.47Zm-32.71-.39-.08,0a51.35,51.35,0,0,1-7.56,5l-.48.22.14-.51c0-.11.16-.43.86-2,.16-.57,1.06-1.59,6.91-3.43l.43-.14Zm5.63,15.28-.24.07-.63-2.36.13-.48.18,0a.45.45,0,0,1,.39.11,24,24,0,0,1,7.78-2.35l1.17-.12-.7.53A27,27,0,0,1,373.92,142.36Zm-10.37-2.76a26.82,26.82,0,0,1-8.07,4.62l-.24.07-.64-2.36.14-.48.17,0a.46.46,0,0,1,.4.11,23.91,23.91,0,0,1,7.78-2.35l1.16-.12Zm5.56-9.48.63-.52.34-.31h0l.92-.41.06.3a1.53,1.53,0,0,0,.2.58c-.35.09-.68.16-1,.26Zm17.62-4.9-.07,0q-2.46,1.85-4.3,3.08a3.87,3.87,0,0,0-1.74-.32c-.34,0-.72.09-1.08.13l.07-.16c.16-.57,1.06-1.58,6.91-3.43l.43-.14Z"/><path class="cls-3" d="M364.45,159.16h0Z"/></g></g></svg>