<svg width="422" height="185" viewBox="0 0 422 185" fill="none" xmlns="http://www.w3.org/2000/svg">
<g clip-path="url(#clip0_5425_442150)">
<path d="M336.183 42.4533C335.17 41.5838 334.04 40.8619 332.826 40.3088C331.136 39.6005 329.403 38.9996 327.637 38.5099C327.516 38.4724 327.408 38.3997 327.328 38.301C327.248 38.2024 327.199 38.0822 327.187 37.9556C327.179 37.8302 327.206 37.7049 327.265 37.5939C327.324 37.4829 327.413 37.3908 327.522 37.3278C329.301 36.4469 331.011 35.4329 332.637 34.2944C333.677 33.5087 334.634 32.6183 335.493 31.6374C336.39 30.6328 337.156 29.5187 337.773 28.3218C338.399 27.0742 338.853 25.7475 339.122 24.3779C339.423 22.8905 339.574 21.3767 339.572 19.8593C339.646 16.9821 339.081 14.1242 337.919 11.4911C336.705 9.03872 334.919 6.91465 332.711 5.29833C330.141 3.40161 327.217 2.03942 324.112 1.29233C320.672 0.424217 317.137 -0.00974891 313.589 0.000558111C309.919 -0.0140439 306.257 0.338129 302.658 1.05183C299.236 1.74454 295.964 3.03713 292.993 4.86983C290.16 6.54584 287.826 8.94938 286.235 11.8311C284.696 14.7556 283.916 18.0193 283.965 21.3234C283.961 22.6363 284.084 23.9465 284.332 25.2359C284.818 27.8608 285.995 30.3088 287.742 32.3279C288.559 33.2828 289.478 34.1457 290.482 34.9012C291.911 35.8915 293.419 36.7626 294.991 37.5057C295.1 37.5654 295.19 37.6554 295.249 37.7648C295.308 37.8743 295.335 37.9985 295.325 38.1227C295.319 38.2462 295.278 38.3655 295.205 38.4658C295.133 38.5661 295.033 38.6431 294.917 38.6876C293.155 39.2747 291.43 39.9663 289.75 40.7586C288.436 41.4388 287.21 42.2766 286.099 43.2534C284.803 44.38 283.698 45.7081 282.825 47.1865C281.878 48.748 281.16 50.437 280.691 52.2021C280.228 53.9944 279.993 55.8379 279.99 57.6891C279.94 60.6712 280.596 63.6229 281.905 66.3032C283.337 68.9858 285.447 71.2468 288.024 72.8616C290.98 74.7919 294.268 76.1589 297.721 76.8939C301.476 77.7119 305.31 78.1204 309.154 78.1124L309.143 78.1021C313.23 78.1027 317.303 77.6466 321.288 76.7424C324.975 75.9463 328.48 74.4667 331.622 72.3801C334.575 70.3598 336.968 67.6249 338.578 64.4303C340.253 61.2203 341.129 57.6535 341.131 54.0328C341.133 52.5395 340.961 51.0511 340.618 49.5978C339.914 46.8151 338.364 44.3191 336.183 42.4533V42.4533ZM319.572 59.0644C318.652 60.5986 317.308 61.8339 315.702 62.6211C314.041 63.4174 312.219 63.8217 310.377 63.803C308.583 63.8161 306.807 63.445 305.168 62.7148C303.606 62.0259 302.295 60.8715 301.413 59.4092C300.559 57.9879 300.111 56.3602 300.116 54.7022C300.075 53.3868 300.312 52.0775 300.814 50.8605C301.315 49.6436 302.068 48.5466 303.024 47.6418C305.216 45.7386 308.065 44.7665 310.963 44.9324V44.943C313.601 44.7958 316.205 45.6034 318.296 47.2182C319.204 48.0163 319.919 49.0086 320.39 50.1215C320.861 51.2344 321.075 52.4391 321.016 53.646C321.051 55.5516 320.55 57.4288 319.572 59.0644V59.0644ZM318.338 28.897C316.431 30.5968 313.946 31.5024 311.392 31.4281C309.872 31.4412 308.367 31.1291 306.978 30.5129C305.606 29.9081 304.458 28.8896 303.693 27.5999C302.917 26.3168 302.515 24.8423 302.532 23.3427C302.509 22.1346 302.732 20.9344 303.187 19.8149C303.642 18.6955 304.319 17.6802 305.179 16.8307C306.127 15.9329 307.246 15.2362 308.47 14.7823C309.695 14.3285 310.998 14.127 312.302 14.1898H312.292C314.634 14.0728 316.933 14.8486 318.725 16.3604C319.532 17.1025 320.169 18.011 320.592 19.0232C321.015 20.0354 321.213 21.1272 321.173 22.2233C321.209 23.4743 320.975 24.7184 320.485 25.8703C319.996 27.0222 319.264 28.0547 318.338 28.897V28.897Z" fill="white"/>
<path d="M409.384 49.5978C409.043 48.2099 408.481 46.8856 407.721 45.6752C406.971 44.4644 406.036 43.379 404.949 42.4586C403.937 41.5875 402.806 40.8637 401.591 40.3088C399.902 39.6109 398.173 39.012 396.413 38.5152C396.292 38.4775 396.185 38.4049 396.105 38.3066C396.025 38.2083 395.976 38.0885 395.964 37.9624C395.952 37.8363 395.977 37.7093 396.036 37.5974C396.096 37.4855 396.187 37.3936 396.298 37.3333C398.076 36.4524 399.786 35.4401 401.413 34.3046C402.45 33.5106 403.409 32.6213 404.28 31.6482C405.17 30.6404 405.932 29.5266 406.549 28.3319C407.177 27.0806 407.635 25.7508 407.909 24.3779C408.208 22.8904 408.355 21.3765 408.349 19.8593C408.43 16.9825 407.869 14.1238 406.706 11.4911C405.491 9.04118 403.704 6.91918 401.497 5.30374C398.931 3.40244 396.006 2.04125 392.899 1.30246C389.456 0.432201 385.917 -0.00357372 382.365 0.00530238C378.699 -0.0100089 375.041 0.340565 371.445 1.05181C368.022 1.75087 364.747 3.04299 361.769 4.86981C358.943 6.55389 356.615 8.95774 355.022 11.8359C353.485 14.7596 352.701 18.0205 352.742 21.3234C352.748 22.6376 352.871 23.9486 353.108 25.2412C353.599 27.862 354.78 30.3045 356.529 32.3176C357.343 33.275 358.262 34.138 359.269 34.8905C360.695 35.8808 362.199 36.7536 363.767 37.5003C363.878 37.56 363.97 37.6505 364.031 37.7608C364.092 37.8711 364.12 37.9967 364.112 38.1226C364.103 38.2462 364.059 38.3646 363.985 38.4638C363.911 38.563 363.81 38.6388 363.694 38.6823C361.934 39.2634 360.211 39.9535 358.537 40.7485C357.223 41.4301 355.997 42.2696 354.886 43.2485C353.59 44.3773 352.482 45.7047 351.602 47.1812C350.662 48.7453 349.947 50.4339 349.478 52.1973C349.01 53.9885 348.775 55.8324 348.777 57.6837C348.726 60.6641 349.382 63.6143 350.692 66.2923C352.123 68.9737 354.229 71.2359 356.8 72.8563C359.76 74.7878 363.051 76.1566 366.508 76.8939C370.26 77.7129 374.09 78.1215 377.93 78.1123L377.92 78.1021C382.002 78.1046 386.072 77.6502 390.054 76.7472C393.742 75.9518 397.247 74.4704 400.388 72.3801C403.343 70.3646 405.737 67.6308 407.344 64.4356C409.017 61.2224 409.896 57.6553 409.907 54.0328C409.911 52.5388 409.735 51.0498 409.384 49.5978V49.5978ZM388.349 59.0644C387.428 60.6014 386.079 61.8372 384.468 62.6211C382.812 63.4209 380.993 63.8255 379.154 63.803C377.36 63.8171 375.583 63.446 373.945 62.7148C372.381 62.0267 371.066 60.8746 370.179 59.4146C369.329 57.9897 368.881 56.3613 368.882 54.7022C368.841 53.3866 369.079 52.0772 369.583 50.8609C370.086 49.6445 370.842 48.5491 371.8 47.6471C373.995 45.7474 376.842 44.7741 379.74 44.9324L379.729 44.943C382.371 44.7972 384.976 45.6046 387.072 47.2182C387.98 48.0169 388.694 49.0104 389.164 50.1243C389.633 51.2382 389.844 52.4437 389.782 53.6508C389.815 55.5533 389.319 57.4278 388.349 59.0644ZM387.093 28.897C385.192 30.6 382.71 31.508 380.158 31.4335C378.635 31.4447 377.126 31.1309 375.734 30.5129C374.367 29.9099 373.222 28.895 372.459 27.61C371.685 26.3219 371.28 24.8456 371.288 23.3426C371.266 22.1337 371.49 20.9329 371.947 19.8134C372.403 18.6939 373.083 17.679 373.945 16.8306C374.891 15.9338 376.009 15.2375 377.232 14.7837C378.454 14.3298 379.755 14.1278 381.058 14.1898H381.068C383.411 14.0723 385.711 14.85 387.501 16.3652C388.308 17.1064 388.942 18.0145 389.361 19.0263C389.781 20.038 389.974 21.1291 389.928 22.2232C389.971 23.475 389.739 24.7209 389.249 25.8737C388.76 27.0266 388.024 28.0584 387.093 28.897V28.897Z" fill="white"/>
<path d="M126.611 72.6104C130.685 71.2303 134.349 68.8535 137.27 65.6963C139.928 62.8471 141.956 59.4701 143.222 55.7851C144.404 52.1705 145.001 48.3903 144.99 44.5875C145.009 40.7417 144.344 36.9233 143.024 33.3111C141.717 29.8458 139.635 26.7256 136.936 24.1898C134.014 21.4891 130.552 19.4405 126.779 18.1802C122.724 16.7829 118.463 16.0741 114.174 16.083C109.564 16.0735 104.987 16.8664 100.649 18.426C96.5901 19.8361 92.888 22.1155 89.8016 25.105C86.9849 27.8431 84.8032 31.1656 83.4102 34.8385C82.0587 38.4944 81.375 42.3634 81.3917 46.261C81.3756 50.1634 82.0776 54.0353 83.4627 57.6836C84.7917 61.2032 86.9017 64.3755 89.6339 66.9618C92.5722 69.6677 96.073 71.6897 99.8851 72.8824C104.052 74.2435 108.41 74.9319 112.794 74.922L112.783 74.9327C117.491 74.9536 122.168 74.1682 126.611 72.6104V72.6104ZM112.616 60.309C111.134 60.3366 109.665 60.039 108.311 59.4371C106.958 58.8353 105.753 57.9438 104.781 56.8256C102.545 54.0392 101.433 50.5168 101.663 46.9515C101.639 44.2166 102.118 41.5006 103.076 38.9388C103.887 36.6479 105.38 34.6602 107.354 33.2431C109.252 31.941 111.507 31.2594 113.808 31.2921V31.3081C115.959 31.2591 118.072 31.8805 119.854 33.0861C121.562 34.2543 122.866 35.9223 123.588 37.8612C124.356 39.9471 124.735 42.1557 124.708 44.3781C124.721 47.1392 124.243 49.8807 123.295 52.4742C122.501 54.8148 121.008 56.8556 119.017 58.3215C117.144 59.6376 114.905 60.3327 112.616 60.309V60.309Z" fill="white"/>
<path d="M165.995 73.4577C170.178 73.3898 173.965 73.355 177.354 73.3533C180.461 73.3533 184.049 73.3898 188.097 73.4577L190.89 66.3341L204.666 33.2694L211.654 17.5472C208.181 17.6105 204.812 17.6207 201.58 17.6207C198.275 17.6207 194.774 17.5789 191.078 17.4954L182.71 41.742C181.235 45.9784 180.398 48.2904 180.199 48.8029L178.808 53.2905C178.724 53.5518 178.484 53.3948 178.223 53.3948H178.202C177.93 53.3948 177.699 53.5255 177.626 53.2535C175.503 44.4407 173.515 37.0457 171.737 30.6124C170.063 24.6028 168.902 20.2148 168.254 17.5526C165.168 17.6207 161.891 17.6539 158.421 17.6523C155.157 17.6523 151.653 17.6208 147.908 17.5579L160.45 55.5286L165.995 73.4577Z" fill="white"/>
<path d="M268.62 31.1875C268.838 27.9382 267.847 24.7231 265.838 22.1605C263.694 19.8971 260.946 18.296 257.919 17.5472C254.196 16.5409 250.353 16.0483 246.497 16.083C237.734 16.2781 229.018 17.425 220.503 19.5036L219.697 25.6439C219.541 26.8987 219.174 29.1058 218.62 32.2025C225.578 29.2061 233.019 27.4875 240.587 27.129C242.46 27.0107 244.326 27.4474 245.953 28.3845C246.588 28.7932 247.106 29.3601 247.456 30.0294C247.807 30.6987 247.977 31.4475 247.951 32.2025C247.959 33.4267 247.481 34.6042 246.622 35.4764C246.109 35.9961 245.507 36.4194 244.844 36.7264C243.732 37.2011 242.585 37.5876 241.413 37.8822C239.855 38.3165 238.128 38.7193 236.256 39.1011C232.534 39.8048 228.862 40.7499 225.263 41.9304C222.89 42.6936 220.623 43.7531 218.516 45.0839C216.897 46.1815 215.46 47.5264 214.258 49.0696C213.119 50.4982 212.218 52.1019 211.591 53.8184C211.038 55.4064 210.752 57.0747 210.743 58.7559C210.796 61.6744 211.588 64.5319 213.045 67.0614C214.483 69.7299 216.779 71.8359 219.561 73.0394C223.008 74.3974 226.696 75.038 230.399 74.922L230.409 74.9273C233.174 74.9102 235.934 74.6724 238.662 74.2161C239.855 69.6241 240.932 65.9105 241.852 63.1753C240.255 63.7168 238.58 63.9923 236.894 63.9911C235.094 64.1343 233.306 63.5968 231.884 62.485C231.356 62.0192 230.935 61.4459 230.648 60.8035C230.361 60.1612 230.215 59.4648 230.22 58.7613C230.22 57.8803 230.421 57.0109 230.806 56.2188C231.271 55.369 231.913 54.629 232.689 54.0489C233.594 53.3437 234.603 52.7842 235.681 52.3907C236.779 51.9724 238.296 51.4701 240.241 50.8632C242.145 50.2725 243.484 49.828 244.237 49.5297C245.001 49.2421 246.036 48.7611 247.375 48.1018C247.455 48.057 247.545 48.0319 247.637 48.0285C247.758 48.0285 247.876 48.069 247.972 48.1437C248.061 48.2051 248.132 48.2883 248.18 48.3853C248.228 48.4824 248.249 48.59 248.244 48.698C247.689 60.7744 247.166 69.1009 246.706 73.4524C250.231 73.3898 253.575 73.3568 256.737 73.3534C260.011 73.3534 263.296 73.3951 266.612 73.4524C266.884 61.9302 267.302 52.448 267.825 45.2618C268.359 37.9764 268.62 33.2484 268.62 31.1875Z" fill="white"/>
<path d="M71.308 61.167L73.6404 16.6742L74.7704 2.00348C69.9584 2.07148 67.0192 2.09772 65.9415 2.09772C63.6403 2.10791 60.6384 2.07684 56.9564 2.01361C56.9249 6.28155 56.7262 13.4469 56.3497 23.3216C55.9523 34.0694 55.5441 42.5891 55.1569 48.6513C55.1311 48.9521 54.9971 49.2334 54.7798 49.4429C54.5625 49.6525 54.2765 49.7761 53.975 49.791C53.7548 49.7888 53.5395 49.7255 53.353 49.6083C53.1666 49.491 53.0163 49.3244 52.9188 49.1269L49.9062 43.0337L28.2115 2.01364C23.2323 2.07156 19.3832 2.10794 16.5902 2.10794C12.7615 2.10794 10.0629 2.07156 3.69275 2.01364V9.1951L3.02332 24.6237L0.90991 62.898L0 72.8145C4.48743 72.7566 7.60461 72.7256 9.33069 72.7256C11.3599 72.7304 14.226 72.7601 17.9292 72.8145L18.4208 52.5684L19.5294 27.1183C19.5531 26.8119 19.687 26.5245 19.9063 26.3091C20.1255 26.0938 20.4154 25.9652 20.7222 25.947C20.9453 25.9454 21.1643 26.0075 21.3533 26.1261C21.5423 26.2447 21.6934 26.4149 21.7889 26.6165C23.4627 30.0474 25.0945 33.2484 26.6841 36.1458C29.1322 40.8057 31.7891 45.6388 34.5607 50.5028L43.2428 65.8323C44.0482 67.3073 45.2718 69.6396 46.8937 72.8199V72.83C52.2701 72.7621 56.5135 72.7289 59.6237 72.7304C63.1803 72.7304 66.9809 72.7602 71.0253 72.8199L71.308 61.167Z" fill="white"/>
<path d="M9.60119 128.922C12.0182 127.421 14.2529 125.644 16.2602 123.627C18.2076 125.647 20.3894 127.427 22.7592 128.929V123.969C21.4039 122.748 20.1984 121.37 19.1679 119.864C21.2201 116.332 22.4172 111.43 22.7592 105.156H17.6284C17.5066 108.051 17.0474 110.921 16.2602 113.708C15.4839 110.923 15.0815 108.047 15.0635 105.156H9.59081C9.93261 111.429 11.1867 116.389 13.353 120.035C12.1914 121.432 10.9343 122.746 9.59081 123.969V128.912C9.34073 128.675 9.14886 128.384 9.03019 128.06C8.91153 127.736 8.86927 127.39 8.90673 127.047V103.617H22.7593V98.8293H3.09179V128.929C2.97704 132.234 4.51626 133.83 7.70946 133.717H21.2202V129.271H10.7881C10.3646 129.291 9.94666 129.168 9.60119 128.922V128.922Z" fill="white"/>
<path d="M32.3364 97.9739C32.4212 97.7539 32.4786 97.5243 32.5073 97.2903H26.0088C25.5518 102.651 24.4116 106.641 22.5884 109.261V114.221C24.7034 112.919 26.6554 111.369 28.4028 109.604V110.972C28.4028 116.217 27.9468 120.207 27.0347 122.943C25.9988 126.186 24.1776 129.124 21.7329 131.494V136.624C26.6338 134.116 29.9972 130.809 31.8232 126.705C34.1437 130.842 37.6611 134.181 41.9136 136.283V131.152C37.0098 126.593 34.7295 119.923 35.0728 111.143V108.748H28.916C29.7421 107.666 30.3782 106.452 30.7969 105.157H36.0986V111.485H41.9136V100.368H32.165C32.1802 99.5678 32.2374 98.7685 32.3364 97.9739V97.9739Z" fill="white"/>
<path d="M92.2617 103.617H102.181V98.6584H64.3852V103.617H74.3047V130.126H63.8726V134.914H102.694V130.126H92.2617V103.617ZM85.0786 130.126H81.4873V103.617H85.0786V130.126Z" fill="white"/>
<path d="M98.4184 123.969C99.8984 120.094 101.096 114.621 102.01 107.551H95.5107C95.1738 113.104 94.2567 118.607 92.7744 123.969H98.4184Z" fill="white"/>
<path d="M70.8843 107.551H64.3853C65.2969 114.621 66.4942 120.094 67.9771 123.969H73.6206C72.1369 118.607 71.2198 113.104 70.8843 107.551V107.551Z" fill="white"/>
<path d="M153.212 136.282V128.929H157.83V125.85C159.462 128.323 161.417 130.566 163.645 132.52V127.047C161.021 122.031 159.823 115.419 160.053 107.209H162.79V102.42H153.212V97.1194H146.201V102.42H136.966V107.209H139.36C139.587 115.418 138.447 122.031 135.939 127.047V132.52C138.129 130.69 139.981 128.49 141.412 126.022V128.929H146.201V136.283L153.212 136.282ZM153.212 107.209H154.239C154.124 115.191 155.093 120.948 157.146 124.482H153.212V107.209ZM142.267 124.482C144.205 120.608 145.231 114.85 145.346 107.209H146.201V124.482H142.267Z" fill="white"/>
<path d="M131.151 97.1194C129.895 103.617 127.672 107.893 124.481 109.946V114.221C124.866 114.061 125.267 113.946 125.678 113.879C126.817 113.537 127.615 113.309 128.073 113.195V136.282H134.914V107.038C136.474 103.892 137.624 100.559 138.334 97.1194H131.151Z" fill="white"/>
<path d="M214.506 130.297C214.618 131.553 214.105 132.123 212.967 132.007H211.599V136.112H216.729C220.377 136.224 222.144 134.4 222.031 130.639V113.365H189.879V136.112H197.233V129.954H214.506L214.506 130.297ZM197.233 117.813H214.506V119.864H197.233V117.813ZM197.233 125.85V123.969H214.506V125.85L197.233 125.85Z" fill="white"/>
<path d="M201.338 97.1194V99.342H186.117V104.131H195.865C194.392 105.152 192.85 106.066 191.248 106.867C190.973 107.056 190.688 107.227 190.392 107.38V111.997H199.285C206.58 111.771 212.053 111.486 215.703 111.143C215.785 111.308 215.837 111.413 215.875 111.488C215.968 111.822 216.025 112.165 216.045 112.511H223.228C221.938 109.781 220.268 107.247 218.269 104.986H211.77C212.339 105.67 212.852 106.297 213.309 106.867C211.483 107.097 209.659 107.268 207.836 107.38H199.798C200.025 107.268 200.367 107.097 200.824 106.867C202.313 106.058 203.741 105.144 205.1 104.131H225.28V99.342H210.23V97.1194H201.338Z" fill="white"/>
<path d="M185.678 155.54C184.412 156.291 182.655 157.412 180.405 158.902L179.895 158.953C181.499 153.785 182.562 150.459 183.085 148.976C183.362 147.437 183.239 145.853 182.727 144.375C181.106 144.63 179.518 145.062 177.992 145.663C177.577 144.23 176.103 143.174 173.568 142.495C173.511 143.168 173.51 143.844 173.567 144.516C167.037 149.514 162.62 153.044 160.316 155.107L160.166 155.717C161.327 155.6 163.898 154.539 167.879 152.534L168.121 152.51C167.909 153.367 166.79 156.564 164.764 162.1L166.512 164.135L166.308 164.963C165.414 165.053 160.452 166.76 151.423 170.084C151.079 171.48 151.415 172.452 152.431 173.002L153.45 172.899C155.241 171.427 160.368 169.363 168.833 166.707L169.102 166.68L168.951 167.29C157.679 174.839 151.885 179.253 151.569 180.531L151.414 181.164C154.381 180.863 160.031 177.669 168.364 171.581C170.7 169.742 172.261 168.783 173.048 168.704L173.53 168.655C172.571 171.914 171.898 174.329 171.511 175.899L170.237 181.067L165.679 181.528C165.389 182.706 167.299 183.654 171.411 184.373C172.236 184.274 173.04 184.049 173.797 183.706C175.974 175.574 177.299 170.549 177.773 168.631C178.034 167.3 178.114 165.94 178.01 164.588C178.457 164.542 179.646 163.748 181.578 162.206C185.397 160.714 187.539 159.023 188.004 157.133C188.23 156.217 187.454 155.686 185.678 155.54ZM176.199 159.943C175.805 161.543 173.416 162.856 169.032 163.88L168.791 163.905L169.049 162.858C169.547 160.837 172.032 159.451 176.505 158.7L176.199 159.943ZM178.386 151.067L177.367 151.17C174.628 151.532 173.185 152.012 173.039 152.608L172.937 153.022L173.688 152.946L174.921 153.033L174.873 153.23L174.379 154.279L177.881 153.116L177.118 156.214L171.82 157.558L171.578 157.582C171.816 156.565 171.771 155.502 171.449 154.507C171.127 153.513 170.54 152.626 169.751 151.941L169.859 151.505L177.15 146.96C177.348 147.305 177.643 147.584 177.998 147.763C178.354 147.943 178.753 148.014 179.149 147.97L178.386 151.067Z" fill="white"/>
<path d="M231.376 145.177L231.157 144.689C234.895 144.192 238.588 143.399 242.2 142.317C249.827 140.44 253.694 139.212 253.802 138.634C253.956 137.938 253.613 137.632 252.773 137.717L252.806 137.48L253.744 137.385L253.846 136.865L251.003 137.152L250.295 137.479L250.332 137.219C239.67 139.816 233.668 141.429 232.327 142.06C232.38 141.771 232.191 141.62 231.759 141.608L230.203 141.765C230.031 141.775 229.865 141.837 229.728 141.941C229.59 142.046 229.487 142.189 229.432 142.353C228.299 142.517 227.15 142.547 226.01 142.444C227.095 143.837 227.79 144.519 228.095 144.489C226.242 147.357 224.789 150.466 223.778 153.728C220.242 163.201 216.65 169.859 213.001 173.701C212.825 174.557 211.468 175.113 208.93 175.368L208.893 175.627L210.152 175.5L209.708 176.034L209.793 177.279L211.67 177.09C213.653 176.89 216.126 174.882 219.089 171.067C224.141 163.439 226.812 158.894 227.103 157.432C229.3 150.489 230.724 146.405 231.376 145.177Z" fill="white"/>
<path d="M251.079 151.418C249.255 151.677 247.446 152.041 245.663 152.508L245.326 152.543C245.93 150.754 246.422 148.93 246.798 147.08L246.903 146.259L246.514 144.429L245.869 144.495L243.9 144.425C243.361 144.781 242.761 145.033 242.13 145.169C242.02 146.02 242.056 146.542 242.24 146.733C241.534 149.604 240.361 152.339 238.769 154.83C232.788 157.556 229.32 158.967 228.364 159.063C228.329 159.247 228.786 159.824 229.737 160.793C231.937 160.573 234.102 160.088 236.185 159.349L236.522 159.314C231.209 168.726 226.886 173.601 223.552 173.939L223.527 174.213C223.958 174.168 224.339 174.573 224.669 175.425C226.288 175.184 227.829 174.573 229.173 173.639C236.458 167.509 240.78 162.544 242.14 158.743C242.368 157.099 245.303 155.645 250.945 154.381C250.931 154.547 251.036 154.618 251.262 154.596L250.846 155.179L250.693 156.252L250.793 157.863C248.605 162.334 246.217 166.742 243.63 171.087C243.406 171.11 243.301 171.031 243.319 170.848L242.619 171.19L242.281 171.224L242.381 170.427L242.072 170.459L241.376 170.778C241.445 170.427 241.378 170.063 241.188 169.759C241.28 169.763 241.37 169.73 241.439 169.669C241.507 169.608 241.549 169.522 241.556 169.43C240.227 169.565 239.346 168.146 238.912 165.173L238.212 165.515C238.176 165.699 238.27 165.779 238.495 165.755L237.334 167.202C237.399 168.096 237.544 168.532 237.769 168.51C238.077 173.071 239.954 175.176 243.4 174.826C245.666 174.595 247.823 172.515 249.871 168.585C253.879 162.022 256.069 157.454 256.439 154.879C256.144 152.239 254.357 151.085 251.079 151.418Z" fill="white"/>
<path d="M307.288 162.166L306.027 162.293L305.839 163.057L305.845 164.311C305.757 164.309 305.67 164.337 305.6 164.39C305.53 164.444 305.48 164.519 305.458 164.605C305.082 166.132 306.792 167.965 310.588 170.104L310.909 170.072L311.032 169.571C311.462 169.528 311.636 169.673 311.554 170.006C311.875 169.974 312.27 169.608 312.739 168.908C313.438 166.073 311.62 163.826 307.288 162.166Z" fill="white"/>
<path d="M318.784 154.453L314.653 154.871C312.653 155.073 309.859 155.519 306.271 156.207L306.911 154.889L307.228 153.602C307.493 152.601 307.641 151.572 307.669 150.537L309.773 144.541C309.621 144.137 309.619 143.692 309.769 143.286L311.166 137.616L311.61 137.082C313.339 137.25 315.076 137.323 316.813 137.301C317.26 136.758 317.636 136.473 317.939 136.442C318.366 134.711 318.061 133.898 317.023 134.003L316.675 134.039C315.226 134.142 313.799 134.458 312.442 134.977L312.25 134.487L312.884 131.913C313.096 129.212 312.165 127.966 310.092 128.176L308.509 128.336L306.22 128.823L305.973 129.827C307.444 129.862 308.27 129.87 308.45 129.853C308.149 131.853 307.888 133.304 307.665 134.206L307.283 135.754L304.086 136.312L303.443 136.377C303.633 135.181 303.034 133.824 301.648 132.306C301.435 132.327 301.306 132.417 301.267 132.577C300.967 132.587 300.669 132.538 300.388 132.434C299.745 132.498 299.382 132.698 299.299 133.031C299.202 133.36 299.227 133.713 299.368 134.025L298.917 134.58L299.11 135.072L298.788 135.104C298.799 135.61 298.78 136.116 298.729 136.619L298.67 136.86C298.412 137.907 296.281 138.632 292.275 139.037L290.667 139.2L290.115 139.001C290.093 139.087 290.043 139.163 289.973 139.216C289.902 139.269 289.816 139.297 289.728 139.295L290.185 139.994L289.246 140.089C289.252 140.485 289.879 140.839 291.128 141.153L291.835 140.826C291.792 141 291.879 141.076 292.093 141.055L293.032 140.96L293.739 140.633L293.675 140.895L295.966 140.408L297.52 140.25L297.14 141.799L296.398 143.639C296.595 143.619 296.672 143.698 296.629 143.871L294.874 148.557C295.089 148.535 295.173 148.612 295.13 148.786C295.019 149.237 294.146 151.508 292.51 155.601L292.708 156.071C292.62 156.068 292.533 156.096 292.463 156.15C292.393 156.203 292.343 156.279 292.321 156.365L292.128 157.15C293.184 157.043 293.628 157.331 293.459 158.014L293.808 157.979C295.702 157.787 296.945 156.492 297.536 154.094C297.689 153.469 299.27 152.891 302.277 152.359L302.154 152.861L302.094 154.376C301.874 154.606 301.702 154.877 301.585 155.172L301.583 156.448C301.37 156.47 301.243 156.56 301.203 156.72L301.395 157.211C297.673 158.595 290.084 160.532 278.628 163.024C278.735 162.63 278.682 162.21 278.48 161.855C278.278 161.501 277.943 161.241 277.55 161.133L277.228 161.166C276.727 161.217 276.287 161.765 275.908 162.81L275.784 163.311C275.315 165.216 277.092 165.965 281.114 165.558C281.958 165.303 282.824 165.13 283.7 165.041L285.282 164.881C288.103 163.916 290.979 163.12 293.895 162.499L294.218 162.467L293.772 163.001C292.092 165.396 290.012 167.484 287.624 169.174L287.817 169.665C287.729 169.663 287.643 169.691 287.572 169.745C287.502 169.798 287.452 169.874 287.431 169.959L287.307 170.46L289.854 170.202C291.749 170.011 294.197 168.424 297.199 165.441C297.607 163.784 297.377 162.63 296.508 161.981L296.567 161.741L296.89 161.708C297.879 161.59 298.859 161.405 299.824 161.157C299.984 161.14 300.353 161.691 300.932 162.809L301.125 162.024L301.769 161.958L301.452 163.245C301.914 163.203 302.364 163.071 302.776 162.857C303.168 163 303.588 163.045 304.001 162.988C304.626 162.924 305.128 162.122 305.509 160.581C305.763 159.548 307.588 158.86 310.984 158.517C310.941 158.692 311.027 158.768 311.241 158.746L314.7 158.397L316.374 157.972C316.331 158.147 316.408 158.224 316.604 158.203C318.525 157.839 319.718 157.634 320.183 157.587L320.504 157.554L320.95 155.743C321.007 155.512 320.285 155.082 318.784 154.453ZM303.303 149.469C301.96 149.619 300.639 149.923 299.366 150.377C299.409 150.203 299.324 150.127 299.109 150.149L299.876 148.307C299.983 147.869 301.337 147.399 303.936 146.896L303.303 149.469ZM305.022 143.767L302.731 144.253L300.827 144.446C301.634 142.025 302.123 140.465 302.294 139.768C302.366 139.477 303.7 139.087 306.296 138.598L305.022 143.767Z" fill="white"/>
<path d="M393.753 130.794L393.822 130.51L394.27 129.976C393.537 129.613 392.726 129.44 391.909 129.47C388.191 129.889 384.512 130.595 380.903 131.583L380.582 131.615C381.48 130.935 382.142 129.99 382.476 128.914C382.712 127.955 381.806 127.459 379.757 127.425C379.735 127.511 379.685 127.586 379.615 127.64C379.545 127.693 379.458 127.721 379.37 127.719C379.082 126.84 378.885 125.933 378.782 125.014C377.807 124.021 375.801 122.962 372.767 121.836L371.185 121.996C370.524 122.292 369.972 122.787 369.606 123.411V124.688C372.322 125.972 373.673 126.75 373.659 127.021L373.59 127.304C371.634 127.896 369.709 128.587 367.823 129.375C363.529 130.108 361.185 131.274 360.791 132.873C360.709 133.208 360.873 133.354 361.285 133.313L361.993 132.985C362.143 133.651 362.378 133.967 362.7 133.935L362.995 133.905C364.335 133.736 365.654 133.432 366.932 132.996L367.124 133.487L367.001 133.988L366.356 135.329C366.571 135.308 366.657 135.384 366.614 135.559L366.556 135.799C359.175 138.09 354.315 139.843 351.977 141.059C346.777 142.208 344.004 142.992 343.657 143.41L343.34 144.696C343.995 145.189 344.746 145.541 345.544 145.729L353.155 143.703C372.837 136.836 385.395 133.128 390.829 132.578C391.651 132.684 392.483 132.692 393.307 132.604L394.401 131.983C394.507 131.135 394.288 130.74 393.753 130.794ZM378.534 128.57C376.096 130.571 373.48 132.344 370.718 133.867C370.754 133.723 371.029 133.029 371.544 131.785C371.767 130.884 374.12 129.717 378.604 128.285L378.534 128.57Z" fill="white"/>
<path d="M387.162 145.028L386.545 145.09C386.172 146.602 385.804 148.482 385.441 150.731C384.704 152.946 383.831 155.217 382.823 157.545C382.723 157.952 378.753 159.027 370.915 160.77C370.107 160.723 369.312 160.545 368.561 160.242C369.284 157.507 370.157 154.814 371.176 152.174C370.876 150.705 370.727 149.209 370.733 147.71L370.927 146.925C375.293 144.484 378.018 142.62 379.103 141.334C379.611 139.27 378.112 138.245 374.604 138.26C371.528 138.571 367.888 139.938 363.683 142.363L363.388 142.393C363.485 142 363.138 141.709 362.347 141.52L361.087 141.648C360.587 141.697 360.138 142.246 359.741 143.293C360.719 148.383 362.182 150.829 364.13 150.632L365.9 149.709C364.591 151.627 359.795 155.635 351.512 161.733L351.388 162.235C351.372 162.576 351.807 162.866 352.691 163.103L353.361 163.035C358.006 161.082 362.188 158.174 365.636 154.499L365.957 154.467L365.893 154.729C365.32 156.54 364.581 158.294 363.686 159.97C363.577 163.171 366.669 164.453 372.962 163.817C375.522 163.269 378.054 162.594 380.547 161.794L380.483 162.056C385.202 161.366 387.725 160.36 388.051 159.036L387.729 159.07C387.801 158.779 388.049 158.582 388.475 158.484C389.279 149.343 388.842 144.858 387.162 145.028ZM365.698 146.709L365.034 144.523L365.099 144.261C365.294 144.241 365.372 144.319 365.329 144.493C367.945 143.129 370.784 142.244 373.712 141.879L374.033 141.847C371.57 143.955 368.746 145.603 365.698 146.709V146.709Z" fill="white"/>
<path d="M416.116 122.279C415.067 129.554 413.43 136.732 411.222 143.742C411.163 145.11 411.136 145.821 411.14 145.877C411.1 147.596 411.087 148.781 411.101 149.432C411.14 149.826 411.27 150.206 411.481 150.542C411.52 150.645 411.594 150.732 411.689 150.788C411.785 150.844 411.896 150.866 412.006 150.851C412.295 150.796 412.555 150.642 412.741 150.414C413.046 150.098 413.316 149.75 413.546 149.376C414.713 147.497 415.746 145.538 416.638 143.514L416.825 143.176L421.531 124.071C420.599 122.691 418.794 122.094 416.116 122.279Z" fill="white"/>
<path d="M411.63 153.228C410.956 153.284 410.313 153.534 409.778 153.947C409.281 154.324 408.921 154.853 408.753 155.454C408.665 155.69 408.645 155.946 408.695 156.193C408.746 156.44 408.865 156.667 409.038 156.85C409.254 157.022 409.506 157.144 409.774 157.209C410.043 157.273 410.322 157.278 410.593 157.224C411.274 157.164 411.925 156.914 412.471 156.503C412.978 156.136 413.341 155.602 413.496 154.995C413.582 154.761 413.597 154.506 413.541 154.263C413.485 154.019 413.359 153.798 413.18 153.624C412.968 153.446 412.718 153.317 412.45 153.249C412.182 153.18 411.901 153.173 411.63 153.228V153.228Z" fill="white"/>
<path d="M201.634 158.219C201.255 158.018 200.829 157.92 200.401 157.935C199.972 157.951 199.555 158.08 199.192 158.309C198.794 158.522 198.452 158.825 198.193 159.193C197.934 159.562 197.764 159.986 197.698 160.432C197.578 160.795 197.59 161.189 197.733 161.543C197.876 161.897 198.14 162.189 198.478 162.367C198.879 162.535 199.317 162.596 199.749 162.545C200.181 162.494 200.592 162.333 200.943 162.076C201.356 161.887 201.72 161.607 202.008 161.256C202.296 160.905 202.5 160.493 202.605 160.052C202.688 159.681 202.636 159.292 202.457 158.956C202.279 158.62 201.987 158.359 201.634 158.219V158.219Z" fill="white"/>
<path d="M271.368 150.017C270.946 149.765 270.472 149.616 269.982 149.581C269.492 149.546 269.001 149.627 268.548 149.815C268.142 149.906 267.781 150.139 267.531 150.471C267.28 150.804 267.156 151.214 267.18 151.63C267.249 152.098 267.437 152.541 267.727 152.915C268.017 153.29 268.399 153.583 268.836 153.766C269.244 154.046 269.71 154.228 270.199 154.3C270.688 154.372 271.187 154.331 271.658 154.181C272.051 154.05 272.384 153.783 272.597 153.428C272.811 153.073 272.891 152.654 272.823 152.245C272.798 151.779 272.651 151.327 272.395 150.935C272.14 150.544 271.785 150.227 271.368 150.017V150.017Z" fill="white"/>
<path d="M332.344 146.236C331.959 146.183 331.567 146.221 331.2 146.346C330.832 146.472 330.499 146.681 330.227 146.959C329.96 147.15 329.769 147.431 329.689 147.75C329.609 148.069 329.645 148.407 329.791 148.702C329.985 149.022 330.259 149.286 330.585 149.47C330.912 149.653 331.28 149.749 331.655 149.748C332.038 149.825 332.434 149.815 332.812 149.716C333.191 149.618 333.542 149.434 333.839 149.18C334.084 148.963 334.245 148.666 334.291 148.342C334.337 148.017 334.266 147.687 334.09 147.411C333.929 147.078 333.682 146.795 333.375 146.588C333.068 146.382 332.712 146.26 332.344 146.236V146.236Z" fill="white"/>
</g>
<defs>
<clipPath id="clip0_5425_442150">
<rect width="421.531" height="184.373" fill="white"/>
</clipPath>
</defs>
</svg>
