<svg width="426" height="184" viewBox="0 0 426 184" fill="none" xmlns="http://www.w3.org/2000/svg">
<g clip-path="url(#clip0_5425_442181)">
<path d="M321.288 76.7424C324.975 75.9463 328.48 74.4667 331.622 72.3801C334.575 70.3598 336.968 67.6249 338.578 64.4303C340.253 61.2202 341.129 57.6535 341.131 54.0328C341.133 52.5395 340.961 51.0511 340.618 49.5978C339.914 46.8151 338.364 44.319 336.183 42.4532C335.17 41.5838 334.04 40.8619 332.826 40.3088C331.136 39.6004 329.403 38.9996 327.637 38.5099C327.516 38.4724 327.408 38.3997 327.328 38.301C327.248 38.2024 327.199 38.0822 327.187 37.9556C327.179 37.8302 327.206 37.7048 327.265 37.5939C327.324 37.4829 327.413 37.3907 327.522 37.3278C329.301 36.4469 331.011 35.4329 332.637 34.2944C333.677 33.5086 334.634 32.6183 335.493 31.6374C336.39 30.6328 337.156 29.5187 337.773 28.3218C338.399 27.0742 338.853 25.7475 339.122 24.3779C339.423 22.8905 339.574 21.3768 339.572 19.8593C339.646 16.9821 339.082 14.1243 337.92 11.4911C336.705 9.03873 334.919 6.91466 332.711 5.29834C330.141 3.40162 327.217 2.03943 324.112 1.29234C320.672 0.424222 317.137 -0.00974731 313.589 0.000558111C309.919 -0.0140439 306.257 0.338129 302.658 1.05183C299.236 1.74454 295.964 3.03713 292.993 4.86983C290.16 6.54583 287.826 8.94935 286.235 11.8311C284.696 14.7555 283.916 18.0193 283.965 21.3234C283.961 22.6363 284.084 23.9465 284.332 25.2359C284.818 27.8608 285.995 30.3087 287.742 32.3278C288.559 33.2827 289.478 34.1457 290.482 34.9012C291.911 35.8915 293.419 36.7626 294.991 37.5057C295.1 37.5654 295.19 37.6554 295.249 37.7648C295.308 37.8743 295.335 37.9985 295.325 38.1226C295.319 38.2462 295.278 38.3654 295.205 38.4657C295.133 38.566 295.033 38.6431 294.917 38.6876C293.155 39.2747 291.43 39.9662 289.75 40.7586C288.436 41.4388 287.21 42.2766 286.099 43.2534C284.803 44.38 283.698 45.7081 282.825 47.1865C281.878 48.748 281.16 50.437 280.691 52.2021C280.228 53.9944 279.993 55.8379 279.99 57.6891C279.94 60.6712 280.596 63.6229 281.905 66.3032C283.337 68.9858 285.447 71.2468 288.024 72.8616C290.98 74.7919 294.268 76.1589 297.721 76.8939C301.476 77.7118 305.31 78.1204 309.154 78.1124L309.143 78.1021C313.23 78.1027 317.303 77.6466 321.288 76.7424V76.7424ZM305.179 16.8307C306.127 15.9329 307.246 15.2362 308.47 14.7824C309.695 14.3285 310.998 14.1269 312.302 14.1898H312.292C314.634 14.0728 316.933 14.8486 318.725 16.3604C319.532 17.1026 320.17 18.011 320.592 19.0232C321.015 20.0354 321.213 21.1272 321.173 22.2233C321.209 23.4743 320.975 24.7184 320.485 25.8703C319.996 27.0222 319.264 28.0547 318.338 28.897C316.431 30.5968 313.946 31.5024 311.392 31.4281C309.872 31.4412 308.367 31.1291 306.978 30.5128C305.606 29.908 304.458 28.8896 303.693 27.5999C302.917 26.3169 302.515 24.8423 302.532 23.3427C302.509 22.1346 302.732 20.9344 303.187 19.8149C303.642 18.6955 304.319 17.6802 305.179 16.8307V16.8307ZM301.413 59.4092C300.559 57.9879 300.111 56.3602 300.116 54.7022C300.075 53.3868 300.312 52.0775 300.814 50.8605C301.315 49.6436 302.068 48.5466 303.024 47.6418C305.216 45.7386 308.065 44.7665 310.963 44.9324V44.943C313.602 44.7958 316.205 45.6034 318.296 47.2182C319.204 48.0163 319.919 49.0086 320.39 50.1215C320.861 51.2344 321.075 52.4391 321.016 53.646C321.051 55.5516 320.551 57.4288 319.572 59.0644C318.652 60.5986 317.308 61.8339 315.702 62.6211C314.041 63.4173 312.219 63.8217 310.377 63.803C308.583 63.8161 306.807 63.445 305.168 62.7148C303.606 62.0259 302.295 60.8715 301.413 59.4092V59.4092Z" fill="white"/>
<path d="M356.8 72.8563C359.76 74.7878 363.051 76.1566 366.508 76.8939C370.26 77.7129 374.09 78.1215 377.93 78.1124L377.92 78.1021C382.002 78.1047 386.072 77.6502 390.054 76.7472C393.742 75.9518 397.247 74.4704 400.388 72.3801C403.343 70.3646 405.737 67.6308 407.344 64.4356C409.017 61.2224 409.896 57.6553 409.907 54.0328C409.911 52.5388 409.735 51.0498 409.384 49.5978C409.043 48.2099 408.481 46.8856 407.721 45.6752C406.971 44.4644 406.036 43.379 404.949 42.4585C403.937 41.5875 402.806 40.8637 401.591 40.3088C399.902 39.6109 398.173 39.012 396.413 38.5152C396.292 38.4775 396.185 38.4049 396.105 38.3066C396.025 38.2082 395.976 38.0885 395.964 37.9623C395.952 37.8362 395.977 37.7092 396.036 37.5973C396.096 37.4854 396.187 37.3935 396.298 37.3332C398.076 36.4524 399.786 35.44 401.413 34.3046C402.45 33.5106 403.409 32.6212 404.28 31.6481C405.17 30.6403 405.932 29.5265 406.549 28.3318C407.177 27.0806 407.635 25.7507 407.909 24.3778C408.208 22.8903 408.355 21.3764 408.348 19.8593C408.43 16.9825 407.869 14.1237 406.706 11.4911C405.491 9.04111 403.704 6.91911 401.497 5.30368C398.931 3.40238 396.006 2.04119 392.899 1.3024C389.456 0.432164 385.917 -0.00359083 382.365 0.00530238C378.699 -0.0100089 375.041 0.340565 371.445 1.05181C368.022 1.75087 364.747 3.04299 361.769 4.86981C358.943 6.55389 356.615 8.95774 355.022 11.8359C353.485 14.7596 352.701 18.0205 352.742 21.3234C352.748 22.6376 352.871 23.9486 353.108 25.2412C353.599 27.8619 354.78 30.3045 356.529 32.3176C357.343 33.275 358.262 34.138 359.269 34.8905C360.695 35.8808 362.199 36.7536 363.767 37.5003C363.878 37.56 363.97 37.6505 364.031 37.7608C364.092 37.8711 364.12 37.9967 364.112 38.1226C364.103 38.2462 364.059 38.3646 363.985 38.4638C363.911 38.563 363.81 38.6388 363.694 38.6823C361.934 39.2634 360.211 39.9535 358.537 40.7485C357.223 41.4301 355.997 42.2696 354.886 43.2485C353.59 44.3773 352.482 45.7047 351.602 47.1812C350.662 48.7453 349.947 50.4339 349.478 52.1973C349.01 53.9885 348.775 55.8324 348.777 57.6837C348.726 60.6641 349.382 63.6143 350.692 66.2923C352.123 68.9737 354.229 71.2359 356.8 72.8563V72.8563ZM373.945 16.8307C374.891 15.9338 376.009 15.2375 377.232 14.7837C378.454 14.3299 379.755 14.1278 381.058 14.1898H381.068C383.411 14.0723 385.711 14.8501 387.501 16.3653C388.308 17.1065 388.942 18.0146 389.361 19.0264C389.781 20.0381 389.974 21.1291 389.928 22.2233C389.971 23.475 389.739 24.7209 389.249 25.8737C388.759 27.0265 388.024 28.0583 387.093 28.8969C385.192 30.5999 382.71 31.5079 380.158 31.4334C378.635 31.4446 377.126 31.1308 375.734 30.5127C374.366 29.9098 373.222 28.895 372.459 27.61C371.685 26.3219 371.28 24.8457 371.288 23.3427C371.266 22.1338 371.49 20.933 371.947 19.8135C372.403 18.694 373.083 17.6791 373.945 16.8307V16.8307ZM371.8 47.6471C373.995 45.7474 376.842 44.7741 379.74 44.9324L379.729 44.943C382.371 44.7972 384.976 45.6046 387.072 47.2182C387.98 48.0169 388.694 49.0104 389.164 50.1243C389.633 51.2382 389.844 52.4437 389.782 53.6508C389.815 55.5533 389.319 57.4278 388.349 59.0644C387.428 60.6014 386.079 61.8372 384.468 62.6211C382.812 63.4209 380.993 63.8255 379.154 63.803C377.36 63.8171 375.583 63.446 373.945 62.7148C372.381 62.0267 371.066 60.8746 370.179 59.4146C369.329 57.9897 368.881 56.3613 368.882 54.7022C368.841 53.3866 369.079 52.0772 369.583 50.8608C370.086 49.6445 370.842 48.549 371.8 47.6471V47.6471Z" fill="white"/>
<path d="M126.611 72.6104C130.685 71.2303 134.349 68.8535 137.27 65.6963C139.928 62.8471 141.956 59.4701 143.222 55.7851C144.404 52.1705 145.001 48.3903 144.99 44.5875C145.009 40.7417 144.344 36.9233 143.024 33.3111C141.717 29.8458 139.635 26.7256 136.936 24.1898C134.014 21.4891 130.552 19.4405 126.779 18.1802C122.724 16.7829 118.463 16.0741 114.174 16.083C109.564 16.0735 104.987 16.8664 100.649 18.426C96.5901 19.8361 92.888 22.1155 89.8016 25.105C86.9849 27.8431 84.8032 31.1656 83.4102 34.8385C82.0587 38.4944 81.375 42.3634 81.3917 46.261C81.3756 50.1634 82.0776 54.0353 83.4627 57.6836C84.7917 61.2032 86.9017 64.3755 89.6339 66.9618C92.5722 69.6677 96.073 71.6897 99.8851 72.8824C104.052 74.2435 108.41 74.9319 112.794 74.922L112.783 74.9327C117.491 74.9536 122.168 74.1682 126.611 72.6104V72.6104ZM112.616 60.309C111.134 60.3366 109.665 60.039 108.311 59.4371C106.958 58.8353 105.753 57.9438 104.781 56.8256C102.545 54.0392 101.433 50.5168 101.663 46.9515C101.639 44.2166 102.118 41.5006 103.076 38.9388C103.887 36.6479 105.38 34.6602 107.354 33.2431C109.252 31.941 111.507 31.2594 113.808 31.2921V31.3081C115.959 31.2591 118.072 31.8805 119.854 33.0861C121.562 34.2543 122.866 35.9223 123.588 37.8612C124.356 39.9471 124.735 42.1557 124.708 44.3781C124.721 47.1392 124.243 49.8807 123.295 52.4742C122.501 54.8148 121.008 56.8556 119.017 58.3215C117.144 59.6376 114.905 60.3327 112.616 60.309V60.309Z" fill="white"/>
<path d="M165.995 73.4577C170.178 73.3898 173.965 73.355 177.354 73.3533C180.461 73.3533 184.049 73.3898 188.097 73.4577L190.89 66.3341L204.666 33.2694L211.654 17.5472C208.181 17.6105 204.812 17.6207 201.58 17.6207C198.275 17.6207 194.774 17.5789 191.078 17.4954L182.71 41.742C181.235 45.9784 180.398 48.2904 180.199 48.8029L178.808 53.2905C178.724 53.5518 178.484 53.3948 178.223 53.3948H178.202C177.93 53.3948 177.699 53.5255 177.626 53.2535C175.503 44.4407 173.515 37.0457 171.737 30.6124C170.063 24.6028 168.902 20.2148 168.254 17.5526C165.168 17.6207 161.891 17.6539 158.421 17.6523C155.157 17.6523 151.653 17.6208 147.908 17.5579L160.45 55.5286L165.995 73.4577Z" fill="white"/>
<path d="M256.737 73.3533C260.011 73.3533 263.296 73.395 266.612 73.4523C266.884 61.9301 267.302 52.4479 267.825 45.2617C268.359 37.9764 268.62 33.2484 268.62 31.1875C268.838 27.9382 267.847 24.7231 265.838 22.1605C263.694 19.8971 260.946 18.296 257.919 17.5472C254.196 16.5409 250.353 16.0483 246.497 16.083C237.734 16.2781 229.018 17.425 220.503 19.5036L219.697 25.6439C219.541 26.8987 219.174 29.1058 218.62 32.2025C225.578 29.2061 233.019 27.4875 240.587 27.129C242.46 27.0107 244.326 27.4474 245.953 28.3845C246.588 28.7932 247.106 29.3601 247.456 30.0294C247.807 30.6987 247.977 31.4475 247.951 32.2025C247.959 33.4267 247.481 34.6042 246.622 35.4764C246.109 35.9961 245.507 36.4194 244.844 36.7264C243.732 37.2011 242.585 37.5876 241.413 37.8822C239.855 38.3165 238.128 38.7193 236.256 39.1011C232.534 39.8048 228.862 40.7499 225.263 41.9304C222.89 42.6936 220.623 43.7531 218.516 45.0839C216.897 46.1815 215.46 47.5264 214.258 49.0696C213.119 50.4982 212.218 52.1019 211.591 53.8184C211.038 55.4064 210.752 57.0747 210.743 58.7559C210.796 61.6744 211.588 64.5319 213.045 67.0614C214.483 69.7299 216.779 71.8359 219.561 73.0394C223.008 74.3974 226.696 75.038 230.399 74.922L230.409 74.9273C233.174 74.9102 235.934 74.6724 238.662 74.2161C239.855 69.6241 240.932 65.9105 241.852 63.1753C240.255 63.7168 238.58 63.9923 236.894 63.9911C235.094 64.1343 233.306 63.5968 231.884 62.485C231.356 62.0192 230.935 61.4459 230.648 60.8035C230.361 60.1612 230.215 59.4648 230.22 58.7613C230.22 57.8803 230.421 57.0109 230.806 56.2188C231.271 55.369 231.913 54.629 232.689 54.0489C233.594 53.3437 234.603 52.7842 235.681 52.3907C236.779 51.9724 238.296 51.4701 240.241 50.8632C242.145 50.2725 243.484 49.828 244.237 49.5297C245.001 49.2421 246.036 48.7611 247.375 48.1018C247.455 48.057 247.545 48.0319 247.637 48.0285C247.758 48.0285 247.876 48.069 247.972 48.1437C248.061 48.2051 248.132 48.2883 248.18 48.3853C248.228 48.4824 248.249 48.59 248.244 48.698C247.689 60.7744 247.166 69.1009 246.706 73.4524C250.231 73.3898 253.575 73.3567 256.737 73.3533Z" fill="white"/>
<path d="M59.6237 72.7304C63.1803 72.7304 66.9809 72.7602 71.0253 72.8199L71.308 61.167L73.6404 16.6742L74.7704 2.00348C69.9584 2.07148 67.0192 2.09772 65.9415 2.09772C63.6403 2.10791 60.6384 2.07684 56.9564 2.01361C56.9249 6.28155 56.7262 13.4469 56.3497 23.3216C55.9523 34.0694 55.5441 42.5891 55.1569 48.6513C55.1311 48.9521 54.9971 49.2334 54.7798 49.4429C54.5625 49.6525 54.2765 49.7761 53.975 49.791C53.7548 49.7888 53.5395 49.7255 53.353 49.6083C53.1666 49.491 53.0163 49.3244 52.9188 49.1269L49.9062 43.0337L28.2115 2.01364C23.2323 2.07156 19.3832 2.10794 16.5902 2.10794C12.7615 2.10794 10.0629 2.07156 3.69275 2.01364V9.1951L3.02332 24.6237L0.90991 62.898L0 72.8145C4.48743 72.7566 7.60461 72.7256 9.33069 72.7256C11.3599 72.7304 14.226 72.7601 17.9292 72.8145L18.4208 52.5684L19.5294 27.1183C19.5531 26.8119 19.687 26.5245 19.9063 26.3091C20.1255 26.0938 20.4154 25.9652 20.7222 25.947C20.9453 25.9454 21.1643 26.0075 21.3533 26.1261C21.5423 26.2447 21.6934 26.4149 21.7889 26.6165C23.4627 30.0474 25.0945 33.2484 26.6841 36.1458C29.1322 40.8057 31.7891 45.6388 34.5607 50.5028L43.2428 65.8323C44.0482 67.3073 45.2718 69.6396 46.8937 72.8199V72.83C52.2701 72.7621 56.5135 72.7289 59.6237 72.7304Z" fill="white"/>
<path d="M9.60075 128.922C12.0177 127.42 14.2522 125.644 16.2596 123.627C18.2071 125.647 20.3889 127.427 22.7586 128.929V123.969C21.4036 122.747 20.1982 121.37 19.1677 119.864C21.2195 116.332 22.4164 111.429 22.7586 105.156H17.6277C17.5061 108.05 17.0469 110.92 16.2596 113.708C15.4837 110.923 15.0814 108.047 15.0633 105.156H9.59062C9.93241 111.429 11.1863 116.388 13.3523 120.035C12.191 121.432 10.9341 122.746 9.59062 123.969V128.913C9.34037 128.676 9.14835 128.384 9.0296 128.06C8.91084 127.736 8.86855 127.39 8.90605 127.047V103.617H22.7586V98.8292H3.09159V128.929C2.97636 132.233 4.51543 133.829 7.70878 133.717H21.2195V129.271H10.7879C10.3643 129.29 9.94635 129.168 9.60075 128.922Z" fill="white"/>
<path d="M32.3357 97.9737C32.4205 97.7537 32.4779 97.5241 32.5066 97.2901H26.0085C25.5515 102.65 24.4112 106.641 22.5876 109.261V114.221C24.7027 112.919 26.6547 111.369 28.4021 109.604V110.972C28.4021 116.217 27.946 120.207 27.0339 122.942C25.9981 126.186 24.1769 129.124 21.7322 131.494V136.624C26.6335 134.115 29.9971 130.809 31.823 126.705C34.1431 130.842 37.6604 134.181 41.9128 136.282V131.151C37.0095 126.593 34.7292 119.923 35.072 111.143V108.748H28.9158C29.7415 107.666 30.3775 106.451 30.7966 105.156H36.0984V111.484H41.9128V100.368H32.1648C32.1798 99.5676 32.2368 98.7683 32.3357 97.9737Z" fill="white"/>
<path d="M98.4177 123.969C99.8982 120.094 101.095 114.621 102.009 107.551H95.5105C95.1735 113.104 94.2564 118.607 92.7742 123.969H98.4177Z" fill="white"/>
<path d="M70.8835 107.551H64.3845C65.2966 114.621 66.4939 120.094 67.9763 123.969H73.6199C72.1362 118.607 71.2191 113.104 70.8835 107.551V107.551Z" fill="white"/>
<path d="M92.2615 103.617H102.18V98.6582H64.3845V103.617H74.3044V130.126H63.8718V134.914H102.693V130.126H92.2615V103.617ZM85.0779 130.126H81.4871V103.617H85.0779V130.126Z" fill="white"/>
<path d="M134.913 136.282V107.038C136.474 103.892 137.624 100.559 138.334 97.1192H131.15C129.894 103.617 127.671 107.893 124.481 109.945V114.221C124.865 114.061 125.267 113.946 125.677 113.879C126.816 113.537 127.614 113.309 128.072 113.194V136.282H134.913Z" fill="white"/>
<path d="M136.966 107.209H139.359C139.587 115.418 138.447 122.031 135.939 127.047V132.52C138.128 130.689 139.981 128.49 141.412 126.022V128.929H146.2V136.282H153.212V128.929H157.83V125.85C159.461 128.323 161.417 130.566 163.644 132.52V127.047C161.02 122.031 159.823 115.419 160.053 107.209H162.789V102.42H153.212V97.1192H146.2V102.42H136.966L136.966 107.209ZM153.212 107.209H154.238C154.123 115.19 155.092 120.948 157.145 124.481H153.212L153.212 107.209ZM145.345 107.209H146.2V124.481H142.266C144.204 120.607 145.23 114.85 145.345 107.209Z" fill="white"/>
<path d="M201.338 97.1192V99.3419H186.116V104.131H195.864C194.392 105.151 192.849 106.066 191.247 106.867C190.973 107.056 190.687 107.227 190.391 107.38V111.997H199.285C206.58 111.771 212.052 111.486 215.703 111.143C215.785 111.308 215.837 111.412 215.874 111.488C215.968 111.822 216.025 112.165 216.045 112.511H223.227C221.938 109.781 220.268 107.247 218.268 104.985H211.769C212.339 105.67 212.852 106.297 213.308 106.867C211.483 107.097 209.659 107.268 207.836 107.38H199.798C200.025 107.268 200.367 107.097 200.824 106.867C202.312 106.058 203.741 105.143 205.099 104.131H225.28V99.3419H210.23V97.1192H201.338Z" fill="white"/>
<path d="M214.506 130.297C214.618 131.553 214.105 132.123 212.967 132.007H211.598V136.111H216.729C220.377 136.224 222.144 134.399 222.031 130.639V113.365H189.879V136.111H197.232V129.954H214.506V130.297ZM197.232 117.813H214.506V119.864H197.232V117.813ZM197.232 125.85V123.969H214.506V125.85H197.232Z" fill="white"/>
<path d="M86.4841 156.623C86.2351 154.327 84.1795 151.623 76.866 152.414C71.2713 153.308 65.8332 154.997 60.7166 157.43C59.3298 158.139 58.2722 159.889 57.5076 161.176C56.745 162.324 56.2117 163.608 55.9373 164.959C56.0154 165.681 56.4021 166.069 57.1248 165.991C57.574 165.914 58.0081 165.766 58.4109 165.553C60.2418 164.609 62.1638 163.852 64.1472 163.296C64.6902 163.152 65.6414 162.791 65.572 162.153C65.5349 161.814 65.1765 161.68 64.908 161.58C68.5984 159.696 72.5021 158.263 76.5349 157.312C81.4304 156.439 82.782 157.798 82.9255 158.728C83.1355 159.867 81.1941 163.002 71.7263 165.359C74.8103 160.854 75.0476 160.268 75.2673 159.514C71.0153 159.974 68.5945 163.849 66.1199 166.826C64.8855 167.347 58.9421 168.075 59.1394 169.904C59.2956 171.35 62.031 171.183 63.2312 171.14C59.0017 178.179 59.237 178.369 59.3845 179.73C59.8025 183.599 64.1648 184.159 67.2087 183.658C78.5779 181.784 83.1872 175.478 82.9255 173.055C82.4841 168.972 71.9744 169.247 68.8952 169.021L69.6638 168.164C74.533 166.647 87.2283 163.512 86.4841 156.623ZM78.0652 173.064C78.2488 174.765 72.6795 178.162 68.9002 178.614C67.5398 178.762 64.1258 178.614 63.9275 176.786C63.8309 175.893 64.6658 174.856 65.1531 174.2L67.2547 171.35C68.9978 171.161 77.8259 170.853 78.0652 173.064V173.064Z" fill="white"/>
<path d="M92.1296 177.394C90.7683 177.54 89.3064 177.14 89.2585 175.51L89.2429 174.564C97.1179 171.003 98.8611 167.632 98.6355 165.548C98.4519 163.847 96.7146 163.69 95.3533 163.838C89.821 164.394 84.2713 170.758 85.0427 176.309C85.4314 179.107 87.1765 181.715 90.281 181.379C94.491 180.924 98.7361 176.421 101.003 173.121L100.446 171.547C98.3845 173.576 95.1492 177.066 92.1296 177.394ZM94.4294 166.433C94.7175 166.315 94.9577 166.548 94.99 166.846C95.1111 167.564 92.8767 170.773 89.2722 172.453C89.6413 171.135 90.2941 169.912 91.1849 168.873C92.0758 167.833 93.1831 167 94.4294 166.433V166.433Z" fill="white"/>
<path d="M146.921 153.357C146.351 148.085 143.05 145.001 132.504 146.142C128.636 146.522 124.841 147.439 121.226 148.865C120.002 149.195 118.928 149.934 118.182 150.959C117.603 151.968 115.491 155.509 115.601 156.528C115.643 156.911 116.073 156.908 116.328 156.881C117.603 156.743 123.22 153.382 130.647 152.451L124.852 162.111C123.126 162.856 118.232 164.547 118.499 167.014C118.605 167.593 118.866 168.133 119.255 168.576C119.644 169.019 120.146 169.348 120.707 169.528C119.879 171.425 117.361 176.387 117.563 178.258C117.553 178.462 117.589 178.666 117.67 178.854C117.751 179.043 117.874 179.209 118.03 179.342C118.186 179.475 118.37 179.57 118.569 179.621C118.767 179.671 118.974 179.675 119.175 179.632C120.237 179.517 120.998 178.187 121.468 177.362C122.412 175.754 123.323 174.236 123.263 173.683C123.213 173.215 122.764 173.048 122.373 173.005L123.804 169.925C137.577 169.984 147.9 162.415 146.921 153.357ZM131.471 164.45C130.009 164.712 128.513 164.728 127.046 164.498L127.83 162.994C128.46 162.452 132.052 161.85 131.96 160.999C131.872 160.19 130.192 160.975 128.619 161.145L132.418 154.496C132.945 153.702 133.177 152.748 133.073 151.801C135.028 151.59 143.078 151.235 143.826 153.779C144.584 156.407 139.756 163.081 131.471 164.45Z" fill="white"/>
<path d="M195.453 151.381L192.793 151.453C193.154 150.813 194.235 149.274 194.152 148.51C194.079 147.829 193.258 147.789 192.705 147.849C190.238 148.115 189.518 150.216 188.431 152.097C183.9 152.759 183.633 153.476 181.742 157.467L181.357 158.281C182.665 157.904 184.017 157.7 185.379 157.675C183.969 160.521 182.024 163.069 179.65 165.179L179.711 165.327C178.888 166.299 177.796 167.007 176.573 167.36C176.244 167.401 175.912 167.316 175.643 167.121C175.375 166.927 175.19 166.638 175.126 166.313C174.942 164.611 176.8 162.303 177.919 161.107C178.809 160.193 179.549 159.467 179.406 158.149C179.205 157.325 178.766 156.58 178.142 156.006C177.662 155.541 175.378 156.305 171.44 157.289C171.584 156.898 171.641 156.481 171.609 156.066C171.58 155.871 171.475 155.694 171.317 155.575C171.16 155.455 170.962 155.402 170.765 155.426C169.745 155.537 165.739 159.068 166.07 162.129C166.167 163.023 166.459 163.334 167.36 163.323C166.7 164.569 165.868 165.716 164.889 166.731L164.947 167.015C163.73 168.099 162.45 169.102 161.329 169.223C160.649 169.297 159.979 169.067 159.901 168.346C159.684 166.346 163.061 162.971 162.915 161.609C162.897 161.219 162.746 160.847 162.487 160.554C162.229 160.261 161.878 160.065 161.493 159.999C161.862 159.83 162.922 159.286 162.866 158.775C162.663 158.173 162.249 157.665 161.701 157.344C161.152 157.024 160.506 156.913 159.882 157.033C154.964 157.694 144.496 164.333 145.241 169.629C145.564 171.831 148.335 174.37 149.525 174.242C150.503 174.136 152.985 171.632 153.724 170.906L157.296 167.336L157.39 167.412C156.749 168.981 156.391 170.651 156.333 172.345C156.327 172.635 156.384 172.924 156.5 173.19C156.616 173.457 156.789 173.695 157.006 173.888C157.223 174.081 157.48 174.225 157.758 174.31C158.036 174.394 158.329 174.418 158.617 174.378C160.701 174.153 165.907 168.987 167.509 166.705L167.348 166.218C168.324 165.186 169.148 164.021 169.795 162.758L174.111 161.303L174.205 161.379C172.725 163.604 170.757 166.097 171.071 168.988C171.11 169.811 171.473 170.584 172.081 171.139C172.689 171.695 173.493 171.986 174.315 171.949C176.613 171.7 180.664 166.975 182.289 164.778L182.367 164.841C181.866 166.242 181.647 167.728 181.721 169.214C181.724 169.587 181.807 169.954 181.964 170.292C182.121 170.63 182.349 170.93 182.632 171.173C182.915 171.415 183.247 171.594 183.605 171.698C183.963 171.801 184.339 171.827 184.708 171.772C188.323 171.382 192.424 166.336 194.684 163.768L194.269 161.92C190.186 165.545 188.794 166.984 187.433 167.132C186.455 167.237 186.097 166.717 185.997 165.782C185.72 163.231 187.767 159.481 189.01 157.454C193.72 157.246 193.89 155.636 195.453 151.381ZM149.402 171.115C148.778 171.312 148.525 170.565 148.46 170.357C148.234 168.273 149.186 165.546 158.971 161.347L159.066 161.424C151.566 170.838 150.234 170.854 149.402 171.115Z" fill="white"/>
<path d="M233.381 161.175C232.695 160.002 232.119 158.646 230.807 158.055L237.559 146.097C238.559 144.184 239.096 142.063 239.127 139.905C239.052 139.225 238.839 138.043 237.903 138.145C235.735 138.379 231.343 149.092 230.464 151.295C229.408 153.862 228.262 156.007 225.901 157.64C225.785 157.721 225.67 157.8 225.556 157.879L225.531 157.809C225.427 157.905 225.326 158.01 225.224 158.113C224.741 158.419 224.339 158.837 224.052 159.332C223.728 159.719 223.32 160.027 222.86 160.236C222.401 160.444 221.9 160.546 221.395 160.535C222.023 158.789 222.713 157.209 222.51 155.338C222.373 154.063 222.021 153.197 220.709 152.994C221.149 152.689 221.632 152.379 221.562 151.741C221.438 150.593 219.989 150.32 219.058 150.463C216.174 150.997 213.52 152.394 211.447 154.469C209.263 156.556 207.92 158.852 208.349 162.032C208.937 165.883 211.218 167.874 213.429 167.635C214.677 167.449 215.872 167.007 216.939 166.336C218.007 165.665 218.924 164.78 219.633 163.737C221.33 163.637 222.948 162.986 224.241 161.882C224.543 162.317 224.908 162.706 225.323 163.035C224.436 165.584 222.971 169.142 223.27 171.905C223.422 173.309 224.402 177.203 226.326 176.693C229.38 175.891 234.827 170.569 234.62 165.473C234.628 164.685 234.529 163.899 234.325 163.138C236.216 161.838 237.916 160.278 239.374 158.506L238.736 156.982L233.381 161.175ZM216.058 160.51C216.155 161.189 216.401 161.838 216.779 162.411C215.898 163.409 215.092 164.315 213.689 164.466C212.626 164.581 211.777 164.284 211.643 163.052C211.586 161.572 212.054 160.12 212.964 158.951C214.289 157.59 215.759 156.379 217.348 155.338C217.527 155.403 215.819 158.299 216.058 160.51V160.51ZM228.033 172.981C227.235 171.914 226.794 170.622 226.773 169.289C226.909 167.537 227.398 165.831 228.21 164.273C229.226 164.529 230.29 164.532 231.308 164.281C231.585 165.892 231.428 167.547 230.852 169.076C230.277 170.606 229.303 171.954 228.033 172.981Z" fill="white"/>
<path d="M291.401 155.849C290.041 155.996 288.577 155.595 288.531 153.965L288.514 153.021C296.388 149.459 298.133 146.087 297.907 144.003C297.723 142.302 295.985 142.146 294.625 142.293C289.744 142.783 284.855 147.796 284.302 152.782C283.066 153.818 280.407 156.22 279.067 156.364C278.947 156.385 278.824 156.38 278.705 156.351C278.587 156.322 278.476 156.269 278.379 156.194C278.282 156.12 278.201 156.027 278.142 155.92C278.083 155.813 278.046 155.696 278.035 155.574C277.989 155.149 277.847 155.034 280.139 151.561C280.586 150.908 282.084 148.855 281.996 148.046C281.896 147.524 281.614 147.054 281.199 146.721C280.785 146.388 280.266 146.213 279.735 146.227C277.396 146.48 270.392 154.12 268.488 156.004L268.308 154.346C270.74 151.371 282.746 135.877 282.433 132.985C282.341 132.135 281.161 131.962 280.48 132.036C279.034 132.192 271.377 140.547 267.256 149.382C266.446 150.925 265.865 152.579 265.531 154.29C261.525 157.85 260.139 159.271 258.79 159.417C257.811 159.523 257.455 159.002 257.353 158.067C257.078 155.516 259.125 151.767 260.367 149.739C265.077 149.531 265.248 147.922 266.809 143.666L264.149 143.738C264.51 143.098 265.592 141.561 265.509 140.795C265.435 140.115 264.614 140.074 264.061 140.134C261.595 140.4 260.876 142.501 259.788 144.382C255.258 145.044 254.99 145.761 253.098 149.752L252.714 150.566C254.022 150.189 255.374 149.985 256.735 149.96C255.325 152.806 253.38 155.354 251.007 157.464L251.649 159.028L253.63 157.05L253.723 157.126C253.223 158.527 253.003 160.013 253.078 161.499C253.081 161.872 253.164 162.239 253.321 162.577C253.478 162.915 253.706 163.216 253.989 163.458C254.272 163.701 254.603 163.88 254.961 163.983C255.319 164.086 255.695 164.112 256.064 164.058C259.382 163.699 263.104 159.425 265.442 156.738C265.451 156.847 265.45 156.95 265.462 157.062C265.568 158.039 266.138 161.334 267.627 161.173C268.988 161.025 270.627 156.288 277.36 150.527L277.455 150.603C276.139 152.767 273.555 156.316 273.844 158.995C273.847 159.276 273.907 159.554 274.02 159.811C274.133 160.068 274.298 160.299 274.504 160.491C274.71 160.682 274.953 160.829 275.218 160.923C275.483 161.017 275.764 161.056 276.045 161.037C278.18 160.806 282.27 156.857 284.334 154.876C284.752 157.631 286.489 160.166 289.551 159.835C293.761 159.38 298.006 154.877 300.274 151.577L299.717 150.003C297.656 152.032 294.421 155.523 291.401 155.849ZM293.701 144.889C293.99 144.771 294.229 145.003 294.261 145.301C294.383 146.02 292.148 149.229 288.544 150.908C288.913 149.59 289.565 148.368 290.456 147.328C291.347 146.288 292.455 145.456 293.701 144.889V144.889Z" fill="white"/>
<path d="M401.584 143.937C400.222 144.084 398.76 143.683 398.713 142.053L398.697 141.107C406.571 137.546 408.314 134.175 408.09 132.091C407.905 130.39 406.168 130.233 404.807 130.381C400.243 130.839 395.676 135.252 394.648 139.9C389.959 143.897 389.485 143.957 388.625 144.263C388.129 144.444 387.503 143.823 387.49 143.31C387.427 142.326 387.608 141.619 390.529 137.604C390.942 137.043 391.691 136.015 391.613 135.293C391.443 134.68 391.116 134.122 390.664 133.674C390.517 133.518 389.982 132.543 389.642 132.579C389.133 132.635 388.161 133.6 387.772 133.986L379.136 142.448L379.043 142.373C379.799 140.613 382.445 136.842 382.243 134.972C382.248 134.722 382.2 134.474 382.101 134.244C382.002 134.015 381.854 133.809 381.669 133.642C381.484 133.474 381.265 133.348 381.027 133.272C380.789 133.197 380.537 133.173 380.289 133.203C377.525 133.502 370.774 141.89 368.925 144.284C368.81 144.425 368.36 145.033 368.148 145.056C367.978 145.074 367.818 144.791 367.808 144.705C367.712 143.813 368.404 143.05 368.802 142.361C369.438 141.377 370.125 140.426 370.861 139.514C371.307 138.864 372.359 137.459 372.267 136.608C372.171 135.716 370.896 135.854 370.249 135.838C368.101 135.784 365.064 140.032 364.322 143.862C362.632 145.297 360.461 147.694 358.687 147.886C358.007 147.959 357.337 147.73 357.259 147.009C357.043 145.009 360.421 141.633 360.273 140.271C360.256 139.881 360.105 139.509 359.846 139.216C359.588 138.923 359.236 138.728 358.851 138.662C359.22 138.492 360.28 137.948 360.225 137.437C360.022 136.835 359.608 136.327 359.059 136.007C358.51 135.686 357.864 135.576 357.24 135.695C353.409 136.21 346.213 140.351 343.569 144.66C343.562 144.564 343.555 144.465 343.549 144.36L334.846 151.409L334.753 151.334C337.469 145.834 339.75 141.846 341.177 137.948C341.413 137.46 341.56 136.935 341.612 136.395C341.552 135.842 340.92 135.566 340.425 135.362C339.912 135.079 339.353 134.892 338.773 134.81C338.395 134.905 338.066 135.14 337.855 135.469L323.57 148.973C322.818 149.754 321.868 150.318 320.821 150.604C319.886 150.704 319.468 150.019 319.158 149.148C318.46 147.072 324.908 135.879 337.217 130.763L337.311 130.838L335.682 132.477C335.407 132.722 334.621 133.409 334.667 133.834C334.668 133.911 334.686 133.987 334.719 134.057C334.751 134.126 334.798 134.189 334.856 134.239C334.915 134.29 334.983 134.327 335.056 134.35C335.13 134.373 335.207 134.379 335.284 134.37C335.667 134.328 336.512 134.193 341.967 129.732C342.758 129.088 343.582 128.354 343.463 127.248C343.347 126.29 342.981 125.38 342.402 124.608C342.191 124.342 341.902 124.148 341.576 124.053C341.25 123.957 340.902 123.965 340.581 124.074C328.987 126.662 321.939 133.49 319.354 137.038C317.164 139.856 314.887 144.662 315.282 148.32C315.604 151.297 317.288 153.737 320.688 153.758C323.144 153.793 326.64 150.318 328.596 148.515L332.944 144.561L333.039 144.636C331.58 148.584 329.678 152.354 327.371 155.874C323.424 158.366 320.049 162.561 320.484 165.397C320.628 166.326 321.188 167.126 322.251 167.011C325.142 166.698 330.809 159.03 332.295 156.461L338.64 151.085C340.031 149.965 341.346 148.755 342.577 147.462C342.556 147.738 342.563 148.016 342.598 148.291C342.923 150.494 345.692 153.033 346.884 152.904C347.861 152.799 350.344 150.294 351.083 149.568L354.654 145.999L354.749 146.074C354.108 147.644 353.75 149.314 353.69 151.008C353.685 151.298 353.742 151.587 353.858 151.853C353.974 152.119 354.147 152.357 354.364 152.55C354.581 152.744 354.838 152.888 355.115 152.972C355.393 153.057 355.687 153.08 355.974 153.041C357.823 152.841 362.124 148.757 364.192 146.244C364.39 147.815 365.344 150.908 367.338 150.692C368.102 150.61 368.629 149.908 369.038 149.306C370.769 146.623 372.875 143.814 374.833 141.235C375.098 140.905 375.924 139.784 376.348 139.738C376.388 139.733 376.428 139.736 376.466 139.747C376.504 139.757 376.539 139.776 376.57 139.801C376.601 139.825 376.627 139.856 376.645 139.891C376.664 139.926 376.675 139.964 376.679 140.004C376.66 140.21 376.593 140.409 376.483 140.584C374.175 145.093 373.365 147.159 373.541 148.388C373.608 148.87 373.862 149.306 374.249 149.602C374.635 149.899 375.122 150.031 375.605 149.971C377.052 149.814 378.393 147.907 379.27 146.864L385.36 139.926L385.454 140.001C384.58 141.859 382.822 145.105 383.052 147.231C383.089 147.847 383.364 148.424 383.819 148.84C384.273 149.257 384.872 149.48 385.488 149.463C387.586 149.236 392.164 144.803 394.474 142.527C394.485 142.635 394.482 142.744 394.497 142.852C394.886 145.65 396.631 148.258 399.734 147.922C403.944 147.467 408.189 142.964 410.457 139.664L409.9 138.091C407.839 140.119 404.603 143.61 401.584 143.937ZM403.884 132.977C404.172 132.859 404.412 133.091 404.444 133.389C404.565 134.106 402.331 137.316 398.726 138.996C399.095 137.677 399.748 136.456 400.639 135.416C401.53 134.376 402.637 133.543 403.884 132.977V132.977ZM346.761 149.777C346.137 149.974 345.884 149.228 345.818 149.02C345.593 146.936 346.545 144.208 356.33 140.01L356.425 140.086C348.924 149.5 347.593 149.516 346.761 149.777L346.761 149.777Z" fill="white"/>
<path d="M415.302 138.71C413.771 138.875 413.236 142.677 413.396 144.166C413.523 144.722 413.85 145.211 414.314 145.541C414.778 145.872 415.347 146.02 415.914 145.958C417.87 145.746 418.393 142.635 418.232 141.147C418.163 140.437 417.816 139.783 417.268 139.327C416.719 138.87 416.013 138.649 415.302 138.71Z" fill="white"/>
<path d="M425.599 116.173C425.526 115.493 424.274 115.457 423.835 115.375C423.231 115.266 422.621 115.202 422.008 115.186C420.902 115.305 420.662 116.664 420.372 117.557L415.856 131.897C415.375 133.125 415.08 134.419 414.981 135.734C415.092 136.755 416.802 137.861 417.78 137.755C418.631 137.663 419.064 136.497 418.981 135.731C418.943 135.478 418.843 135.238 418.69 135.031L424.697 119.368C425.157 118.354 425.461 117.277 425.599 116.173V116.173Z" fill="white"/>
</g>
<defs>
<clipPath id="clip0_5425_442181">
<rect width="425.605" height="183.814" fill="white"/>
</clipPath>
</defs>
</svg>
