<svg xmlns="http://www.w3.org/2000/svg" viewBox="0 0 421.53 184.37"><defs><style>.cls-1{fill:#ff7600;}.cls-2{fill:#fff;}.cls-3{opacity:0.7;}</style></defs><g id="圖層_2" data-name="圖層 2"><g id="圖層_1-2" data-name="圖層 1"><path id="Path_46" data-name="Path 46" class="cls-1" d="M309.15,78.11a53,53,0,0,1-11.43-1.22,28.42,28.42,0,0,1-9.7-4,17.45,17.45,0,0,1-6.12-6.56A19,19,0,0,1,280,57.69a22.1,22.1,0,0,1,.7-5.49,18.79,18.79,0,0,1,2.14-5,15.65,15.65,0,0,1,3.27-3.94,18.25,18.25,0,0,1,3.65-2.49,44.23,44.23,0,0,1,5.17-2.07.66.66,0,0,0,.41-.57.64.64,0,0,0-.34-.61,32.63,32.63,0,0,1-4.51-2.61,17.54,17.54,0,0,1-2.74-2.57A14.44,14.44,0,0,1,285.56,29a14.6,14.6,0,0,1-1.23-3.75,20.57,20.57,0,0,1-.36-3.92,19.63,19.63,0,0,1,2.27-9.49,18.48,18.48,0,0,1,6.75-7,29.63,29.63,0,0,1,9.67-3.82,54.94,54.94,0,0,1,10.93-1,42.39,42.39,0,0,1,10.52,1.29,24,24,0,0,1,8.6,4,17,17,0,0,1,5.21,6.19,19.42,19.42,0,0,1,1.65,8.37,22.21,22.21,0,0,1-.45,4.52,15.18,15.18,0,0,1-1.35,3.94,15.92,15.92,0,0,1-2.28,3.32,18.81,18.81,0,0,1-2.85,2.65,39.43,39.43,0,0,1-5.12,3,.66.66,0,0,0-.33.63.63.63,0,0,0,.45.55,43.63,43.63,0,0,1,5.19,1.8,14.35,14.35,0,0,1,3.35,2.14,13.92,13.92,0,0,1,4.44,7.15,19.43,19.43,0,0,1,.51,4.43,22.55,22.55,0,0,1-2.55,10.4,21.18,21.18,0,0,1-7,7.95,30.15,30.15,0,0,1-10.33,4.36,54.6,54.6,0,0,1-12.15,1.36M311,44.93A11.21,11.21,0,0,0,303,47.64a9.32,9.32,0,0,0-2.9,7.06,9.14,9.14,0,0,0,1.29,4.71,8.31,8.31,0,0,0,3.76,3.3,12.46,12.46,0,0,0,5.21,1.09,12,12,0,0,0,5.32-1.18,9.23,9.23,0,0,0,3.87-3.56A10.11,10.11,0,0,0,321,53.65a8.05,8.05,0,0,0-2.72-6.43A11,11,0,0,0,311,44.94m1.34-30.75a9.68,9.68,0,0,0-7.12,2.64,8.9,8.9,0,0,0-2.65,6.51,8.1,8.1,0,0,0,1.16,4.26A7.2,7.2,0,0,0,307,30.51a10.8,10.8,0,0,0,4.41.92,10,10,0,0,0,6.95-2.53,8.68,8.68,0,0,0,2.83-6.68,7.54,7.54,0,0,0-2.45-5.86,9.21,9.21,0,0,0-6.43-2.17"/><path id="Path_47" data-name="Path 47" class="cls-1" d="M377.93,78.11a52.69,52.69,0,0,1-11.42-1.22,28.58,28.58,0,0,1-9.71-4,17.53,17.53,0,0,1-6.11-6.57,18.88,18.88,0,0,1-1.91-8.61,21.56,21.56,0,0,1,.7-5.48,19.47,19.47,0,0,1,2.12-5,16.31,16.31,0,0,1,3.29-3.93,17.62,17.62,0,0,1,3.65-2.5,43.94,43.94,0,0,1,5.15-2.07.65.65,0,0,0,.08-1.18,31.94,31.94,0,0,1-4.5-2.61,16.28,16.28,0,0,1-2.74-2.57,15,15,0,0,1-3.42-7.08,22.34,22.34,0,0,1-.37-3.92A19.83,19.83,0,0,1,355,11.84a18.51,18.51,0,0,1,6.75-7,29.94,29.94,0,0,1,9.67-3.82,54.93,54.93,0,0,1,10.93-1A42.47,42.47,0,0,1,392.9,1.3a23.84,23.84,0,0,1,8.6,4,17.23,17.23,0,0,1,5.21,6.19,19.44,19.44,0,0,1,1.64,8.37,22.86,22.86,0,0,1-.44,4.52,15.4,15.4,0,0,1-1.36,3.95,16.68,16.68,0,0,1-2.27,3.32,20.59,20.59,0,0,1-2.87,2.65,38.6,38.6,0,0,1-5.11,3,.65.65,0,0,0,.11,1.19,45.27,45.27,0,0,1,5.18,1.79A14.33,14.33,0,0,1,405,42.46a13.78,13.78,0,0,1,4.43,7.14,18.39,18.39,0,0,1,.53,4.43,22.64,22.64,0,0,1-2.57,10.41,21.11,21.11,0,0,1-6.95,7.94,30.13,30.13,0,0,1-10.34,4.37,54.94,54.94,0,0,1-12.13,1.35m1.82-33.17a11.23,11.23,0,0,0-7.94,2.72,9.28,9.28,0,0,0-2.92,7.05,9.12,9.12,0,0,0,1.3,4.71,8.36,8.36,0,0,0,3.76,3.3,12.46,12.46,0,0,0,5.21,1.09,11.92,11.92,0,0,0,5.32-1.18,9.2,9.2,0,0,0,3.88-3.56,10.27,10.27,0,0,0,1.43-5.41,8,8,0,0,0-2.71-6.43,11,11,0,0,0-7.34-2.28m1.33-30.75a9.69,9.69,0,0,0-7.12,2.64,9,9,0,0,0-2.65,6.51,8.24,8.24,0,0,0,1.17,4.27,7.14,7.14,0,0,0,3.27,2.9,10.7,10.7,0,0,0,4.43.92,9.93,9.93,0,0,0,6.93-2.53,8.6,8.6,0,0,0,2.84-6.68,7.54,7.54,0,0,0-2.43-5.85,9.21,9.21,0,0,0-6.43-2.18"/><path class="cls-2" d="M136.94,24.19a28.18,28.18,0,0,0-10.16-6,38.4,38.4,0,0,0-12.61-2.1,39.7,39.7,0,0,0-13.52,2.35A29.4,29.4,0,0,0,89.8,25.11a26.84,26.84,0,0,0-6.39,9.73,32.53,32.53,0,0,0-2,11.42,31.84,31.84,0,0,0,2.07,11.42A24.86,24.86,0,0,0,89.63,67a27,27,0,0,0,10.26,5.92,41.24,41.24,0,0,0,12.9,2h0a41.2,41.2,0,0,0,13.83-2.32,25.78,25.78,0,0,0,10.66-6.91,27.67,27.67,0,0,0,5.95-9.91A35.84,35.84,0,0,0,145,44.59a32.36,32.36,0,0,0-2-11.28A24.26,24.26,0,0,0,136.94,24.19ZM123.3,52.47A12.13,12.13,0,0,1,119,58.32a10.93,10.93,0,0,1-6.4,2,10.16,10.16,0,0,1-7.84-3.48A14.32,14.32,0,0,1,101.66,47a22.15,22.15,0,0,1,1.42-8,11.92,11.92,0,0,1,4.27-5.7,11.19,11.19,0,0,1,6.46-2v0a10.31,10.31,0,0,1,6,1.78,10,10,0,0,1,3.74,4.77,18.37,18.37,0,0,1,1.12,6.52A23.28,23.28,0,0,1,123.3,52.47Z"/><path class="cls-2" d="M201.58,17.62c-3.31,0-6.81-.05-10.5-.12l-8.37,24.24c-1.47,4.24-2.31,6.55-2.51,7.06l-1.39,4.49c-.09.26-.33.1-.59.1h0c-.27,0-.5.14-.57-.14-2.13-8.81-4.11-16.2-5.89-22.64-1.68-6-2.84-10.4-3.49-13.06q-4.62.11-9.83.1c-3.26,0-6.77,0-10.51-.09l12.54,38L166,73.46c4.19-.07,8-.11,11.36-.11,3.11,0,6.7,0,10.75.11l2.79-7.13,13.78-33.06,7-15.72C208.18,17.61,204.81,17.62,201.58,17.62Z"/><path class="cls-2" d="M265.84,22.16a16.31,16.31,0,0,0-7.92-4.61,42.31,42.31,0,0,0-11.42-1.47,121.22,121.22,0,0,0-26,3.42l-.8,6.14c-.16,1.26-.53,3.47-1.08,6.56a63,63,0,0,1,22-5.07A9.58,9.58,0,0,1,246,28.38a4.37,4.37,0,0,1,2,3.82,4.63,4.63,0,0,1-1.33,3.28,6.16,6.16,0,0,1-1.78,1.25,23.42,23.42,0,0,1-3.43,1.15c-1.56.44-3.28.84-5.15,1.22a88.29,88.29,0,0,0-11,2.83,29.8,29.8,0,0,0-6.74,3.15,18.58,18.58,0,0,0-4.26,4,17,17,0,0,0-2.67,4.75,15.35,15.35,0,0,0-.85,4.94,17.37,17.37,0,0,0,2.3,8.3,13.53,13.53,0,0,0,6.52,6,27.16,27.16,0,0,0,10.84,1.88h0a53.11,53.11,0,0,0,8.25-.71c1.19-4.6,2.27-8.31,3.19-11a15.48,15.48,0,0,1-5,.81,7.2,7.2,0,0,1-5-1.51,4.94,4.94,0,0,1-1.66-3.72,5.74,5.74,0,0,1,.59-2.54,6.76,6.76,0,0,1,1.88-2.17,10.94,10.94,0,0,1,3-1.66c1.1-.42,2.62-.92,4.56-1.53s3.24-1,4-1.33,1.8-.77,3.14-1.43a.46.46,0,0,1,.26-.07.55.55,0,0,1,.33.11.64.64,0,0,1,.27.56c-.55,12.07-1.07,20.4-1.53,24.75,3.52-.06,6.87-.1,10-.1s6.56.05,9.87.1c.27-11.52.69-21,1.22-28.19s.79-12,.79-14.07A13.19,13.19,0,0,0,265.84,22.16Z"/><path class="cls-2" d="M57,2c0,4.27-.23,11.44-.61,21.31-.4,10.75-.81,19.27-1.19,25.33A1.27,1.27,0,0,1,54,49.79a1.19,1.19,0,0,1-1-.66l-3-6.1L28.21,2c-5,.06-8.83.1-11.62.1-3.83,0-6.53,0-12.9-.1V9.2L3,24.62.91,62.9,0,72.81q6.74-.07,9.33-.08,3,0,8.6.08l.49-20.24,1.11-25.45A1.26,1.26,0,0,1,20.72,26a1.17,1.17,0,0,1,1.07.67c1.67,3.43,3.3,6.63,4.89,9.53,2.45,4.66,5.11,9.49,7.88,14.35l8.68,15.33q1.21,2.22,3.65,7h0q8.07-.1,12.73-.1,5.34,0,11.41.09l.28-11.65,2.33-44.5L74.77,2q-7.22.1-8.83.1C63.64,2.11,60.64,2.08,57,2Z"/><path class="cls-2" d="M3.09,98.83H22.76v4.79H8.91v23.43c0,1.48.62,2.22,1.88,2.22H21.22v4.45H7.71q-4.78.17-4.62-4.79Zm6.5,6.33h5.47a33.15,33.15,0,0,0,1.2,8.55,37.56,37.56,0,0,0,1.37-8.55h5.13q-.51,9.41-3.59,14.7A23.14,23.14,0,0,0,22.76,124v5a35.52,35.52,0,0,1-6.5-5.3,36.9,36.9,0,0,1-6.67,5.3v-5A39.46,39.46,0,0,0,13.35,120Q10.11,114.57,9.59,105.16Zm22.23,21.55q-2.73,6.15-10.09,9.91v-5.13a20.49,20.49,0,0,0,5.3-8.55q1.38-4.09,1.37-12V109.6a30.9,30.9,0,0,1-5.81,4.62v-5q2.73-3.93,3.42-12h6.5a3,3,0,0,1-.17.68,21.68,21.68,0,0,0-.17,2.4h9.74v11.11H36.1v-6.32H30.8a12.37,12.37,0,0,1-1.88,3.59h6.15v2.39q-.51,13.17,6.84,20v5.13A23.63,23.63,0,0,1,31.82,126.71Z"/><path class="cls-2" d="M102.18,98.66v5H92.26v26.51h10.43v4.78H63.87v-4.78H74.3V103.62H64.39v-5Zm-37.79,8.89h6.49A80.37,80.37,0,0,0,73.62,124H68Q65.74,118.15,64.39,107.55Zm17.1-3.93v26.51h3.59V103.62ZM102,107.55q-1.37,10.61-3.59,16.42H92.77a79.69,79.69,0,0,0,2.74-16.42Z"/><path class="cls-2" d="M128.07,136.28V113.19c-.45.12-1.25.35-2.39.69a5.4,5.4,0,0,0-1.2.34V110q4.78-3.09,6.67-12.83h7.18a40.45,40.45,0,0,1-3.42,9.92v29.24Zm35.57-3.76a33.43,33.43,0,0,1-5.81-6.67v3.08h-4.62v7.35h-7v-7.35h-4.79V126a24.42,24.42,0,0,1-5.47,6.5v-5.47q3.76-7.53,3.42-19.84H137v-4.79h9.23v-5.3h7v5.3h9.58v4.79h-2.74q-.35,12.32,3.59,19.84Zm-18.29-25.31q-.18,11.46-3.08,17.27h3.93V107.21Zm11.8,17.27q-3.09-5.3-2.91-17.27h-1v17.27Z"/><path class="cls-2" d="M186.12,104.13V99.34h15.22V97.12h8.89v2.22h15.05v4.79H205.1a35.77,35.77,0,0,1-4.28,2.74l-1,.51h8c1.82-.11,3.64-.28,5.47-.51-.46-.57-1-1.2-1.54-1.88h6.5a31.76,31.76,0,0,1,5,7.52H216a4.36,4.36,0,0,0-.17-1c.12.23.06.12-.17-.34q-5.47.51-16.41.86h-8.9v-4.62a7,7,0,0,0,.86-.51,38.14,38.14,0,0,0,4.61-2.74ZM213,132c1.14.11,1.65-.46,1.54-1.71V130H197.23v6.16h-7.35V113.37H222v17.27c.11,3.76-1.65,5.58-5.3,5.47H211.6V132Zm1.54-14.2H197.23v2h17.28ZM197.23,124v1.88h17.28V124Z"/><g class="cls-3"><path class="cls-2" d="M185.68,155.54q-1.91,1.13-5.28,3.36l-.5,0q2.4-7.74,3.18-10a9.12,9.12,0,0,0-.35-4.6,21.89,21.89,0,0,0-4.74,1.28c-.41-1.43-1.89-2.49-4.42-3.16a11.93,11.93,0,0,0,0,2q-9.8,7.48-13.25,10.59l-.15.61q1.74-.18,7.71-3.19l.24,0q-.31,1.29-3.36,9.59l1.75,2-.2.83q-1.35.14-14.89,5.12c-.34,1.4,0,2.37,1,2.92l1-.1q2.69-2.21,15.38-6.19l.27,0-.15.61q-16.9,11.33-17.38,13.24l-.16.63q4.46-.45,17-9.58,3.51-2.76,4.69-2.88l.48,0c-1,3.25-1.63,5.67-2,7.24l-1.27,5.17-4.56.46c-.29,1.18,1.62,2.12,5.73,2.84a8.07,8.07,0,0,0,2.39-.66q3.25-12.21,4-15.08a14.74,14.74,0,0,0,.24-4c.45-.05,1.64-.84,3.57-2.38q5.73-2.25,6.42-5.08C188.23,156.22,187.46,155.69,185.68,155.54Zm-9.48,4.4q-.58,2.4-7.17,3.94l-.24,0,.26-1c.5-2,3-3.41,7.46-4.16Zm2.19-8.87-1,.1c-2.74.36-4.18.84-4.33,1.44l-.1.41.75-.07,1.23.08,0,.2-.49,1.05,3.5-1.16-.76,3.09-5.3,1.35-.24,0a5.73,5.73,0,0,0-1.83-5.64l.11-.43,7.29-4.55a2,2,0,0,0,2,1Z"/><path class="cls-2" d="M231.38,145.18l-.22-.49a72.46,72.46,0,0,0,11-2.37q11.45-2.82,11.6-3.69c.16-.69-.19-1-1-.91l0-.24.93-.1.11-.52-2.85.29-.71.33,0-.26q-16,3.9-18,4.84.07-.44-.57-.45l-1.56.15a.89.89,0,0,0-.77.59,14.69,14.69,0,0,1-3.42.09c1.08,1.4,1.78,2.08,2.08,2.05a37.53,37.53,0,0,0-4.31,9.24q-5.31,14.21-10.78,20c-.17.86-1.53,1.41-4.07,1.67l0,.26,1.26-.13-.44.53.08,1.25,1.88-.19q3-.3,7.42-6,7.57-11.44,8-13.64Q230.4,147,231.38,145.18Z"/><path class="cls-2" d="M251.08,151.42a47.52,47.52,0,0,0-5.42,1.09l-.33,0a47.74,47.74,0,0,0,1.47-5.46l.1-.82-.39-1.83-.64.06-2-.06a5.29,5.29,0,0,1-1.77.74c-.11.85-.07,1.37.11,1.56a27.05,27.05,0,0,1-3.47,8.1q-9,4.09-10.41,4.23c0,.19.43.76,1.38,1.73a27.43,27.43,0,0,0,6.45-1.44l.33,0q-8,14.13-13,14.63l0,.27c.43,0,.81.36,1.14,1.22a10.69,10.69,0,0,0,4.5-1.79q10.94-9.19,13-14.9.35-2.46,8.8-4.36c0,.17.1.24.32.22l-.41.58-.16,1.07.1,1.61q-3.27,6.7-7.16,13.23c-.22,0-.33-.06-.31-.24l-.7.34-.34,0,.1-.79-.31,0-.69.32a1.44,1.44,0,0,0-.19-1,.36.36,0,0,0,.37-.33c-1.33.13-2.22-1.28-2.65-4.26l-.7.34c0,.19.06.27.28.25l-1.16,1.44c.07.9.21,1.33.44,1.31q.47,6.84,5.63,6.32,3.4-.35,6.47-6.25,6-9.84,6.57-13.7C256.14,152.24,254.36,151.08,251.08,151.42Z"/><path class="cls-2" d="M307.29,162.17l-1.26.12-.19.77v1.25a.38.38,0,0,0-.38.29c-.38,1.53,1.33,3.37,5.13,5.5l.32,0,.12-.5c.43,0,.61.1.52.44.32,0,.72-.4,1.19-1.1Q313.79,164.65,307.29,162.17Z"/><path class="cls-2" d="M318.78,154.45l-4.13.42q-3,.3-8.38,1.34l.64-1.32.32-1.29a13.7,13.7,0,0,0,.44-3.06l2.1-6a1.84,1.84,0,0,1,0-1.25l1.4-5.67.44-.54a46.51,46.51,0,0,0,5.2.22c.45-.54.83-.83,1.13-.86.43-1.73.12-2.54-.92-2.44l-.35,0a14.64,14.64,0,0,0-4.23.94l-.19-.49.63-2.58q.33-4-2.79-3.73l-1.58.16-2.29.48-.25,1c1.47,0,2.3,0,2.48,0-.3,2-.56,3.45-.78,4.36l-.39,1.54-3.19.56-.65.07q.29-1.8-1.79-4.07c-.22,0-.34.11-.38.27a2.33,2.33,0,0,1-.88-.15c-.64.07-1,.27-1.09.6a1.43,1.43,0,0,0,.07,1l-.45.56.19.49-.32,0a13.45,13.45,0,0,1-.06,1.52l-.06.24c-.26,1-2.39,1.77-6.39,2.18l-1.61.16-.55-.2a.41.41,0,0,1-.39.3l.45.69-.93.1c0,.39.63.75,1.88,1.06l.7-.32c0,.17.05.25.26.22L293,141l.71-.33-.07.26,2.3-.48,1.55-.16-.38,1.55-.74,1.84c.19,0,.27.06.23.23l-1.76,4.69c.22,0,.3.05.26.23q-.17.68-2.62,6.81l.2.47a.39.39,0,0,0-.39.29l-.19.79c1.05-.11,1.5.18,1.33.86l.35,0q2.83-.28,3.73-3.89.22-.93,4.74-1.73l-.13.5-.06,1.52a2.71,2.71,0,0,0-.51.79v1.28a.38.38,0,0,0-.38.27l.2.49q-5.59,2.07-22.77,5.81a1.54,1.54,0,0,0-1.08-1.89l-.32,0c-.5.05-.94.59-1.32,1.64l-.13.5c-.46,1.91,1.31,2.66,5.33,2.25a13.51,13.51,0,0,1,2.59-.52l1.58-.16a76.19,76.19,0,0,1,8.62-2.38l.32,0-.45.53a25.31,25.31,0,0,1-6.15,6.17l.2.5c-.22,0-.35.11-.39.29l-.12.5,2.54-.26q2.85-.28,7.35-4.76c.41-1.66.18-2.81-.69-3.46l.06-.24.32,0a22.4,22.4,0,0,0,2.93-.55q.24,0,1.11,1.65l.19-.79.65-.06-.32,1.29a3.67,3.67,0,0,0,1.33-.39A2.6,2.6,0,0,0,304,163c.63-.07,1.13-.87,1.51-2.41.25-1,2.08-1.72,5.47-2.06,0,.17,0,.25.26.23l3.46-.35,1.67-.43c0,.18,0,.25.23.23,1.93-.36,3.12-.57,3.58-.61l.32,0,.45-1.81C321,155.51,320.29,155.08,318.78,154.45Zm-15.48-5a17,17,0,0,0-3.93.91c0-.18-.05-.25-.26-.23l.77-1.84c.1-.44,1.46-.91,4.06-1.41Zm1.72-5.7-2.29.48-1.9.2c.8-2.43,1.29-4,1.46-4.68.08-.29,1.41-.68,4-1.17Z"/><path class="cls-2" d="M393.75,130.79l.07-.28.45-.53a4.89,4.89,0,0,0-2.36-.51,72.68,72.68,0,0,0-11,2.11l-.32,0a5.44,5.44,0,0,0,1.9-2.71c.23-1-.67-1.45-2.72-1.48a.4.4,0,0,1-.39.29,14.18,14.18,0,0,1-.59-2.71c-1-1-3-2.05-6-3.17l-1.59.16a3.39,3.39,0,0,0-1.57,1.41v1.28q4.06,1.92,4.05,2.33l-.07.28a60.82,60.82,0,0,0-5.77,2.08q-6.44,1.1-7,3.49c-.08.34.08.48.5.44l.7-.32c.15.66.39,1,.71.94l.3,0a20.54,20.54,0,0,0,3.93-.91l.19.49-.12.5-.64,1.34c.21,0,.3,0,.25.23l-.05.24q-11.08,3.44-14.58,5.26c-5.2,1.15-8,1.93-8.32,2.35l-.32,1.29a6.06,6.06,0,0,0,2.2,1l7.62-2q29.52-10.29,37.67-11.12a10.77,10.77,0,0,0,2.48,0l1.09-.62C394.51,131.13,394.29,130.74,393.75,130.79Zm-15.22-2.22a51.48,51.48,0,0,1-7.81,5.3c0-.15.31-.84.82-2.08.23-.91,2.58-2.07,7.06-3.5Z"/><path class="cls-2" d="M387.16,145l-.62.06q-.56,2.26-1.1,5.64-1.11,3.33-2.62,6.82-.15.6-11.9,3.22a7.42,7.42,0,0,1-2.36-.53,74.29,74.29,0,0,1,2.62-8.07,21.14,21.14,0,0,1-.45-4.46l.2-.78q6.54-3.68,8.17-5.6c.51-2.06-1-3.09-4.5-3.07q-4.61.47-10.92,4.1l-.29,0c.1-.39-.25-.68-1-.87l-1.26.13c-.5,0-.95.6-1.35,1.64q1.47,7.64,4.39,7.34l1.77-.92q-2,2.88-14.39,12l-.12.5c0,.35.42.64,1.3.87l.67-.06a36.07,36.07,0,0,0,12.28-8.54l.32,0-.07.26a30.92,30.92,0,0,1-2.2,5.24q-.17,4.8,9.27,3.85a78.48,78.48,0,0,0,7.59-2l-.07.27c4.72-.69,7.25-1.7,7.57-3l-.32,0c.07-.29.32-.49.74-.59Q389.68,144.77,387.16,145Zm-21.46,1.68-.67-2.19.07-.26c.19,0,.27.06.23.23a24.72,24.72,0,0,1,8.38-2.61l.32,0A27.05,27.05,0,0,1,365.7,146.71Z"/><path class="cls-2" d="M416.12,122.28a135.73,135.73,0,0,1-4.9,21.46c-.06,1.37-.09,2.08-.08,2.14,0,1.72-.05,2.9,0,3.55a2.58,2.58,0,0,0,.38,1.11.49.49,0,0,0,.53.31,1.24,1.24,0,0,0,.73-.44,6.81,6.81,0,0,0,.81-1,47.91,47.91,0,0,0,3.09-5.87l.19-.33,4.7-19.11C420.6,122.69,418.79,122.09,416.12,122.28Z"/><path class="cls-2" d="M411.63,153.23a3.48,3.48,0,0,0-1.85.72,2.86,2.86,0,0,0-1,1.5,1.36,1.36,0,0,0,.29,1.4,1.87,1.87,0,0,0,1.55.37,3.61,3.61,0,0,0,1.88-.72,2.68,2.68,0,0,0,1-1.5,1.31,1.31,0,0,0-.32-1.38A1.86,1.86,0,0,0,411.63,153.23Z"/><path class="cls-2" d="M201.63,158.22a2.43,2.43,0,0,0-2.44.09,2.89,2.89,0,0,0-1.49,2.12,1.62,1.62,0,0,0,.78,1.94,2.53,2.53,0,0,0,2.46-.29,3,3,0,0,0,1.66-2A1.58,1.58,0,0,0,201.63,158.22Z"/><path class="cls-2" d="M271.37,150a3.12,3.12,0,0,0-2.82-.2,1.75,1.75,0,0,0-1.37,1.81,2.76,2.76,0,0,0,1.66,2.14,3.25,3.25,0,0,0,2.82.41,1.74,1.74,0,0,0,1.16-1.93A2.64,2.64,0,0,0,271.37,150Z"/><path class="cls-2" d="M332.34,146.24a2.45,2.45,0,0,0-2.11.72,1.38,1.38,0,0,0-.44,1.74,2.17,2.17,0,0,0,1.86,1.05,2.59,2.59,0,0,0,2.19-.57,1.38,1.38,0,0,0,.25-1.77A2.09,2.09,0,0,0,332.34,146.24Z"/></g></g></g></svg>