<svg xmlns="http://www.w3.org/2000/svg" viewBox="0 0 416.72 184.55"><defs><style>.cls-1{fill:#ff7600;}.cls-2,.cls-4{fill:#fff;}.cls-3,.cls-4{opacity:0.7;}</style></defs><g id="圖層_2" data-name="圖層 2"><g id="圖層_1-2" data-name="圖層 1"><path id="Path_46" data-name="Path 46" class="cls-1" d="M309.15,78.11a53,53,0,0,1-11.43-1.22,28.42,28.42,0,0,1-9.7-4,17.45,17.45,0,0,1-6.12-6.56A19,19,0,0,1,280,57.69a22.1,22.1,0,0,1,.7-5.49,18.79,18.79,0,0,1,2.14-5,15.65,15.65,0,0,1,3.27-3.94,18.25,18.25,0,0,1,3.65-2.49,44.23,44.23,0,0,1,5.17-2.07.66.66,0,0,0,.41-.57.64.64,0,0,0-.34-.61,32.63,32.63,0,0,1-4.51-2.61,17.54,17.54,0,0,1-2.74-2.57A14.44,14.44,0,0,1,285.56,29a14.6,14.6,0,0,1-1.23-3.75,20.57,20.57,0,0,1-.36-3.92,19.63,19.63,0,0,1,2.27-9.49,18.48,18.48,0,0,1,6.75-7,29.63,29.63,0,0,1,9.67-3.82,54.94,54.94,0,0,1,10.93-1,42.39,42.39,0,0,1,10.52,1.29,24,24,0,0,1,8.6,4,17,17,0,0,1,5.21,6.19,19.42,19.42,0,0,1,1.65,8.37,22.21,22.21,0,0,1-.45,4.52,15.18,15.18,0,0,1-1.35,3.94,15.92,15.92,0,0,1-2.28,3.32,18.81,18.81,0,0,1-2.85,2.65,39.43,39.43,0,0,1-5.12,3,.66.66,0,0,0-.33.63.63.63,0,0,0,.45.55,43.63,43.63,0,0,1,5.19,1.8,14.35,14.35,0,0,1,3.35,2.14,13.92,13.92,0,0,1,4.44,7.15,19.43,19.43,0,0,1,.51,4.43,22.55,22.55,0,0,1-2.55,10.4,21.18,21.18,0,0,1-7,7.95,30.15,30.15,0,0,1-10.33,4.36,54.6,54.6,0,0,1-12.15,1.36M311,44.93A11.21,11.21,0,0,0,303,47.64a9.32,9.32,0,0,0-2.9,7.06,9.14,9.14,0,0,0,1.29,4.71,8.31,8.31,0,0,0,3.76,3.3,12.46,12.46,0,0,0,5.21,1.09,12,12,0,0,0,5.32-1.18,9.23,9.23,0,0,0,3.87-3.56A10.11,10.11,0,0,0,321,53.65a8.05,8.05,0,0,0-2.72-6.43A11,11,0,0,0,311,44.94m1.34-30.75a9.68,9.68,0,0,0-7.12,2.64,8.9,8.9,0,0,0-2.65,6.51,8.1,8.1,0,0,0,1.16,4.26A7.2,7.2,0,0,0,307,30.51a10.8,10.8,0,0,0,4.41.92,10,10,0,0,0,6.95-2.53,8.68,8.68,0,0,0,2.83-6.68,7.54,7.54,0,0,0-2.45-5.86,9.21,9.21,0,0,0-6.43-2.17"/><path id="Path_47" data-name="Path 47" class="cls-1" d="M377.93,78.11a52.69,52.69,0,0,1-11.42-1.22,28.58,28.58,0,0,1-9.71-4,17.53,17.53,0,0,1-6.11-6.57,18.88,18.88,0,0,1-1.91-8.61,21.56,21.56,0,0,1,.7-5.48,19.47,19.47,0,0,1,2.12-5,16.31,16.31,0,0,1,3.29-3.93,17.62,17.62,0,0,1,3.65-2.5,43.94,43.94,0,0,1,5.15-2.07.65.65,0,0,0,.08-1.18,31.94,31.94,0,0,1-4.5-2.61,16.28,16.28,0,0,1-2.74-2.57,15,15,0,0,1-3.42-7.08,22.34,22.34,0,0,1-.37-3.92A19.83,19.83,0,0,1,355,11.84a18.51,18.51,0,0,1,6.75-7,29.94,29.94,0,0,1,9.67-3.82,54.93,54.93,0,0,1,10.93-1A42.47,42.47,0,0,1,392.9,1.3a23.84,23.84,0,0,1,8.6,4,17.23,17.23,0,0,1,5.21,6.19,19.44,19.44,0,0,1,1.64,8.37,22.86,22.86,0,0,1-.44,4.52,15.4,15.4,0,0,1-1.36,3.95,16.68,16.68,0,0,1-2.27,3.32,20.59,20.59,0,0,1-2.87,2.65,38.6,38.6,0,0,1-5.11,3,.65.65,0,0,0,.11,1.19,45.27,45.27,0,0,1,5.18,1.79A14.33,14.33,0,0,1,405,42.46a13.78,13.78,0,0,1,4.43,7.14,18.39,18.39,0,0,1,.53,4.43,22.64,22.64,0,0,1-2.57,10.41,21.11,21.11,0,0,1-6.95,7.94,30.13,30.13,0,0,1-10.34,4.37,54.94,54.94,0,0,1-12.13,1.35m1.82-33.17a11.23,11.23,0,0,0-7.94,2.72,9.28,9.28,0,0,0-2.92,7.05,9.12,9.12,0,0,0,1.3,4.71,8.36,8.36,0,0,0,3.76,3.3,12.46,12.46,0,0,0,5.21,1.09,11.92,11.92,0,0,0,5.32-1.18,9.2,9.2,0,0,0,3.88-3.56,10.27,10.27,0,0,0,1.43-5.41,8,8,0,0,0-2.71-6.43,11,11,0,0,0-7.34-2.28m1.33-30.75a9.69,9.69,0,0,0-7.12,2.64,9,9,0,0,0-2.65,6.51,8.24,8.24,0,0,0,1.17,4.27,7.14,7.14,0,0,0,3.27,2.9,10.7,10.7,0,0,0,4.43.92,9.93,9.93,0,0,0,6.93-2.53,8.6,8.6,0,0,0,2.84-6.68,7.54,7.54,0,0,0-2.43-5.85,9.21,9.21,0,0,0-6.43-2.18"/><path class="cls-2" d="M136.94,24.19a28.18,28.18,0,0,0-10.16-6,38.4,38.4,0,0,0-12.61-2.1,39.7,39.7,0,0,0-13.52,2.35A29.4,29.4,0,0,0,89.8,25.11a26.84,26.84,0,0,0-6.39,9.73,32.53,32.53,0,0,0-2,11.42,31.84,31.84,0,0,0,2.07,11.42A24.86,24.86,0,0,0,89.63,67a27,27,0,0,0,10.26,5.92,41.24,41.24,0,0,0,12.9,2h0a41.2,41.2,0,0,0,13.83-2.32,25.78,25.78,0,0,0,10.66-6.91,27.67,27.67,0,0,0,5.95-9.91A35.84,35.84,0,0,0,145,44.59a32.36,32.36,0,0,0-2-11.28A24.26,24.26,0,0,0,136.94,24.19ZM123.3,52.47A12.13,12.13,0,0,1,119,58.32a10.93,10.93,0,0,1-6.4,2,10.16,10.16,0,0,1-7.84-3.48A14.32,14.32,0,0,1,101.66,47a22.15,22.15,0,0,1,1.42-8,11.92,11.92,0,0,1,4.27-5.7,11.19,11.19,0,0,1,6.46-2v0a10.31,10.31,0,0,1,6,1.78,10,10,0,0,1,3.74,4.77,18.37,18.37,0,0,1,1.12,6.52A23.28,23.28,0,0,1,123.3,52.47Z"/><path class="cls-2" d="M201.58,17.62c-3.31,0-6.81-.05-10.5-.12l-8.37,24.24c-1.47,4.24-2.31,6.55-2.51,7.06l-1.39,4.49c-.09.26-.33.1-.59.1h0c-.27,0-.5.14-.57-.14-2.13-8.81-4.11-16.2-5.89-22.64-1.68-6-2.84-10.4-3.49-13.06q-4.62.11-9.83.1c-3.26,0-6.77,0-10.51-.09l12.54,38L166,73.46c4.19-.07,8-.11,11.36-.11,3.11,0,6.7,0,10.75.11l2.79-7.13,13.78-33.06,7-15.72C208.18,17.61,204.81,17.62,201.58,17.62Z"/><path class="cls-2" d="M265.84,22.16a16.31,16.31,0,0,0-7.92-4.61,42.31,42.31,0,0,0-11.42-1.47,121.22,121.22,0,0,0-26,3.42l-.8,6.14c-.16,1.26-.53,3.47-1.08,6.56a63,63,0,0,1,22-5.07A9.58,9.58,0,0,1,246,28.38a4.37,4.37,0,0,1,2,3.82,4.63,4.63,0,0,1-1.33,3.28,6.16,6.16,0,0,1-1.78,1.25,23.42,23.42,0,0,1-3.43,1.15c-1.56.44-3.28.84-5.15,1.22a88.29,88.29,0,0,0-11,2.83,29.8,29.8,0,0,0-6.74,3.15,18.58,18.58,0,0,0-4.26,4,17,17,0,0,0-2.67,4.75,15.35,15.35,0,0,0-.85,4.94,17.37,17.37,0,0,0,2.3,8.3,13.53,13.53,0,0,0,6.52,6,27.16,27.16,0,0,0,10.84,1.88h0a53.11,53.11,0,0,0,8.25-.71c1.19-4.6,2.27-8.31,3.19-11a15.48,15.48,0,0,1-5,.81,7.2,7.2,0,0,1-5-1.51,4.94,4.94,0,0,1-1.66-3.72,5.74,5.74,0,0,1,.59-2.54,6.76,6.76,0,0,1,1.88-2.17,10.94,10.94,0,0,1,3-1.66c1.1-.42,2.62-.92,4.56-1.53s3.24-1,4-1.33,1.8-.77,3.14-1.43a.46.46,0,0,1,.26-.07.55.55,0,0,1,.33.11.64.64,0,0,1,.27.56c-.55,12.07-1.07,20.4-1.53,24.75,3.52-.06,6.87-.1,10-.1s6.56.05,9.87.1c.27-11.52.69-21,1.22-28.19s.79-12,.79-14.07A13.19,13.19,0,0,0,265.84,22.16Z"/><path class="cls-2" d="M57,2c0,4.27-.23,11.44-.61,21.31-.4,10.75-.81,19.27-1.19,25.33A1.27,1.27,0,0,1,54,49.79a1.19,1.19,0,0,1-1-.66l-3-6.1L28.21,2c-5,.06-8.83.1-11.62.1-3.83,0-6.53,0-12.9-.1V9.2L3,24.62.91,62.9,0,72.81q6.74-.07,9.33-.08,3,0,8.6.08l.49-20.24,1.11-25.45A1.26,1.26,0,0,1,20.72,26a1.17,1.17,0,0,1,1.07.67c1.67,3.43,3.3,6.63,4.89,9.53,2.45,4.66,5.11,9.49,7.88,14.35l8.68,15.33q1.21,2.22,3.65,7h0q8.07-.1,12.73-.1,5.34,0,11.41.09l.28-11.65,2.33-44.5L74.77,2q-7.22.1-8.83.1C63.64,2.11,60.64,2.08,57,2Z"/><path class="cls-2" d="M3.09,98.83H22.76v4.79H8.91v23.43c0,1.48.62,2.22,1.88,2.22H21.22v4.45H7.71q-4.78.17-4.62-4.79Zm6.5,6.33h5.47a33.15,33.15,0,0,0,1.2,8.55,37.56,37.56,0,0,0,1.37-8.55h5.13q-.51,9.41-3.59,14.7A23.14,23.14,0,0,0,22.76,124v5a35.52,35.52,0,0,1-6.5-5.3,36.56,36.56,0,0,1-6.67,5.3v-5A39.46,39.46,0,0,0,13.35,120Q10.11,114.57,9.59,105.16Zm22.23,21.55q-2.73,6.15-10.09,9.91v-5.13A20.62,20.62,0,0,0,27,122.94q1.37-4.09,1.36-12V109.6a30.9,30.9,0,0,1-5.81,4.62v-5q2.73-3.93,3.42-12h6.5a3,3,0,0,1-.17.68,21.68,21.68,0,0,0-.17,2.4h9.74v11.11H36.1v-6.32H30.8a12.37,12.37,0,0,1-1.88,3.59h6.15v2.39q-.51,13.17,6.84,20v5.13A23.63,23.63,0,0,1,31.82,126.71Z"/><path class="cls-2" d="M102.18,98.66v5H92.26v26.51h10.43v4.78H63.87v-4.78H74.31V103.62H64.39v-5Zm-37.79,8.89h6.49A80.37,80.37,0,0,0,73.62,124H68Q65.74,118.15,64.39,107.55Zm17.1-3.93v26.51h3.59V103.62ZM102,107.55q-1.37,10.61-3.59,16.42H92.77a79,79,0,0,0,2.74-16.42Z"/><path class="cls-2" d="M128.07,136.28V113.19c-.45.12-1.25.35-2.39.69a5.4,5.4,0,0,0-1.2.34V110q4.78-3.09,6.67-12.83h7.18a40.45,40.45,0,0,1-3.42,9.92v29.24Zm35.58-3.76a33.19,33.19,0,0,1-5.82-6.67v3.08h-4.62v7.35h-7v-7.35h-4.79V126a24.42,24.42,0,0,1-5.47,6.5v-5.47q3.76-7.53,3.42-19.84H137v-4.79h9.23v-5.3h7v5.3h9.58v4.79h-2.74q-.35,12.32,3.6,19.84Zm-18.3-25.31q-.18,11.46-3.08,17.27h3.93V107.21Zm11.8,17.27q-3.09-5.3-2.91-17.27h-1v17.27Z"/><path class="cls-2" d="M186.12,104.13V99.34h15.22V97.12h8.89v2.22h15.05v4.79H205.1a35.77,35.77,0,0,1-4.28,2.74l-1,.51h8c1.82-.11,3.64-.28,5.47-.51-.46-.57-1-1.2-1.54-1.88h6.5a31.76,31.76,0,0,1,5,7.52H216a4.36,4.36,0,0,0-.17-1c.12.23.06.12-.17-.34q-5.47.51-16.41.86h-8.9v-4.62a7,7,0,0,0,.86-.51,39.31,39.31,0,0,0,4.62-2.74ZM213,132c1.14.11,1.65-.46,1.54-1.71V130H197.23v6.16h-7.35V113.37H222v17.27c.11,3.76-1.65,5.58-5.3,5.47H211.6V132Zm1.54-14.2H197.23v2h17.28ZM197.23,124v1.88h17.28V124Z"/><g class="cls-3"><path class="cls-2" d="M87.6,167l4-6.16c2.77-4.25,3-5.09,2.83-6.45,0-.47-.27-1-.83-.9-.89.09-2.42,2.67-2.85,3.4l-6.66,10.49-6.46,1.47,4.25-5.62c1.5-2,3.78-4.84,3.49-7.48-.22-2.08-1.51-4.05-5-3.67A47.54,47.54,0,0,0,68,155.57c-2.34,1-9.19,4.13-10.53,6a10.23,10.23,0,0,0-.94,4.83c.08.77.51,1.93,1.49,1.82a4,4,0,0,0,1.63-.78,30.78,30.78,0,0,1,5.54-3.26c.5-.23,1-.54,1-1.14-.05-.38-.36-.48-.67-.57,6.66-3.65,11.85-5.8,14.1-6,.51-.06,1.51,0,1.59.77s-1,2.47-1.46,3.13c-3.29,4.65-6,8.3-7.44,10-6.33,1.93-6.34,2.23-6.8,2.28s-.72-.22-1-.19c-1.15.13-2.14,2.51-2,3.49.16,1.45,1.58,1.85,4.53,1.28-.47,1.21-3.17,4.47-3,5.66a2.15,2.15,0,0,0,2.28,1.6c1-.11,1.77-1.91,2.2-2.69l3.86-5.66L80,174.32a22.34,22.34,0,0,0-1.8,6.48c-.07,1.29.25,1.86,1,2,1.14.26,3.09-2.06,4.48-1.91a13.6,13.6,0,0,1-.74-2.5c-.14-1.27,1.22-3.44,1.73-4.62a14.08,14.08,0,0,1,4.37-.17,22.08,22.08,0,0,1,4.49-6.25C91.64,166.52,89.56,166.79,87.6,167Z"/><path class="cls-2" d="M96.4,161.14a15,15,0,0,1,3.63-.22,21.17,21.17,0,0,1,4.14.46,4.5,4.5,0,0,0,1.44.19c.29,0,.59-.11.55-.45a2.62,2.62,0,0,0-1.38-1.61,28.71,28.71,0,0,0-5.34-1.28l-2.59-.49a4.66,4.66,0,0,0-1.35-.11c-1.06.11-.79,1-.78,1.93C94.78,161.32,94.67,161.46,96.4,161.14Z"/><path class="cls-2" d="M130.77,169.09c-1.7,1.43-3.89,3.86-5.67,4-.68.07-1.35-.16-1.43-.88-.22-2,3.16-5.37,3-6.73a1.7,1.7,0,0,0-1.42-1.61c.37-.17,1.43-.72,1.38-1.23a2.64,2.64,0,0,0-3-1.74c-4.13.55-12.17,5.33-14.2,10-1,1-1.94,2.2-3.51,2.09.63-1.75,1.32-3.33,1.12-5.2-.14-1.28-.49-2.14-1.81-2.34.44-.31.93-.62.86-1.26-.13-1.15-1.58-1.42-2.51-1.28A14.51,14.51,0,0,0,96,167c-2.18,2.09-3.52,4.38-3.09,7.56.58,3.85,2.86,5.85,5.08,5.61a9.15,9.15,0,0,0,6.2-3.9,7.6,7.6,0,0,0,4.94-2.19c.62,2.08,3.07,4.25,4.17,4.13s3.46-2.61,4.2-3.34l3.58-3.57.09.08a14.27,14.27,0,0,0-1.06,4.93,2,2,0,0,0,2.29,2c2.08-.22,7.29-5.39,8.89-7.67ZM100.6,173a4.53,4.53,0,0,0,.73,1.9c-.89,1-1.69,1.91-3.1,2.06-1.06.11-1.91-.18-2-1.42a6.34,6.34,0,0,1,1.32-4.1,26.18,26.18,0,0,1,4.38-3.61C102.07,167.89,100.36,170.78,100.6,173Zm12.57,2c-.62.2-.88-.55-.94-.76-.23-2.08.73-4.81,10.51-9l.1.08C115.34,174.75,114,174.77,113.17,175Z"/></g><g class="cls-3"><path class="cls-2" d="M175.71,145.08c-1.37-.32-4.77,5.21-4,7.84-7.37,15-9.25,16.31-10.36,16.82-.9.4-1.34-1.32-1.37-2.35-.05-1.24,1-5.18,7.29-18.12.39-.78,1.36-2.56,1.27-3.41-.07-.6-1.68-3.22-3.21-3-3,.42-15.11,8.3-17.17,10.68a7.39,7.39,0,0,0-1.58,5.67c.05.51.37,2.24,1.18,2.16s3.09-2.06,6.87-3.24c.33-.12,1.85-.42,1.78-1.06s-1.4-.27-1.75-.24l-2.36.39-.1-.08c3-3.2,6.68-5.49,10.31-7.74l.09.08c-6.63,14.22-6.92,18-6.78,19.66.26,3.2,3.74,5.53,5.44,5.35,2.3-.25,5.65-6.29,6.81-8.22C177.37,150.88,177.65,145.52,175.71,145.08Z"/><path class="cls-2" d="M178.81,152.23a15.06,15.06,0,0,1,3.63-.22,21.08,21.08,0,0,1,4.14.46,4.5,4.5,0,0,0,1.44.19c.3,0,.59-.11.55-.45a2.62,2.62,0,0,0-1.38-1.61,28.34,28.34,0,0,0-5.34-1.28l-2.59-.49a4.66,4.66,0,0,0-1.35-.11c-1.06.11-.79,1-.78,1.93C177.19,152.41,177.08,152.55,178.81,152.23Z"/><path class="cls-2" d="M211.24,159.35c-1.21,1.12-2.23,2.87-4.13,2.73.63-1.75,1.31-3.33,1.11-5.2-.14-1.27-.49-2.14-1.8-2.34.44-.31.92-.62.86-1.25-.13-1.15-1.58-1.43-2.51-1.28a14.46,14.46,0,0,0-7.61,4c-1.94,1.86-3.21,3.88-3.17,6.54-1.63,1.45-3.62,3.53-5.27,3.71-.68.08-1.35-.15-1.43-.88-.22-2,3.16-5.37,3-6.73a1.7,1.7,0,0,0-1.42-1.61c.37-.17,1.43-.72,1.37-1.23a2.62,2.62,0,0,0-3-1.74c-4.92.66-15.39,7.3-14.64,12.6.32,2.2,3.09,4.74,4.28,4.61,1-.11,3.46-2.61,4.2-3.34l3.57-3.56.1.07a14.27,14.27,0,0,0-1.06,4.93,2,2,0,0,0,2.28,2c1.87-.2,6.23-4.36,8.28-6.87.79,3.2,2.85,4.85,4.86,4.63a9.15,9.15,0,0,0,6.21-3.9,7.86,7.86,0,0,0,6.51-4.19Zm-34.45,8.8c-.63.2-.88-.55-.94-.76-.23-2.08.72-4.81,10.51-9l.09.07C179,167.88,177.62,167.89,176.79,168.15Zm25-6.1a4.69,4.69,0,0,0,.72,1.91c-.88,1-1.69,1.9-3.09,2-1.06.12-1.91-.18-2-1.41a6.19,6.19,0,0,1,1.32-4.1,25.76,25.76,0,0,1,4.38-3.62C203.24,157,201.53,159.84,201.77,162.05Z"/></g><path class="cls-4" d="M340,137.26c.26-.33,1.52-1.84,2-1.89s.67.23.53.93l.09.07c3.74-4,6-8.13,5.85-9.53-.08-.73-.58-1-1.24-.73s-5.57,1-13.89,13.16c-2.6,3.81-4.26,8.76-3.91,12,.33,3,2,4.64,5,4.31,5.36-.58,14-8.56,17.61-12.57.36,2.15-.25,2.82-1.7,4.53-7.43,8.89-14.21,12.2-18.21,12.64-4.72.51-8.44-2.06-9-7-.67-6.25,3.83-13.53,7.76-18.13,3.25-3.84,11.44-11.61,16.5-12.15,2.55-.28,4.36.9,4.77,3.57.92,5.71-8.87,17.78-14.14,19.16a2,2,0,0,1-2.6-1.78c-.14-1.27.87-2.67,1.68-3.54Z"/><path class="cls-4" d="M404.51,145.13c-.16-1.49.37-5.29,1.91-5.46a2.72,2.72,0,0,1,2.93,2.44c.16,1.49-.37,4.6-2.32,4.81A2.32,2.32,0,0,1,404.51,145.13Zm7-26.61c.29-.9.53-2.25,1.63-2.38a13.66,13.66,0,0,1,1.83.2c.44.08,1.69.11,1.76.79a10.9,10.9,0,0,1-.9,3.2l-6,15.66a1.46,1.46,0,0,1,.29.7c.09.77-.35,1.93-1.2,2s-2.68-1-2.8-2a13.3,13.3,0,0,1,.88-3.83Z"/><g class="cls-3"><path class="cls-2" d="M397.77,131.74c1.83-.19,3.18-2.45,3-4.15a1.34,1.34,0,0,0-1.54-1.16c-1.66.17-3.54,1.92-3.35,3.67A1.72,1.72,0,0,0,397.77,131.74Z"/><path class="cls-2" d="M400.68,139.9c-1.57,1.42-3.54,3.91-5.79,4.16-2,.21-2.7-.66-2.55-2.44,1.66-1.42,5.46-5.66,5.23-7.79-.1-.94-1.28-1.07-2-1-2,.22-5.29,3.66-6.41,7.62l-.12-.33c-1.21,1.12-2.23,2.86-4.14,2.73.63-1.75,1.32-3.33,1.12-5.2a2.68,2.68,0,0,0-.8-1.93,3.4,3.4,0,0,0,1.24-.71,27.76,27.76,0,0,0,3-4.6l1.34-2.28a4.74,4.74,0,0,0,.56-1.23c.24-1-.71-1.09-1.56-1.38-1.68-.53-1.78-.69-2.06,1a14.56,14.56,0,0,1-1,3.49A22.4,22.4,0,0,1,385,133.7c-.36-.84-1.59-1-2.41-.92a14.48,14.48,0,0,0-7.61,4c-2,1.91-3.27,4-3.16,6.76-1.33,1.13-3.68,3.19-4.92,3.32a.89.89,0,0,1-1-.79c-.05-.43-.19-.54,2.11-4,.44-.66,1.94-2.71,1.85-3.52a2.24,2.24,0,0,0-2.26-1.82c-2.34.25-9.34,7.9-11.25,9.78l-.18-1.66c2.44-3,14.44-18.47,14.13-21.36-.09-.85-1.27-1-1.95-.95-1.45.16-9.11,8.51-13.23,17.35-1.23,2.58-2.11,4.74-1.79,7.68.1,1,.67,4.27,2.16,4.11s3-4.89,9.74-10.65l.09.08c-1.31,2.16-3.9,5.71-3.61,8.39a2.05,2.05,0,0,0,2.2,2c2.12-.23,6.15-4.11,8.24-6.11.81,3.13,2.85,4.74,4.84,4.53,2.68-.29,4.61-1.88,6.2-3.9a7.59,7.59,0,0,0,5.63-2.95,7.69,7.69,0,0,0,0,.83c.23,2.17,1.69,4.94,4.2,4.66,3.23-.34,6.56-4.58,8.22-7.12Zm-21.11,2.93a4.65,4.65,0,0,0,.72,1.9c-.88,1-1.69,1.91-3.09,2.06-1.06.11-1.91-.18-2.05-1.42a6.34,6.34,0,0,1,1.32-4.1,26.25,26.25,0,0,1,4.39-3.61C381,137.72,379.33,140.62,379.57,142.83Z"/></g><g class="cls-3"><path class="cls-2" d="M244.68,145.89c-.47.05-1.72,1.56-2,1.89l-2.85,3.1c-.81.87-1.82,2.26-1.68,3.54a2,2,0,0,0,2.6,1.78c5.27-1.38,15.07-13.46,14.15-19.16-.42-2.67-2.23-3.85-4.78-3.57-5.06.54-13.25,8.31-16.49,12.15-3.94,4.6-8.44,11.88-7.77,18.13.53,4.89,4.25,7.46,9,6.95,4-.44,10.78-3.75,18.21-12.64,1.45-1.71,2.07-2.38,1.7-4.53-3.65,4-12.25,12-17.61,12.57-3.06.33-4.7-1.3-5-4.32-.35-3.23,1.3-8.18,3.9-12,8.32-12.17,13.15-12.86,13.9-13.16s1.16,0,1.24.73c.15,1.4-2.12,5.52-5.86,9.53l-.09-.07C245.35,146.11,245.1,145.84,244.68,145.89Z"/><path class="cls-2" d="M308.81,148.89c-2.26,2.18-5.64,5.56-8.87,5.91-2.21.24-3.38-1-3.48-2-.13-1.19.56-1.91,1.43-2.69l3.28-3.07c.13.8.67,1.82,1.65,1.72,1.14-.13,4.15-3.76,3.9-6.1a1.71,1.71,0,0,0-2.13-1.75c-2.38.25-6.21,3-8,4.64s-3,3-3.29,5.05l-.06-.17c-1.21,1.12-2.22,2.87-4.13,2.73.63-1.75,1.32-3.33,1.11-5.2-.13-1.27-.49-2.14-1.8-2.34.44-.31.92-.62.86-1.25-.13-1.15-1.58-1.42-2.51-1.28a14.53,14.53,0,0,0-7.61,4,8.76,8.76,0,0,0-3.16,6.22c-1.48,1.45-4,3.86-5.42,4-.68.08-1.09-.14-1.16-.82-.21-1.91,2.45-5.6,3.68-7,.61-.67,1.66-1.77,1.46-2.78-.41-2.19-.89-2.27-1.23-2.23-1.06.11-4.79,4.6-5.6,5.51L264,154.3c-1.81,2-4,3.49-4.78,3.57-.3,0-.38-.39-.41-.6-.19-1.79.73-2.83,2-3.91a14.92,14.92,0,0,0,2.9-3.41,5.8,5.8,0,0,0,1.46-2.44c0-1.29-2.1-.68-2.7-.61a3.19,3.19,0,0,0-1.82.67c-2.52,2.08-5.25,6.67-4.81,10.8.2,1.83,1.61,4.08,3.69,3.86,2.34-.25,4.77-4.39,6.27-6l.1.07a10.17,10.17,0,0,0-.51,3.67,2.61,2.61,0,0,0,2.82,2.54c2.71-.3,6.05-4.35,8.16-6.94.78,3.28,2.86,5,4.89,4.75a9.15,9.15,0,0,0,6.21-3.9,7.65,7.65,0,0,0,6-3.37c.34,3.14,2.25,6,5.51,5.66,4-.44,8.35-5.16,10.65-8.21Zm-25,4.29a4.69,4.69,0,0,0,.72,1.91c-.88,1-1.68,1.9-3.09,2-1.06.12-1.91-.18-2-1.41a6.19,6.19,0,0,1,1.32-4.1,26.24,26.24,0,0,1,4.38-3.62C285.27,148.08,283.56,151,283.8,153.18Z"/><path class="cls-2" d="M284.8,165.21a1.63,1.63,0,0,0-.73-1.37,2,2,0,0,0-1.61-.25,2.85,2.85,0,0,0-1.57,1,2.53,2.53,0,0,0-.6,1.69,1.63,1.63,0,0,0,.73,1.35,1.91,1.91,0,0,0,1.61.26,2.78,2.78,0,0,0,1.57-1A2.5,2.5,0,0,0,284.8,165.21Z"/><path class="cls-2" d="M280.31,140.1A37.71,37.71,0,0,0,285,137l1.64-1.14.79,1.14a13.21,13.21,0,0,0,2.46,3.06,1.74,1.74,0,0,0,1.69-.08.61.61,0,0,0,.22-.71,2.22,2.22,0,0,0-.54-.93,11.45,11.45,0,0,1-1.46-2.73,9.87,9.87,0,0,1-.78-2.82c-.15-1.17-1.53-1.17-2.54,0a24.31,24.31,0,0,1-2.83,2.82,32.72,32.72,0,0,1-3.45,2.73,6.29,6.29,0,0,0-1.21.93c-.23.24-.44.5-.29.71C279,140.4,279.78,140.31,280.31,140.1Z"/></g></g></g></svg>