<svg width="421" height="187" viewBox="0 0 421 187" fill="none" xmlns="http://www.w3.org/2000/svg">
<g clip-path="url(#clip0_5425_442082)">
<path d="M340.618 49.5979C339.914 46.8151 338.364 44.3191 336.183 42.4533C335.17 41.5839 334.04 40.8619 332.826 40.3088C331.136 39.6005 329.403 38.9997 327.637 38.51C327.516 38.4724 327.408 38.3997 327.328 38.3011C327.248 38.2024 327.199 38.0822 327.187 37.9556C327.179 37.8302 327.206 37.7049 327.265 37.5939C327.324 37.483 327.413 37.3908 327.522 37.3278C329.301 36.4469 331.011 35.4329 332.637 34.2944C333.677 33.5086 334.634 32.6183 335.493 31.6374C336.39 30.6327 337.156 29.5187 337.773 28.3217C338.399 27.0742 338.853 25.7475 339.122 24.3779C339.423 22.8905 339.574 21.3768 339.572 19.8593C339.646 16.9821 339.082 14.1243 337.92 11.4911C336.705 9.03878 334.919 6.9147 332.711 5.29839C330.141 3.40164 327.217 2.03942 324.112 1.29229C320.672 0.424228 317.137 -0.00972411 313.589 0.00055957C309.92 -0.0140673 306.258 0.338106 302.658 1.05183C299.236 1.74452 295.964 3.0371 292.993 4.86983C290.16 6.54588 287.826 8.94947 286.235 11.8313C284.696 14.7557 283.916 18.0194 283.965 21.3236C283.961 22.6364 284.084 23.9466 284.332 25.2359C284.818 27.8608 285.995 30.3088 287.742 32.3278C288.559 33.2828 289.478 34.1457 290.482 34.9013C291.911 35.8916 293.419 36.7627 294.991 37.5058C295.1 37.5655 295.19 37.6555 295.249 37.7649C295.308 37.8744 295.335 37.9986 295.325 38.1228C295.319 38.2464 295.278 38.3656 295.205 38.4659C295.133 38.5662 295.033 38.6432 294.917 38.6877C293.155 39.2748 291.43 39.9663 289.75 40.7587C288.436 41.4389 287.21 42.2766 286.099 43.2533C284.804 44.38 283.698 45.708 282.825 47.1864C281.878 48.7479 281.16 50.4369 280.691 52.2021C280.228 53.9944 279.993 55.8379 279.99 57.6891C279.94 60.6712 280.596 63.6229 281.905 66.3031C283.337 68.9858 285.447 71.2468 288.024 72.8617C290.98 74.7919 294.268 76.1589 297.721 76.894C301.477 77.7119 305.31 78.1204 309.154 78.1123L309.143 78.1021C313.23 78.1027 317.303 77.6466 321.288 76.7424C324.975 75.9463 328.48 74.4666 331.622 72.3801C334.575 70.3598 336.968 67.6249 338.579 64.4304C340.253 61.2203 341.129 57.6535 341.131 54.0328C341.133 52.5396 340.961 51.0512 340.618 49.5979V49.5979ZM319.572 59.0644C318.652 60.5986 317.308 61.8339 315.702 62.6211C314.041 63.4174 312.219 63.8218 310.377 63.8031C308.583 63.8161 306.807 63.445 305.168 62.7148C303.606 62.0259 302.295 60.8715 301.413 59.4093C300.559 57.9879 300.111 56.3602 300.116 54.7023C300.075 53.3868 300.312 52.0775 300.814 50.8605C301.315 49.6436 302.068 48.5466 303.024 47.6418C305.216 45.7387 308.065 44.7665 310.963 44.9324V44.943C313.602 44.7957 316.205 45.6033 318.296 47.2182C319.204 48.0162 319.919 49.0086 320.39 50.1215C320.861 51.2344 321.075 52.4391 321.016 53.646C321.051 55.5516 320.551 57.4289 319.572 59.0644V59.0644ZM318.338 28.8969C316.431 30.5967 313.946 31.5024 311.392 31.4281C309.872 31.4411 308.367 31.1291 306.978 30.5129C305.606 29.908 304.458 28.8895 303.693 27.5999C302.917 26.3168 302.515 24.8423 302.532 23.3427C302.509 22.1346 302.732 20.9344 303.187 19.8149C303.642 18.6955 304.319 17.6802 305.179 16.8307C306.127 15.9329 307.246 15.2361 308.47 14.7823C309.695 14.3285 310.998 14.1269 312.302 14.1898H312.292C314.634 14.0728 316.933 14.8485 318.725 16.3603C319.532 17.1025 320.17 18.011 320.592 19.0232C321.015 20.0353 321.213 21.1271 321.173 22.2233C321.209 23.4742 320.975 24.7183 320.486 25.8702C319.996 27.0221 319.264 28.0546 318.338 28.8969V28.8969Z" fill="white"/>
<path d="M409.384 49.5978C409.043 48.2099 408.481 46.8857 407.721 45.6752C406.971 44.4644 406.036 43.379 404.949 42.4586C403.937 41.5875 402.806 40.8638 401.591 40.3088C399.902 39.6109 398.173 39.0121 396.413 38.5153C396.292 38.4776 396.185 38.405 396.105 38.3067C396.025 38.2083 395.976 38.0886 395.964 37.9625C395.952 37.8363 395.977 37.7093 396.036 37.5974C396.096 37.4855 396.187 37.3937 396.298 37.3333C398.076 36.4525 399.786 35.4401 401.413 34.3046C402.45 33.5106 403.409 32.6212 404.28 31.6481C405.17 30.6404 405.932 29.5266 406.549 28.332C407.177 27.0806 407.635 25.7508 407.909 24.3779C408.208 22.8903 408.355 21.3764 408.348 19.8593C408.43 16.9825 407.869 14.1238 406.706 11.4911C405.491 9.04118 403.704 6.91914 401.497 5.30364C398.931 3.4024 396.006 2.04124 392.899 1.30242C389.455 0.432178 385.917 -0.00358391 382.365 0.00530054C378.699 -0.00998087 375.041 0.340593 371.445 1.05181C368.022 1.75089 364.747 3.04301 361.769 4.86981C358.943 6.55389 356.615 8.95774 355.022 11.8359C353.485 14.7596 352.701 18.0206 352.742 21.3236C352.748 22.6377 352.871 23.9487 353.108 25.2413C353.599 27.862 354.78 30.3046 356.528 32.3176C357.343 33.275 358.262 34.138 359.269 34.8906C360.695 35.8809 362.199 36.7537 363.767 37.5004C363.878 37.5602 363.97 37.6506 364.031 37.7609C364.092 37.8712 364.12 37.9968 364.112 38.1227C364.103 38.2463 364.059 38.3647 363.985 38.4639C363.911 38.5631 363.81 38.6389 363.694 38.6823C361.934 39.2635 360.211 39.9535 358.537 40.7485C357.223 41.4302 355.997 42.2697 354.886 43.2485C353.59 44.3773 352.482 45.7048 351.602 47.1812C350.662 48.7454 349.947 50.434 349.478 52.1973C349.01 53.9885 348.775 55.8325 348.777 57.6838C348.726 60.6643 349.382 63.6144 350.692 66.2924C352.123 68.9737 354.229 71.236 356.8 72.8564C359.76 74.7879 363.051 76.1566 366.507 76.894C370.26 77.713 374.09 78.1215 377.93 78.1124L377.92 78.1021C382.002 78.1046 386.072 77.6502 390.054 76.7473C393.742 75.9518 397.247 74.4704 400.388 72.3801C403.343 70.3646 405.737 67.6308 407.344 64.4356C409.017 61.2225 409.896 57.6553 409.907 54.0328C409.911 52.5389 409.735 51.0499 409.384 49.5978V49.5978ZM388.349 59.0644C387.428 60.6014 386.079 61.8372 384.468 62.621C382.812 63.4209 380.993 63.8255 379.154 63.803C377.36 63.8171 375.583 63.446 373.945 62.7148C372.381 62.0267 371.066 60.8746 370.179 59.4146C369.329 57.9897 368.881 56.3613 368.882 54.7022C368.841 53.3866 369.079 52.0772 369.583 50.8609C370.086 49.6445 370.842 48.5491 371.8 47.6472C373.995 45.7475 376.841 44.7741 379.74 44.9323L379.729 44.9431C382.371 44.7971 384.976 45.6045 387.072 47.2182C387.98 48.0169 388.694 49.0104 389.164 50.1243C389.633 51.2382 389.844 52.4437 389.782 53.6508C389.815 55.5533 389.319 57.4278 388.349 59.0644V59.0644ZM387.093 28.8969C385.192 30.6 382.71 31.5079 380.158 31.4334C378.635 31.4446 377.126 31.1308 375.734 30.5129C374.366 29.9099 373.222 28.895 372.459 27.61C371.685 26.3219 371.28 24.8456 371.288 23.3427C371.266 22.1338 371.49 20.933 371.947 19.8135C372.403 18.6939 373.083 17.6791 373.945 16.8307C374.891 15.9338 376.009 15.2375 377.231 14.7837C378.454 14.3298 379.755 14.1278 381.058 14.1898H381.068C383.411 14.0723 385.711 14.85 387.501 16.3652C388.308 17.1064 388.942 18.0146 389.361 19.0263C389.781 20.038 389.974 21.1291 389.928 22.2232C389.971 23.475 389.739 24.7209 389.249 25.8737C388.759 27.0265 388.024 28.0583 387.093 28.8969V28.8969Z" fill="white"/>
<path d="M126.611 72.6105C130.685 71.2303 134.349 68.8535 137.27 65.6962C139.928 62.8471 141.956 59.47 143.222 55.7851C144.404 52.1705 145.001 48.3904 144.99 44.5876C145.01 40.7418 144.344 36.9233 143.024 33.3112C141.717 29.8458 139.635 26.7256 136.936 24.1898C134.014 21.4891 130.552 19.4406 126.779 18.1802C122.724 16.7829 118.463 16.0741 114.174 16.083C109.564 16.0735 104.987 16.8663 100.649 18.426C96.5901 19.8361 92.888 22.1155 89.8016 25.1051C86.985 27.8431 84.8033 31.1657 83.4103 34.8385C82.0588 38.4944 81.3751 42.3634 81.3917 46.2611C81.3757 50.1634 82.0777 54.0354 83.4627 57.6837C84.7918 61.2033 86.9018 64.3756 89.634 66.9618C92.5722 69.6678 96.0731 71.6897 99.8852 72.8825C104.052 74.2435 108.41 74.9319 112.794 74.922L112.783 74.9326C117.491 74.9536 122.168 74.1682 126.611 72.6105V72.6105ZM112.616 60.309C111.134 60.3366 109.665 60.039 108.312 59.4371C106.958 58.8353 105.753 57.9438 104.781 56.8256C102.545 54.0392 101.433 50.5168 101.663 46.9516C101.639 44.2167 102.118 41.5006 103.076 38.9389C103.887 36.6479 105.38 34.6602 107.354 33.2431C109.252 31.9409 111.507 31.2593 113.808 31.292V31.308C115.959 31.2591 118.072 31.8805 119.854 33.0861C121.562 34.2543 122.866 35.9223 123.588 37.8613C124.356 39.9471 124.735 42.1558 124.708 44.3781C124.721 47.1393 124.243 49.8808 123.295 52.4743C122.501 54.8149 121.008 56.8556 119.017 58.3215C117.144 59.6376 114.905 60.3327 112.616 60.309V60.309Z" fill="white"/>
<path d="M165.995 73.4577C170.178 73.3898 173.965 73.355 177.354 73.3533C180.461 73.3533 184.049 73.3898 188.097 73.4577L190.89 66.3342L204.666 33.2695L211.654 17.5473C208.181 17.6105 204.812 17.6207 201.58 17.6207C198.275 17.6207 194.774 17.5789 191.078 17.4953L182.71 41.742C181.235 45.9783 180.398 48.2905 180.199 48.8029L178.808 53.2905C178.725 53.5518 178.484 53.3948 178.223 53.3948H178.202C177.93 53.3948 177.699 53.5256 177.626 53.2535C175.503 44.4407 173.516 37.0456 171.737 30.6124C170.063 24.6027 168.902 20.2148 168.254 17.5527C165.168 17.6207 161.891 17.6539 158.421 17.6523C155.157 17.6523 151.653 17.6208 147.909 17.5579L160.45 55.5286L165.995 73.4577Z" fill="white"/>
<path d="M257.919 17.5473C254.196 16.541 250.353 16.0484 246.497 16.0831C237.734 16.2781 229.018 17.425 220.503 19.5036L219.697 25.644C219.541 26.8989 219.174 29.1059 218.62 32.2026C225.578 29.2062 233.019 27.4876 240.587 27.1291C242.46 27.0108 244.326 27.4475 245.953 28.3845C246.588 28.7933 247.106 29.3601 247.456 30.0294C247.807 30.6988 247.977 31.4476 247.951 32.2026C247.959 33.4268 247.481 34.6043 246.622 35.4765C246.109 35.9961 245.507 36.4195 244.844 36.7265C243.732 37.2012 242.585 37.5877 241.413 37.8823C239.855 38.3166 238.128 38.7193 236.256 39.1011C232.534 39.8048 228.862 40.7499 225.263 41.9305C222.89 42.6936 220.623 43.7532 218.516 45.0839C216.897 46.1815 215.46 47.5265 214.258 49.0696C213.119 50.4983 212.218 52.102 211.591 53.8185C211.038 55.4065 210.752 57.0748 210.743 58.756C210.796 61.6745 211.588 64.532 213.045 67.0615C214.483 69.73 216.779 71.8359 219.561 73.0395C223.008 74.3974 226.696 75.038 230.399 74.922L230.409 74.9274C233.174 74.9102 235.934 74.6723 238.662 74.2161C239.855 69.6242 240.932 65.9106 241.852 63.1753C240.255 63.7168 238.58 63.9924 236.894 63.9911C235.094 64.1343 233.306 63.5968 231.884 62.485C231.356 62.0193 230.935 61.4459 230.648 60.8035C230.361 60.1612 230.215 59.4648 230.22 58.7613C230.22 57.8803 230.421 57.011 230.806 56.2189C231.271 55.369 231.913 54.6289 232.689 54.0487C233.594 53.3436 234.603 52.7842 235.681 52.3907C236.779 51.9723 238.296 51.4701 240.241 50.8632C242.145 50.2725 243.484 49.828 244.237 49.5297C245.001 49.2421 246.036 48.7611 247.375 48.1017C247.455 48.0569 247.545 48.0318 247.637 48.0285C247.758 48.0284 247.876 48.069 247.972 48.1437C248.061 48.205 248.132 48.2882 248.18 48.3853C248.228 48.4823 248.249 48.5899 248.244 48.6979C247.689 60.7743 247.166 69.1008 246.706 73.4523C250.231 73.3898 253.575 73.3568 256.737 73.3533C260.011 73.3533 263.296 73.395 266.612 73.4523C266.884 61.9301 267.302 52.4479 267.825 45.2617C268.359 37.9764 268.62 33.2484 268.62 31.1875C268.838 27.9382 267.847 24.7231 265.838 22.1605C263.694 19.897 260.946 18.296 257.919 17.5473V17.5473Z" fill="white"/>
<path d="M71.308 61.167L73.6404 16.6742L74.7704 2.00354C69.9584 2.07154 67.0192 2.09778 65.9415 2.09778C63.6403 2.10791 60.6384 2.07678 56.9564 2.01355C56.9249 6.28162 56.7262 13.4469 56.3497 23.3217C55.9523 34.0695 55.5441 42.5892 55.1569 48.6514C55.1311 48.9522 54.9971 49.2334 54.7798 49.4429C54.5624 49.6525 54.2765 49.7761 53.975 49.7909C53.7548 49.7887 53.5395 49.7255 53.353 49.6083C53.1666 49.491 53.0163 49.3244 52.9188 49.1269L49.9062 43.0337L28.2115 2.01359C23.2323 2.07159 19.3832 2.10795 16.5902 2.10795C12.7615 2.10795 10.0629 2.07158 3.69275 2.01359V9.19511L3.02332 24.6237L0.90991 62.898L0 72.8146C4.48743 72.7566 7.60461 72.7256 9.33069 72.7256C11.3599 72.7304 14.226 72.76 17.9292 72.8146L18.4208 52.5685L19.5294 27.1183C19.5531 26.8119 19.687 26.5245 19.9063 26.3091C20.1255 26.0938 20.4154 25.9652 20.7222 25.9471C20.9453 25.9454 21.1643 26.0075 21.3533 26.1262C21.5423 26.2448 21.6934 26.415 21.7889 26.6166C23.4627 30.0474 25.0945 33.2485 26.6841 36.1459C29.1322 40.8058 31.7891 45.6388 34.5607 50.5028L43.2428 65.8323C44.0482 67.3073 45.2718 69.6396 46.8937 72.8199V72.83C52.2701 72.7621 56.5135 72.7289 59.6237 72.7304C63.1803 72.7304 66.9809 72.7602 71.0253 72.8199L71.308 61.167Z" fill="white"/>
<path d="M32.3364 97.974C32.4212 97.754 32.4786 97.5244 32.5073 97.2904H26.0088C25.5518 102.651 24.4116 106.641 22.5884 109.261V114.221C24.7034 112.919 26.6554 111.369 28.4028 109.604V110.972C28.4028 116.217 27.9468 120.207 27.0347 122.943C25.9988 126.187 24.1776 129.124 21.7329 131.495V136.624C26.6338 134.116 29.9972 130.809 31.8232 126.705C34.1437 130.843 37.6611 134.181 41.9136 136.283V131.152C37.0098 126.593 34.7295 119.924 35.0728 111.143V108.748H28.916C29.7421 107.667 30.3782 106.452 30.7969 105.157H36.0986V111.485H41.9136V100.369H32.165C32.1802 99.5679 32.2374 98.7686 32.3364 97.974V97.974Z" fill="white"/>
<path d="M9.60119 128.922C12.0183 127.421 14.2529 125.644 16.2602 123.627C18.2076 125.647 20.3894 127.427 22.7592 128.929V123.969C21.4039 122.748 20.1984 121.37 19.1679 119.865C21.2201 116.332 22.4172 111.43 22.7592 105.157H17.6284C17.5066 108.051 17.0474 110.921 16.2602 113.708C15.4839 110.923 15.0815 108.048 15.0635 105.157H9.59081C9.93261 111.429 11.1867 116.389 13.353 120.036C12.1914 121.432 10.9343 122.746 9.59081 123.969V128.913C9.34073 128.676 9.14886 128.384 9.03019 128.06C8.91153 127.737 8.86927 127.39 8.90673 127.047V103.618H22.7593V98.8295H3.09179V128.929C2.97704 132.234 4.51626 133.83 7.70946 133.717H21.2202V129.271H10.7881C10.3646 129.291 9.94666 129.168 9.60119 128.922Z" fill="white"/>
<path d="M92.2617 103.618H102.181V98.6586H64.3852V103.618H74.3047V130.126H63.8726V134.914H102.694V130.126H92.2617V103.618ZM85.0786 130.126H81.4873V103.618H85.0786V130.126Z" fill="white"/>
<path d="M98.4184 123.969C99.8984 120.094 101.096 114.621 102.01 107.551H95.5107C95.1738 113.104 94.2567 118.607 92.7744 123.969H98.4184Z" fill="white"/>
<path d="M70.8843 107.551H64.3853C65.2969 114.622 66.4942 120.094 67.9771 123.969H73.6206C72.1369 118.607 71.2198 113.104 70.8843 107.551V107.551Z" fill="white"/>
<path d="M153.212 136.283V128.929H157.83V125.85C159.462 128.323 161.417 130.566 163.645 132.52V127.047C161.021 122.032 159.823 115.419 160.053 107.209H162.79V102.42H153.212V97.1196H146.201V102.42H136.966V107.209H139.36C139.587 115.418 138.447 122.031 135.939 127.047V132.52C138.129 130.69 139.981 128.491 141.412 126.022V128.929H146.201V136.283L153.212 136.283ZM153.212 107.209H154.239C154.124 115.191 155.093 120.948 157.146 124.482H153.212V107.209ZM142.267 124.482C144.205 120.608 145.231 114.85 145.346 107.209H146.201V124.482H142.267Z" fill="white"/>
<path d="M131.151 97.1196C129.895 103.618 127.672 107.893 124.481 109.946V114.221C124.866 114.061 125.267 113.946 125.678 113.879C126.817 113.538 127.615 113.309 128.073 113.195V136.283H134.914V107.039C136.474 103.893 137.624 100.559 138.334 97.1196H131.151Z" fill="white"/>
<path d="M214.506 130.297C214.618 131.553 214.105 132.123 212.967 132.007H211.599V136.112H216.729C220.377 136.224 222.144 134.4 222.031 130.639V113.366H189.879V136.112H197.233V129.955H214.506L214.506 130.297ZM197.233 117.813H214.506V119.865H197.233V117.813ZM197.233 125.85V123.969H214.506V125.85L197.233 125.85Z" fill="white"/>
<path d="M201.338 97.1196V99.3422H186.117V104.131H195.865C194.392 105.152 192.85 106.066 191.248 106.868C190.973 107.056 190.688 107.228 190.392 107.38V111.997H199.285C206.58 111.771 212.053 111.486 215.703 111.143C215.785 111.308 215.837 111.413 215.875 111.488C215.968 111.822 216.025 112.165 216.045 112.511H223.228C221.938 109.781 220.268 107.248 218.269 104.986H211.77C212.339 105.67 212.852 106.298 213.309 106.868C211.483 107.097 209.659 107.268 207.836 107.38H199.798C200.025 107.268 200.367 107.097 200.824 106.868C202.313 106.058 203.741 105.144 205.1 104.131H225.28V99.3422H210.23V97.1196H201.338Z" fill="white"/>
<path d="M186.526 157.049C185.22 157.836 183.385 159.021 181.069 160.573L180.955 160.614L180.044 160.705L180.149 160.349C181.751 154.881 182.83 151.313 183.355 149.744C183.574 148.222 183.445 146.671 182.978 145.206C181.347 145.491 179.748 145.938 178.206 146.539L177.959 146.628L177.882 146.377C177.46 145.004 176.016 143.956 173.587 143.261C173.58 143.537 173.589 144.065 173.651 145.07L173.66 145.202L173.555 145.283C166.8 150.524 162.156 154.286 159.75 156.466L159.701 156.678C162.375 155.853 164.954 154.747 167.396 153.379L167.483 153.353L168.087 153.291L168.009 153.631C167.798 154.549 166.703 157.845 164.662 163.706L166.543 165.854L166.273 167.034L166.095 167.052C165.175 167.145 159.953 168.953 150.572 172.428C150.398 172.913 150.399 173.444 150.574 173.929C150.749 174.414 151.088 174.822 151.533 175.083L152.46 174.99C154.43 173.395 159.748 171.244 168.71 168.416L169.39 168.341L169.142 169.426L169.06 169.482C154.458 179.376 151.151 182.509 150.949 183.394L150.876 183.714C154.052 183.195 159.885 179.805 168.228 173.631C170.729 171.636 172.381 170.619 173.273 170.528L174.148 170.44L174.05 170.791C173.097 174.237 172.421 176.822 172.043 178.473L170.774 183.139L165.968 183.625C165.971 183.782 166.021 183.934 166.111 184.062C166.486 184.626 167.795 185.448 171.894 186.165C172.687 186.065 173.462 185.851 174.195 185.529C175.441 180.556 176.376 177.075 177.061 174.527C177.535 172.762 177.878 171.488 178.071 170.642C178.318 169.249 178.375 167.828 178.242 166.419L178.227 166.179L178.467 166.155C178.705 166.131 179.49 165.778 182.08 163.681L182.145 163.643C186.074 162.096 188.288 160.342 188.726 158.431C188.759 158.321 188.766 158.204 188.748 158.09C188.73 157.977 188.686 157.868 188.621 157.774C188.428 157.511 187.908 157.174 186.526 157.049ZM176.727 161.527C176.31 163.344 173.783 164.772 169.001 165.894L168.367 165.962L168.7 164.51C169.221 162.234 171.852 160.727 176.744 159.905L177.112 159.842L176.727 161.527ZM178.844 152.275L177.586 152.403C173.819 152.901 173.286 153.501 173.232 153.736L173.209 153.836L173.659 153.79L175.306 153.905L175.192 154.398L174.905 155.037L178.485 153.843L177.599 157.714L171.847 159.18L171.209 159.246L171.287 158.908C171.503 157.859 171.434 156.771 171.086 155.758C170.738 154.745 170.125 153.844 169.31 153.149L169.211 153.051L169.372 152.352L169.459 152.296L177.32 147.344L177.456 147.54C177.645 147.871 177.927 148.138 178.267 148.31C178.607 148.481 178.99 148.549 179.368 148.505L179.714 148.47L178.844 152.275Z" fill="white"/>
<path d="M248.308 161.207L247.831 161.254L247.783 161.551C247.633 162.477 247.552 163.412 247.541 164.35C247.289 164.836 247.085 165.345 246.931 165.87L246.804 166.327L246.88 166.459C247.313 167.211 247.727 167.565 248.202 167.565C248.215 167.565 248.227 167.565 248.24 167.564C248.675 167.521 249.412 167.056 251.843 163.977L251.968 163.818L251.91 163.63C251.739 162.839 251.268 162.145 250.597 161.693C249.925 161.241 249.105 161.067 248.308 161.207V161.207Z" fill="white"/>
<path d="M239.675 143.997H239.672L239.136 144.051C238.392 144.227 237.741 144.676 237.311 145.308C236.694 145.431 235.49 145.993 232.502 148.568L232.405 148.651L232.209 149.472L232.717 149.421C233.83 149.257 234.929 149.013 236.007 148.694C238.01 148.119 239.932 147.296 241.729 146.243L241.864 146.157L241.957 145.763L241.896 145.643C241.728 145.181 241.428 144.779 241.033 144.487C240.638 144.194 240.166 144.024 239.675 143.997V143.997Z" fill="white"/>
<path d="M251.029 150.483C251.193 149.982 251.396 149.496 251.638 149.028C251.889 148.726 252.202 148.483 252.556 148.314C252.91 148.145 253.297 148.055 253.689 148.049L255.236 147.893C256.146 147.701 256.534 147.487 256.621 147.13L256.686 146.856C256.706 146.775 256.707 146.692 256.69 146.61C256.673 146.529 256.638 146.453 256.588 146.387C256.374 146.1 255.838 145.82 253.392 145.709L253.073 145.696L253.022 145.908C252.944 145.928 252.865 145.941 252.785 145.948L252.179 146.008C251.795 146.014 251.417 145.915 251.085 145.722L250.966 145.665L250.835 145.699C250.581 145.768 250.324 145.821 250.064 145.858L249.789 145.886L249.511 147.05C249.222 147.259 248.066 147.93 243.988 150.007L243.998 149.963C244.018 149.881 244.02 149.795 244.003 149.712C243.985 149.629 243.949 149.55 243.898 149.483C243.683 149.194 243.109 148.883 240.486 148.766L240.168 148.752L240.115 148.972C240.025 148.998 239.933 149.015 239.84 149.022L239.19 149.086C238.773 149.093 238.362 148.986 238.002 148.777L237.882 148.72L237.751 148.753C237.477 148.829 237.199 148.886 236.918 148.925L236.643 148.953L236.347 150.194C236.029 150.426 234.652 151.225 229.474 153.851C227.945 154.331 227.757 154.497 227.692 154.765L227.618 155.078L227.767 155.221C228.229 155.719 228.871 156.013 229.55 156.039H229.561L229.79 156.017C230.538 155.892 231.268 155.678 231.964 155.379C233.388 154.604 234.288 154.125 234.854 153.832C233.028 156.306 231.045 158.66 228.919 160.881L228.848 160.956L228.68 161.652L229.597 161.548C232.077 160.678 232.662 160.187 232.812 159.804C233.583 158.821 234.14 158.177 234.543 157.759L234.353 158.556C234.253 158.974 234.13 159.602 233.977 160.471L233.009 160.695L232.88 161.235C232.615 162.345 233.497 163.161 235.5 163.661L235.6 163.686L236.417 163.437L236.433 163.166C236.538 160.896 236.831 158.638 237.308 156.415C237.862 156.799 238.704 157.455 239.819 158.373C239.837 158.467 239.877 158.555 239.936 158.631C240.124 158.88 240.562 159.14 241.995 159.331L241.362 159.395L241.394 159.774C241.614 162.278 241.385 164.802 240.718 167.226C240.205 168.803 239.591 170.346 238.879 171.844C238.671 172.579 237.776 173.033 236.215 173.19L234.667 173.346L234.947 172.353C235.583 170.585 236.372 168.877 237.306 167.247C237.331 167.173 237.337 167.093 237.324 167.015C237.31 166.937 237.276 166.864 237.227 166.803C237.212 166.784 237.195 166.767 237.177 166.751C237.156 166.626 237.107 166.508 237.032 166.406C236.715 165.96 235.829 165.425 231.753 165.235L231.447 165.221L231.263 165.865L231.402 166.014C232.33 167.013 232.449 168.77 231.756 171.236L231.009 173.888C229.35 174.176 226.742 174.778 223.054 175.722L222.836 175.778L222.692 176.283L222.76 176.412C223.049 176.961 223.879 177.408 225.371 177.818L225.455 177.84L248.035 173.498C250.649 173.427 253.265 173.557 255.859 173.887L255.945 173.896L256.027 173.866C256.739 173.605 257.066 173.372 257.154 173.063L257.397 172.199L257.184 172.052C255.232 170.773 252.881 170.248 250.57 170.575C247.375 171.166 244.872 171.569 243.117 171.772L243.273 171.217C243.573 170.342 243.722 169.422 243.714 168.497C244.917 166.372 245.851 164.105 246.495 161.749L246.721 160.943L246.39 160.837C245.11 160.449 243.859 159.971 242.646 159.406C243.377 159.479 244.3 159.537 245.487 159.575L245.803 159.584L246.074 158.444L245.875 158.303C245.389 157.96 244.867 157.615 244.315 157.269C245.665 156.729 246.129 156.364 246.263 156.031C246.94 155.167 247.438 154.585 247.807 154.197L247.651 154.851C247.552 155.265 247.433 155.871 247.304 156.617L246.402 156.826L246.279 157.345C246.027 158.399 246.856 159.169 248.739 159.636L248.838 159.66L249.625 159.421L249.639 159.15C249.737 157.049 250.006 154.96 250.445 152.903C250.959 153.262 251.729 153.864 252.743 154.7C252.762 154.787 252.8 154.869 252.855 154.941C253.133 155.308 253.967 155.7 258.045 155.828L258.361 155.838L258.625 154.739L258.425 154.598C256.088 153.007 253.613 151.63 251.029 150.483ZM243.049 156.509C241.537 155.633 239.828 154.756 237.921 153.877C238.097 153.329 238.318 152.797 238.582 152.286C238.855 151.959 239.194 151.695 239.578 151.511C239.962 151.328 240.381 151.23 240.807 151.223L241.524 151.15C241.486 151.2 241.46 151.258 241.446 151.319L241.372 151.625L241.523 151.77C241.968 152.231 242.572 152.505 243.212 152.536L243.426 152.515C244.126 152.398 244.809 152.198 245.461 151.918C246.709 151.24 247.527 150.803 248.061 150.525C246.51 152.617 244.837 154.615 243.049 156.509V156.509Z" fill="white"/>
<path d="M252.631 141.267H252.629L252.13 141.317C251.433 141.48 250.822 141.898 250.418 142.49C249.836 142.608 248.707 143.142 245.934 145.533L245.838 145.616L245.644 146.423L246.154 146.371C247.192 146.218 248.218 145.991 249.224 145.693C251.091 145.157 252.884 144.389 254.559 143.406L254.695 143.32L254.786 142.933L254.724 142.814C254.565 142.379 254.282 142.001 253.91 141.726C253.538 141.451 253.093 141.291 252.631 141.267V141.267Z" fill="white"/>
<path d="M231.265 145.224L231.055 144.715C234.983 144.195 238.865 143.367 242.664 142.241C250.691 140.282 254.771 139 254.905 138.397C255.092 137.671 254.745 137.353 253.865 137.441L253.907 137.194L254.89 137.095L255.015 136.551L252.038 136.851L251.288 137.192L251.337 136.921C240.115 139.63 233.793 141.314 232.371 141.973C232.437 141.672 232.245 141.515 231.795 141.5L230.166 141.664C229.984 141.676 229.808 141.74 229.662 141.849C229.515 141.958 229.403 142.107 229.339 142.279C228.155 142.449 226.956 142.481 225.764 142.374C226.848 143.827 227.549 144.537 227.867 144.506C225.832 147.491 224.204 150.733 223.026 154.148C218.989 164.034 214.998 170.981 211.052 174.991C210.837 175.881 209.401 176.461 206.743 176.73L206.695 176.999L208.014 176.867L207.531 177.424L207.573 178.724L209.539 178.526C211.617 178.317 214.27 176.221 217.501 172.24C223.05 164.281 226.003 159.538 226.36 158.013C228.906 150.769 230.541 146.506 231.265 145.224Z" fill="white"/>
<path d="M309.921 161.35L308.878 161.455L308.75 162.056L308.815 163.51L308.582 163.535C308.435 163.549 308.425 163.598 308.417 163.636C308.116 165.06 309.881 166.846 313.66 168.945L313.728 168.938L313.836 168.426L314.018 168.408C314.141 168.38 314.27 168.383 314.392 168.415C314.515 168.448 314.628 168.509 314.722 168.594C314.76 168.637 314.79 168.686 314.812 168.739C315.097 168.497 315.339 168.209 315.526 167.885C316.082 165.136 314.248 162.997 309.921 161.35Z" fill="white"/>
<path d="M321.382 153.474L317.241 153.894C315.222 154.099 312.364 154.557 308.751 155.255L308.277 155.347L309.08 153.56L309.343 152.297C309.573 151.29 309.685 150.259 309.678 149.226L309.677 149.184L311.594 143.119C311.446 142.68 311.437 142.207 311.568 141.763L312.843 135.868L313.359 135.22L313.49 135.23C316.256 135.425 317.997 135.497 318.666 135.461C318.927 135.09 319.285 134.798 319.7 134.617C319.924 133.452 319.763 132.968 319.582 132.767C319.495 132.684 319.388 132.623 319.272 132.591C319.156 132.559 319.034 132.556 318.916 132.583L318.562 132.619C317.118 132.721 315.697 133.038 314.347 133.559L314.116 133.66L313.772 132.853L314.345 130.148C314.428 129.617 314.4 129.075 314.264 128.555C314.127 128.035 313.884 127.55 313.551 127.128C313.286 126.91 312.977 126.752 312.645 126.666C312.313 126.581 311.966 126.569 311.629 126.633L310.033 126.794L307.882 127.255L307.762 127.827C309.453 127.865 309.867 127.856 309.962 127.846L310.271 127.815L310.235 128.123C310.001 130.157 309.781 131.661 309.584 132.593L309.217 134.339L305.805 134.938L304.819 135.038L304.858 134.727C304.996 133.616 304.386 132.32 303.043 130.874C303.03 130.878 303.018 130.886 303.009 130.896C303 130.906 302.994 130.919 302.992 130.932L302.953 131.109L302.773 131.127C302.45 131.14 302.126 131.092 301.82 130.985C301.466 131.026 301.057 131.131 301 131.395C300.926 131.678 300.955 131.978 301.083 132.241L301.157 132.383L300.71 132.961L301.001 133.639L300.564 133.684C300.596 134.142 300.59 134.601 300.545 135.058L300.495 135.302C300.236 136.52 298.117 137.289 293.823 137.725L292.13 137.897L291.715 137.749C291.68 137.793 291.639 137.831 291.594 137.863L292.139 138.659L291.148 138.759C291.611 139.064 292.13 139.272 292.675 139.37L293.759 138.864L293.67 139.285L294.57 139.195L295.697 138.666L295.616 139.047L297.562 138.631L299.513 138.432L299.106 140.348L298.504 141.996C298.53 142.014 298.554 142.035 298.575 142.058C298.622 142.113 298.654 142.179 298.669 142.25C298.684 142.321 298.681 142.395 298.66 142.464L297.119 147.003C297.156 147.024 297.19 147.05 297.218 147.082C297.264 147.137 297.297 147.201 297.312 147.271C297.327 147.341 297.325 147.413 297.306 147.482C297.204 147.958 296.416 150.215 294.898 154.379L295.219 155.082L294.872 155.118C294.727 155.133 294.716 155.182 294.707 155.222L294.606 155.701C294.811 155.675 295.019 155.692 295.217 155.751C295.415 155.811 295.599 155.912 295.755 156.047C295.884 156.194 295.956 156.381 295.959 156.576L296.012 156.571C297.836 156.385 298.965 155.152 299.463 152.798C299.573 152.276 300.239 151.579 304.444 150.833L304.809 150.769L304.623 151.644L304.622 153.227L304.568 153.295C304.385 153.497 304.237 153.729 304.13 153.98L304.183 155.48L303.95 155.504C303.905 155.506 303.86 155.518 303.82 155.539L304.094 156.177L303.849 156.27C300.091 157.683 292.326 159.683 280.769 162.214L280.391 162.297L280.471 161.918C280.624 161.19 280.317 160.673 279.506 160.296L279.245 160.323C278.852 160.363 278.48 160.883 278.168 161.829L278.067 162.315C277.998 162.537 277.985 162.773 278.03 163.001C278.075 163.229 278.176 163.443 278.324 163.622C278.976 164.349 280.655 164.578 283.32 164.309C284.175 164.047 285.053 163.871 285.943 163.783L287.508 163.623C290.364 162.64 293.277 161.828 296.23 161.192L297.185 161.093L296.376 162.104C294.766 164.507 292.756 166.617 290.433 168.341L290.701 168.968L290.361 169.001C290.217 169.015 290.206 169.065 290.198 169.104L290.16 169.282L292.411 169.052C294.26 168.865 296.657 167.272 299.535 164.317C299.849 162.774 299.599 161.695 298.792 161.108L298.662 161.013L298.782 160.43L299.292 160.378C300.285 160.259 301.268 160.072 302.235 159.82C302.465 159.799 302.691 159.882 303.378 161.054L303.448 160.719L304.626 160.6L304.352 161.898C304.667 161.837 304.971 161.729 305.254 161.578L305.357 161.523L305.467 161.568C305.829 161.699 306.219 161.74 306.601 161.685C307.106 161.634 307.533 160.852 307.836 159.424C308.086 158.24 309.962 157.486 313.572 157.12L313.912 157.085L313.856 157.352L317.365 156.995L319.411 156.47L319.346 156.783C321.292 156.419 322.457 156.218 322.933 156.169L323.079 156.155L323.422 154.533C322.812 154.059 322.121 153.7 321.382 153.474V153.474ZM305.642 148.347L305.475 148.375C302.279 148.93 301.699 149.174 301.599 149.253L301.056 149.678L301.185 149.072L300.795 149.112L301.657 146.852C301.733 146.478 302.311 145.962 305.94 145.255L306.311 145.183L305.642 148.347ZM307.193 142.515L304.715 143.047L302.379 143.286L302.485 142.928C303.217 140.471 303.662 138.87 303.809 138.17L303.81 138.169C303.861 137.927 303.94 137.562 308.052 136.781L308.421 136.71L307.193 142.515Z" fill="white"/>
<path d="M411.431 149.266C410.611 149.269 409.814 149.54 409.162 150.037C408.658 150.43 408.302 150.981 408.151 151.601C408.072 151.84 408.06 152.096 408.117 152.342C408.175 152.587 408.299 152.811 408.476 152.991C408.701 153.162 408.96 153.283 409.236 153.348C409.511 153.412 409.797 153.417 410.075 153.364C410.781 153.304 411.455 153.041 412.016 152.609C412.529 152.228 412.887 151.674 413.024 151.049C413.103 150.812 413.111 150.557 413.048 150.315C412.985 150.073 412.854 149.854 412.67 149.685C412.328 149.387 411.883 149.236 411.431 149.266V149.266Z" fill="white"/>
<path d="M414.853 115.772C413.995 123.594 412.5 131.332 410.382 138.911C410.371 140.359 410.368 141.125 410.373 141.19C410.395 143.053 410.427 144.346 410.468 145.044C410.526 145.453 410.675 145.844 410.903 146.189C411.071 146.478 411.243 146.484 411.356 146.464C411.637 146.409 411.888 146.255 412.064 146.031C412.377 145.695 412.65 145.326 412.88 144.929C414.072 142.897 415.113 140.781 415.997 138.597L416.184 138.235L420.539 117.621C419.514 116.221 417.6 115.597 414.853 115.772Z" fill="white"/>
<path d="M202.634 158.219C202.255 158.018 201.829 157.92 201.401 157.935C200.972 157.951 200.555 158.08 200.192 158.309C199.794 158.522 199.452 158.825 199.193 159.193C198.934 159.562 198.764 159.986 198.698 160.432C198.578 160.795 198.59 161.188 198.733 161.543C198.876 161.897 199.14 162.189 199.478 162.367C199.879 162.535 200.317 162.596 200.749 162.545C201.181 162.494 201.592 162.333 201.943 162.076C202.356 161.887 202.72 161.607 203.008 161.256C203.296 160.905 203.5 160.493 203.605 160.052C203.688 159.681 203.635 159.292 203.457 158.956C203.279 158.62 202.987 158.359 202.634 158.219Z" fill="white"/>
<path d="M273.368 149.017C272.946 148.765 272.471 148.616 271.982 148.581C271.492 148.546 271.001 148.627 270.548 148.815C270.142 148.906 269.781 149.139 269.531 149.471C269.28 149.804 269.156 150.214 269.18 150.63C269.249 151.098 269.437 151.541 269.727 151.915C270.017 152.29 270.399 152.583 270.836 152.766C271.243 153.045 271.71 153.228 272.199 153.3C272.688 153.372 273.187 153.331 273.658 153.181C274.051 153.05 274.384 152.783 274.597 152.428C274.811 152.073 274.891 151.654 274.823 151.245C274.798 150.779 274.651 150.327 274.395 149.935C274.14 149.544 273.785 149.227 273.368 149.017V149.017Z" fill="white"/>
<path d="M329.344 143.236C328.959 143.183 328.567 143.221 328.2 143.346C327.832 143.472 327.499 143.681 327.227 143.959C326.96 144.15 326.769 144.431 326.689 144.75C326.609 145.069 326.645 145.407 326.791 145.702C326.985 146.022 327.259 146.286 327.585 146.47C327.912 146.653 328.28 146.749 328.655 146.748C329.038 146.826 329.434 146.815 329.812 146.716C330.191 146.618 330.542 146.434 330.839 146.18C331.084 145.963 331.245 145.666 331.291 145.342C331.337 145.017 331.266 144.687 331.09 144.411C330.928 144.078 330.682 143.795 330.375 143.588C330.068 143.382 329.712 143.26 329.344 143.236Z" fill="white"/>
<path d="M400.758 127.413L400.405 127.448L400.63 126.737L400.838 126.497C400.282 126.251 399.677 126.138 399.069 126.169C395.567 126.564 392.1 127.225 388.699 128.147L387.558 128.263L388.183 127.745C389.006 127.14 389.627 126.301 389.967 125.338C390 125.252 390.012 125.158 390.002 125.066C389.991 124.974 389.958 124.886 389.906 124.809C389.734 124.576 389.236 124.294 387.852 124.252C387.794 124.333 387.718 124.399 387.631 124.446C387.543 124.493 387.446 124.52 387.347 124.524L387.134 124.545L387.086 124.339C386.86 123.517 386.699 122.679 386.606 121.831C385.021 120.565 383.213 119.606 381.276 119.004L379.863 119.147C379.616 119.216 379.193 119.478 378.546 120.309L378.51 121.268C382.283 123.089 382.257 123.389 382.237 123.631L382.106 124.117L381.929 124.134C380.088 124.676 378.277 125.321 376.508 126.065C374.706 126.292 372.958 126.829 371.34 127.652C371.411 127.505 371.471 127.354 371.52 127.198C371.553 127.111 371.565 127.018 371.555 126.926C371.544 126.833 371.511 126.745 371.459 126.668C371.288 126.435 370.79 126.154 369.405 126.112C369.347 126.192 369.271 126.258 369.184 126.305C369.096 126.352 368.999 126.379 368.9 126.383L368.687 126.405L368.64 126.199C368.411 125.377 368.251 124.539 368.159 123.691C366.575 122.424 364.767 121.465 362.83 120.864L361.415 121.006C361.168 121.076 360.746 121.337 360.099 122.168L360.064 123.127C363.836 124.949 363.811 125.249 363.79 125.491L363.657 125.975L363.482 125.994C361.64 126.536 359.831 127.18 358.061 127.924C354.081 128.603 351.89 129.646 351.499 131.036C351.487 131.068 351.482 131.103 351.484 131.138C351.491 131.125 351.516 131.146 351.59 131.146C351.608 131.146 351.628 131.145 351.651 131.144L352.572 130.726L352.629 131.027C352.716 131.479 352.848 131.756 353 131.725L353.278 131.697C354.529 131.539 355.76 131.257 356.955 130.854L357.18 130.783L357.452 131.536L357.298 132.084L356.768 133.118C356.788 133.133 356.806 133.15 356.821 133.169C356.864 133.224 356.892 133.288 356.903 133.356C356.913 133.424 356.907 133.494 356.883 133.559L356.78 133.922L356.644 133.963C349.677 136.105 348.161 136.637 347.472 136.977L343.936 138.33C342.295 138.792 340.687 139.366 339.125 140.049L338.855 141.011C340.176 141.82 340.507 141.854 340.583 141.851L343.672 140.911C358.336 135.855 368.906 132.605 375.247 131.196L375.215 131.258C375.235 131.273 375.252 131.291 375.268 131.31C375.311 131.364 375.339 131.429 375.349 131.497C375.36 131.565 375.353 131.635 375.33 131.7L375.227 132.063L375.091 132.104C370.684 133.374 366.349 134.884 362.106 136.627C361.16 136.849 360.228 137.132 359.318 137.474C354.744 138.525 353.699 138.974 353.482 139.144L353.212 140.106C353.255 140.132 353.288 140.151 353.329 140.176L353.047 140.204L353.144 139.86C353.153 139.836 353.156 139.81 353.154 139.785C353.152 139.76 353.144 139.735 353.132 139.713C353.087 139.635 352.933 139.485 352.411 139.353L351.265 139.468C350.912 139.503 350.54 139.96 350.188 140.788C350.905 145.309 352.092 147.568 353.748 147.416L356.298 146.112L355.707 146.935C354.389 148.773 349.841 152.471 341.807 158.239L341.7 158.622C341.698 158.702 341.95 158.92 342.686 159.124L343.232 159.069C347.625 157.236 351.602 154.533 354.923 151.123L354.99 151.055L355.74 150.98L355.575 151.57C354.979 153.277 354.229 154.926 353.334 156.496C353.288 156.894 353.334 157.296 353.466 157.673C353.598 158.05 353.814 158.392 354.098 158.674C355.273 159.809 357.819 160.191 361.662 159.8C363.893 159.284 364.387 159.17 364.453 159.156C367.588 158.527 371.489 154.822 366.528 155.898C365.445 156.133 364.122 156.458 362.509 156.835C366.576 155.022 370.262 152.453 373.37 149.264L373.437 149.196L374.186 149.121L374.021 149.71C373.423 151.416 372.673 153.065 371.781 154.637C371.735 155.034 371.78 155.436 371.913 155.814C372.045 156.191 372.261 156.533 372.544 156.815C373.72 157.95 376.266 158.331 380.109 157.941C383.618 157.128 386.028 156.493 387.239 156.056L387.686 155.895L387.59 156.233C391.927 155.569 393.532 154.702 394.042 153.991L393.817 154.013L393.913 153.669C393.966 153.502 394.061 153.351 394.19 153.231C394.318 153.112 394.475 153.027 394.646 152.986C395.711 144.228 395.18 141.609 394.542 140.958C394.488 140.896 394.419 140.848 394.341 140.818C394.264 140.788 394.18 140.777 394.097 140.787L393.693 140.827C393.312 142.202 392.921 143.918 392.525 145.935C391.752 148.045 390.846 150.206 389.821 152.397C389.754 152.645 389.633 153.081 378.348 155.571L378.306 155.579L378.265 155.575C377.481 155.531 376.709 155.355 375.983 155.053L375.804 154.958L375.868 154.761C376.64 152.206 377.54 149.691 378.564 147.226C378.344 145.85 378.258 144.457 378.309 143.065L378.309 143.031L378.555 142.154L378.652 142.101C382.734 139.864 385.342 138.131 386.406 136.951C386.497 136.703 386.528 136.437 386.497 136.175C386.465 135.913 386.373 135.662 386.226 135.443C385.719 134.769 384.488 134.428 382.566 134.428H382.51C379.662 134.717 376.202 136.002 372.228 138.248L372.127 138.281L371.494 138.345L371.591 138C371.6 137.977 371.603 137.951 371.601 137.926C371.599 137.901 371.591 137.877 371.579 137.855C371.533 137.776 371.379 137.625 370.858 137.494L369.712 137.609C369.359 137.644 368.988 138.101 368.635 138.93C369.333 143.333 370.488 145.562 372.068 145.562C372.11 145.562 372.152 145.561 372.195 145.557L374.745 144.252L374.154 145.076C372.836 146.912 368.289 150.611 360.254 156.379L360.147 156.763C360.145 156.834 360.367 157.016 360.932 157.199C360.599 157.275 360.255 157.352 359.901 157.43L359.86 157.439L359.819 157.434C359.034 157.391 358.263 157.214 357.537 156.912L357.358 156.818L357.422 156.62C358.194 154.065 359.093 151.55 360.117 149.085C359.898 147.71 359.812 146.316 359.862 144.924L359.862 144.89L360.109 144.013L360.205 143.96C364.287 141.723 366.896 139.991 367.959 138.81C368.05 138.562 368.081 138.296 368.05 138.035C368.019 137.773 367.926 137.522 367.779 137.302C367.739 137.254 367.696 137.209 367.65 137.166C383.138 131.943 393.325 129.055 397.92 128.591C398.675 128.686 399.438 128.695 400.195 128.62L401.082 128.126C401.136 127.67 401.047 127.516 401.003 127.47C400.986 127.452 400.936 127.392 400.758 127.413ZM368.286 127.077L368.215 127.13C365.846 129.019 363.315 130.695 360.651 132.136L360.169 132.363L360.31 131.852C360.341 131.745 360.466 131.424 361.17 129.859C361.326 129.291 362.227 128.275 368.076 126.427L368.507 126.291L368.286 127.077ZM370.252 130.006L369.111 130.122L369.737 129.604C369.864 129.498 369.969 129.391 370.084 129.285L370.097 129.285L371.018 128.867L371.076 129.168C371.106 129.375 371.175 129.574 371.28 129.755C370.935 129.841 370.603 129.915 370.252 130.006V130.006ZM373.922 142.358L373.682 142.427L373.049 140.07L373.184 139.586L373.359 139.568C373.429 139.554 373.501 139.557 373.569 139.577C373.638 139.596 373.7 139.632 373.752 139.681C376.193 138.461 378.824 137.666 381.532 137.33L382.695 137.213L381.999 137.745C379.595 139.739 376.862 141.301 373.922 142.358ZM363.553 139.605C361.149 141.599 358.415 143.16 355.475 144.217L355.236 144.287L354.603 141.929L354.738 141.446L354.914 141.427C354.983 141.412 355.056 141.415 355.124 141.435C355.192 141.455 355.255 141.491 355.306 141.54C357.747 140.32 360.378 139.525 363.085 139.189L364.25 139.074L363.553 139.605ZM386.733 125.217L386.661 125.271C385.022 126.503 383.588 127.528 382.36 128.346C381.812 128.11 381.218 128.001 380.623 128.029C380.275 128.064 379.901 128.12 379.541 128.165L379.615 127.999C379.771 127.432 380.673 126.415 386.523 124.569L386.953 124.433L386.733 125.217Z" fill="white"/>
<path d="M364.453 159.156C364.431 159.16 364.409 159.168 364.388 159.172C364.388 159.172 364.49 159.148 364.453 159.156Z" fill="white"/>
</g>
<defs>
<clipPath id="clip0_5425_442082">
<rect width="420.539" height="186.165" fill="white"/>
</clipPath>
</defs>
</svg>
