<svg xmlns="http://www.w3.org/2000/svg" viewBox="0 0 425.61 183.81"><defs><style>.cls-1{fill:#ff7600;}.cls-2{fill:#fff;}.cls-3{opacity:0.7;}</style></defs><g id="圖層_2" data-name="圖層 2"><g id="圖層_1-2" data-name="圖層 1"><path id="Path_46" data-name="Path 46" class="cls-1" d="M309.15,78.11a53,53,0,0,1-11.43-1.22,28.42,28.42,0,0,1-9.7-4,17.45,17.45,0,0,1-6.12-6.56A19,19,0,0,1,280,57.69a22.1,22.1,0,0,1,.7-5.49,18.79,18.79,0,0,1,2.14-5,15.65,15.65,0,0,1,3.27-3.94,18.25,18.25,0,0,1,3.65-2.49,44.23,44.23,0,0,1,5.17-2.07.66.66,0,0,0,.41-.57.64.64,0,0,0-.34-.61,32.63,32.63,0,0,1-4.51-2.61,17.54,17.54,0,0,1-2.74-2.57A14.44,14.44,0,0,1,285.56,29a14.6,14.6,0,0,1-1.23-3.75,20.57,20.57,0,0,1-.36-3.92,19.63,19.63,0,0,1,2.27-9.49,18.48,18.48,0,0,1,6.75-7,29.63,29.63,0,0,1,9.67-3.82,54.94,54.94,0,0,1,10.93-1,42.39,42.39,0,0,1,10.52,1.29,24,24,0,0,1,8.6,4,17,17,0,0,1,5.21,6.19,19.42,19.42,0,0,1,1.65,8.37,22.21,22.21,0,0,1-.45,4.52,15.18,15.18,0,0,1-1.35,3.94,15.92,15.92,0,0,1-2.28,3.32,18.81,18.81,0,0,1-2.85,2.65,39.43,39.43,0,0,1-5.12,3,.66.66,0,0,0-.33.63.63.63,0,0,0,.45.55,43.63,43.63,0,0,1,5.19,1.8,14.35,14.35,0,0,1,3.35,2.14,13.92,13.92,0,0,1,4.44,7.15,19.43,19.43,0,0,1,.51,4.43,22.55,22.55,0,0,1-2.55,10.4,21.18,21.18,0,0,1-7,7.95,30.15,30.15,0,0,1-10.33,4.36,54.6,54.6,0,0,1-12.15,1.36M311,44.93A11.21,11.21,0,0,0,303,47.64a9.32,9.32,0,0,0-2.9,7.06,9.14,9.14,0,0,0,1.29,4.71,8.31,8.31,0,0,0,3.76,3.3,12.46,12.46,0,0,0,5.21,1.09,12,12,0,0,0,5.32-1.18,9.23,9.23,0,0,0,3.87-3.56A10.11,10.11,0,0,0,321,53.65a8.05,8.05,0,0,0-2.72-6.43A11,11,0,0,0,311,44.94m1.34-30.75a9.68,9.68,0,0,0-7.12,2.64,8.9,8.9,0,0,0-2.65,6.51,8.1,8.1,0,0,0,1.16,4.26A7.2,7.2,0,0,0,307,30.51a10.8,10.8,0,0,0,4.41.92,10,10,0,0,0,6.95-2.53,8.68,8.68,0,0,0,2.83-6.68,7.54,7.54,0,0,0-2.45-5.86,9.21,9.21,0,0,0-6.43-2.17"/><path id="Path_47" data-name="Path 47" class="cls-1" d="M377.93,78.11a52.69,52.69,0,0,1-11.42-1.22,28.58,28.58,0,0,1-9.71-4,17.53,17.53,0,0,1-6.11-6.57,18.88,18.88,0,0,1-1.91-8.61,21.56,21.56,0,0,1,.7-5.48,19.47,19.47,0,0,1,2.12-5,16.31,16.31,0,0,1,3.29-3.93,17.62,17.62,0,0,1,3.65-2.5,43.94,43.94,0,0,1,5.15-2.07.65.65,0,0,0,.08-1.18,31.94,31.94,0,0,1-4.5-2.61,16.28,16.28,0,0,1-2.74-2.57,15,15,0,0,1-3.42-7.08,22.34,22.34,0,0,1-.37-3.92A19.83,19.83,0,0,1,355,11.84a18.51,18.51,0,0,1,6.75-7,29.94,29.94,0,0,1,9.67-3.82,54.93,54.93,0,0,1,10.93-1A42.47,42.47,0,0,1,392.9,1.3a23.84,23.84,0,0,1,8.6,4,17.23,17.23,0,0,1,5.21,6.19,19.44,19.44,0,0,1,1.64,8.37,22.86,22.86,0,0,1-.44,4.52,15.4,15.4,0,0,1-1.36,3.95,16.68,16.68,0,0,1-2.27,3.32,20.59,20.59,0,0,1-2.87,2.65,38.6,38.6,0,0,1-5.11,3,.65.65,0,0,0,.11,1.19,45.27,45.27,0,0,1,5.18,1.79A14.33,14.33,0,0,1,405,42.46a13.78,13.78,0,0,1,4.43,7.14,18.39,18.39,0,0,1,.53,4.43,22.64,22.64,0,0,1-2.57,10.41,21.11,21.11,0,0,1-6.95,7.94,30.13,30.13,0,0,1-10.34,4.37,54.94,54.94,0,0,1-12.13,1.35m1.82-33.17a11.23,11.23,0,0,0-7.94,2.72,9.28,9.28,0,0,0-2.92,7.05,9.12,9.12,0,0,0,1.3,4.71,8.36,8.36,0,0,0,3.76,3.3,12.46,12.46,0,0,0,5.21,1.09,11.92,11.92,0,0,0,5.32-1.18,9.2,9.2,0,0,0,3.88-3.56,10.27,10.27,0,0,0,1.43-5.41,8,8,0,0,0-2.71-6.43,11,11,0,0,0-7.34-2.28m1.33-30.75a9.69,9.69,0,0,0-7.12,2.64,9,9,0,0,0-2.65,6.51,8.24,8.24,0,0,0,1.17,4.27,7.14,7.14,0,0,0,3.27,2.9,10.7,10.7,0,0,0,4.43.92,9.93,9.93,0,0,0,6.93-2.53,8.6,8.6,0,0,0,2.84-6.68,7.54,7.54,0,0,0-2.43-5.85,9.21,9.21,0,0,0-6.43-2.18"/><path class="cls-2" d="M136.94,24.19a28.18,28.18,0,0,0-10.16-6,38.4,38.4,0,0,0-12.61-2.1,39.7,39.7,0,0,0-13.52,2.35A29.4,29.4,0,0,0,89.8,25.11a26.84,26.84,0,0,0-6.39,9.73,32.53,32.53,0,0,0-2,11.42,31.84,31.84,0,0,0,2.07,11.42A24.86,24.86,0,0,0,89.63,67a27,27,0,0,0,10.26,5.92,41.24,41.24,0,0,0,12.9,2h0a41.2,41.2,0,0,0,13.83-2.32,25.78,25.78,0,0,0,10.66-6.91,27.67,27.67,0,0,0,5.95-9.91A35.84,35.84,0,0,0,145,44.59a32.36,32.36,0,0,0-2-11.28A24.26,24.26,0,0,0,136.94,24.19ZM123.3,52.47A12.13,12.13,0,0,1,119,58.32a10.93,10.93,0,0,1-6.4,2,10.16,10.16,0,0,1-7.84-3.48A14.32,14.32,0,0,1,101.66,47a22.15,22.15,0,0,1,1.42-8,11.92,11.92,0,0,1,4.27-5.7,11.19,11.19,0,0,1,6.46-2v0a10.31,10.31,0,0,1,6,1.78,10,10,0,0,1,3.74,4.77,18.37,18.37,0,0,1,1.12,6.52A23.28,23.28,0,0,1,123.3,52.47Z"/><path class="cls-2" d="M201.58,17.62c-3.31,0-6.81-.05-10.5-.12l-8.37,24.24c-1.47,4.24-2.31,6.55-2.51,7.06l-1.39,4.49c-.09.26-.33.1-.59.1h0c-.27,0-.5.14-.57-.14-2.13-8.81-4.11-16.2-5.89-22.64-1.68-6-2.84-10.4-3.49-13.06q-4.62.11-9.83.1c-3.26,0-6.77,0-10.51-.09l12.54,38L166,73.46c4.19-.07,8-.11,11.36-.11,3.11,0,6.7,0,10.75.11l2.79-7.13,13.78-33.06,7-15.72C208.18,17.61,204.81,17.62,201.58,17.62Z"/><path class="cls-2" d="M265.84,22.16a16.31,16.31,0,0,0-7.92-4.61,42.31,42.31,0,0,0-11.42-1.47,121.22,121.22,0,0,0-26,3.42l-.8,6.14c-.16,1.26-.53,3.47-1.08,6.56a63,63,0,0,1,22-5.07A9.58,9.58,0,0,1,246,28.38a4.37,4.37,0,0,1,2,3.82,4.63,4.63,0,0,1-1.33,3.28,6.16,6.16,0,0,1-1.78,1.25,23.42,23.42,0,0,1-3.43,1.15c-1.56.44-3.28.84-5.15,1.22a88.29,88.29,0,0,0-11,2.83,29.8,29.8,0,0,0-6.74,3.15,18.58,18.58,0,0,0-4.26,4,17,17,0,0,0-2.67,4.75,15.35,15.35,0,0,0-.85,4.94,17.37,17.37,0,0,0,2.3,8.3,13.53,13.53,0,0,0,6.52,6,27.16,27.16,0,0,0,10.84,1.88h0a53.11,53.11,0,0,0,8.25-.71c1.19-4.6,2.27-8.31,3.19-11a15.48,15.48,0,0,1-5,.81,7.2,7.2,0,0,1-5-1.51,4.94,4.94,0,0,1-1.66-3.72,5.74,5.74,0,0,1,.59-2.54,6.76,6.76,0,0,1,1.88-2.17,10.94,10.94,0,0,1,3-1.66c1.1-.42,2.62-.92,4.56-1.53s3.24-1,4-1.33,1.8-.77,3.14-1.43a.46.46,0,0,1,.26-.07.55.55,0,0,1,.33.11.64.64,0,0,1,.27.56c-.55,12.07-1.07,20.4-1.53,24.75,3.52-.06,6.87-.1,10-.1s6.56.05,9.87.1c.27-11.52.69-21,1.22-28.19s.79-12,.79-14.07A13.19,13.19,0,0,0,265.84,22.16Z"/><path class="cls-2" d="M57,2c0,4.27-.23,11.44-.61,21.31-.4,10.75-.81,19.27-1.19,25.33A1.27,1.27,0,0,1,54,49.79a1.19,1.19,0,0,1-1-.66l-3-6.1L28.21,2c-5,.06-8.83.1-11.62.1-3.83,0-6.53,0-12.9-.1V9.2L3,24.62.91,62.9,0,72.81q6.74-.07,9.33-.08,3,0,8.6.08l.49-20.24,1.11-25.45A1.26,1.26,0,0,1,20.72,26a1.17,1.17,0,0,1,1.07.67c1.67,3.43,3.3,6.63,4.89,9.53,2.45,4.66,5.11,9.49,7.88,14.35l8.68,15.33q1.21,2.22,3.65,7h0q8.07-.1,12.73-.1,5.34,0,11.41.09l.28-11.65,2.33-44.5L74.77,2q-7.22.1-8.83.1C63.64,2.11,60.64,2.08,57,2Z"/><path class="cls-2" d="M3.09,98.83H22.76v4.79H8.91v23.43c0,1.48.62,2.22,1.88,2.22H21.22v4.45H7.71q-4.78.17-4.62-4.79Zm6.5,6.33h5.47a33.15,33.15,0,0,0,1.2,8.55,37.56,37.56,0,0,0,1.37-8.55h5.13q-.51,9.41-3.59,14.7A23.14,23.14,0,0,0,22.76,124v5a35.18,35.18,0,0,1-6.5-5.3,36.9,36.9,0,0,1-6.67,5.3v-5A39.46,39.46,0,0,0,13.35,120Q10.11,114.57,9.59,105.16Zm22.23,21.55q-2.73,6.15-10.09,9.91v-5.13a20.49,20.49,0,0,0,5.3-8.55q1.38-4.09,1.37-12V109.6a30.9,30.9,0,0,1-5.81,4.62v-5q2.73-3.93,3.42-12h6.5a3,3,0,0,1-.17.68,22.18,22.18,0,0,0-.18,2.4h9.75v11.11H36.1v-6.32H30.8a12.37,12.37,0,0,1-1.88,3.59h6.15v2.39q-.51,13.17,6.84,20v5.13A23.57,23.57,0,0,1,31.82,126.71Z"/><path class="cls-2" d="M102.18,98.66v5H92.26v26.51h10.43v4.78H63.87v-4.78H74.3V103.62H64.38v-5Zm-37.8,8.89h6.5A80.37,80.37,0,0,0,73.62,124H68Q65.74,118.15,64.38,107.55Zm17.11-3.93v26.51h3.59V103.62ZM102,107.55q-1.37,10.61-3.59,16.42H92.77a79.69,79.69,0,0,0,2.74-16.42Z"/><path class="cls-2" d="M128.07,136.28V113.19c-.45.12-1.25.35-2.39.69a5.4,5.4,0,0,0-1.2.34V110q4.78-3.09,6.67-12.83h7.18a40.45,40.45,0,0,1-3.42,9.92v29.24Zm35.57-3.76a33.43,33.43,0,0,1-5.81-6.67v3.08h-4.62v7.35h-7v-7.35h-4.79V126a24.42,24.42,0,0,1-5.47,6.5v-5.47q3.76-7.53,3.42-19.84H137v-4.79h9.23v-5.3h7v5.3h9.58v4.79h-2.74q-.35,12.32,3.59,19.84Zm-18.29-25.31q-.18,11.46-3.08,17.27h3.93V107.21Zm11.8,17.27q-3.09-5.3-2.91-17.27h-1v17.27Z"/><path class="cls-2" d="M186.12,104.13V99.34h15.22V97.12h8.89v2.22h15.05v4.79H205.1a35.77,35.77,0,0,1-4.28,2.74l-1,.51h8c1.82-.11,3.64-.28,5.47-.51-.46-.57-1-1.2-1.54-1.88h6.5a31.76,31.76,0,0,1,5,7.52H216a4.36,4.36,0,0,0-.17-1c.12.23.06.12-.17-.34q-5.47.51-16.42.86h-8.89v-4.62a7,7,0,0,0,.86-.51,38.14,38.14,0,0,0,4.61-2.74ZM213,132c1.14.11,1.65-.46,1.54-1.71V130H197.23v6.16h-7.35V113.37H222v17.27c.11,3.76-1.65,5.58-5.3,5.47H211.6V132Zm1.54-14.2H197.23v2h17.28ZM197.23,124v1.88h17.28V124Z"/><g class="cls-3"><path class="cls-2" d="M82.93,173.05c.26,2.43-4.35,8.73-15.72,10.61-3,.5-7.41-.06-7.83-3.93-.14-1.36-.38-1.55,3.85-8.59-1.2,0-3.93.21-4.09-1.24-.2-1.82,5.75-2.55,7-3.07,2.47-3,4.9-6.86,9.15-7.32-.22.76-.46,1.34-3.54,5.85,9.46-2.36,11.41-5.49,11.2-6.63-.15-.93-1.5-2.29-6.4-1.42a51.74,51.74,0,0,0-11.62,4.27c.27.1.62.23.66.57.07.64-.88,1-1.42,1.15a30.84,30.84,0,0,0-5.74,2.25,4.27,4.27,0,0,1-1.29.44c-.72.08-1.1-.31-1.18-1a10.65,10.65,0,0,1,1.57-3.78c.76-1.29,1.82-3,3.21-3.75a59.41,59.41,0,0,1,16.15-5c7.31-.79,9.37,1.92,9.61,4.21.75,6.89-12,10-16.82,11.54l-.76.86C72,169.25,82.48,169,82.93,173.05ZM65.15,174.2c-.48.66-1.32,1.69-1.22,2.59.2,1.82,3.61,2,5,1.82,3.78-.45,9.35-3.85,9.17-5.55-.24-2.21-9.07-1.9-10.82-1.71Z"/><path class="cls-2" d="M101,173.12c-2.26,3.3-6.51,7.8-10.72,8.26-3.1.33-4.85-2.27-5.24-5.07-.77-5.55,4.78-11.92,10.31-12.47,1.36-.15,3.1,0,3.29,1.71.22,2.08-1.52,5.45-9.4,9l0,.95c0,1.63,1.51,2,2.87,1.88,3-.32,6.25-3.81,8.32-5.84Zm-6-6.27c0-.3-.27-.53-.56-.42a9.42,9.42,0,0,0-5.16,6C92.88,170.77,95.11,167.56,95,166.85Z"/><path class="cls-2" d="M122.37,173c.39.05.84.21.89.68s-.85,2.07-1.79,3.68c-.47.83-1.23,2.16-2.3,2.27a1.33,1.33,0,0,1-1.61-1.37c-.2-1.87,2.32-6.84,3.15-8.73A3.26,3.26,0,0,1,118.5,167c-.27-2.46,4.63-4.15,6.35-4.9l5.8-9.66c-7.43.93-13.05,4.29-14.32,4.43-.26,0-.69,0-.73-.35-.11-1,2-4.56,2.58-5.57a5.52,5.52,0,0,1,3-2.09,41.45,41.45,0,0,1,11.27-2.73c10.55-1.14,13.85,2,14.42,7.22,1,9.06-9.34,16.62-23.12,16.56Zm6.25-11.86c1.57-.17,3.25-.95,3.34-.14s-3.5,1.45-4.13,2l-.78,1.51a13.55,13.55,0,0,0,4.42-.05c8.29-1.37,13.11-8,12.36-10.67s-8.8-2.19-10.76-2a4.11,4.11,0,0,1-.65,2.7Z"/><path class="cls-2" d="M153.72,170.91c-.73.72-3.22,3.23-4.19,3.33-1.2.13-4-2.41-4.29-4.61-.74-5.3,9.72-11.94,14.64-12.6a2.65,2.65,0,0,1,3,1.75c0,.51-1,1.05-1.38,1.22a1.7,1.7,0,0,1,1.42,1.61c.15,1.36-3.23,4.74-3,6.74.08.72.75,1,1.43.87,1.79-.19,4-2.62,5.67-4.05l.51,1.54c-1.6,2.28-6.81,7.44-8.89,7.67a2,2,0,0,1-2.29-2,14.51,14.51,0,0,1,1.06-4.93l-.09-.07Zm-5.26-.55c.07.2.32.95.94.76.83-.27,2.17-.28,9.67-9.7l-.1-.07C149.19,165.55,148.23,168.27,148.46,170.36Z"/><path class="cls-2" d="M169.79,162.76c-1.23,2.5-2.9,3.8-4.53,5.82l-.37-1.85a14.77,14.77,0,0,0,2.47-3.41c-.9,0-1.19-.3-1.29-1.19-.33-3.06,3.67-6.59,4.7-6.7a.75.75,0,0,1,.84.64,2.83,2.83,0,0,1-.17,1.22c3.94-1,6.22-1.75,6.7-1.28a4.26,4.26,0,0,1,1.27,2.14c.14,1.32-.6,2-1.49,3-1.12,1.19-3,3.5-2.79,5.2a1.31,1.31,0,0,0,1.44,1.05c1.83-.2,4.21-3.25,5.5-4.47l.47,1.55c-1.42,2-5.8,7.25-8.22,7.51a3.11,3.11,0,0,1-3.25-3c-.31-2.89,1.66-5.39,3.13-7.61l-.09-.08Z"/><path class="cls-2" d="M195.45,151.38c-1.56,4.26-1.73,5.87-6.44,6.07-1.24,2-3.29,5.78-3,8.33.1.94.45,1.46,1.43,1.35,1.36-.15,2.76-1.59,6.84-5.21l.41,1.85c-2.26,2.57-6.36,7.61-10,8a2.61,2.61,0,0,1-3-2.56,11.33,11.33,0,0,1,.65-4.37l-.1-.08-2,2-.64-1.56a24.79,24.79,0,0,0,5.73-7.51,16,16,0,0,0-4,.61l.38-.81c1.89-4,2.16-4.71,6.69-5.37,1.09-1.88,1.81-4,4.27-4.25.56-.06,1.38,0,1.45.66s-1,2.3-1.36,2.94Z"/><path class="cls-2" d="M226.15,159.55a7.88,7.88,0,0,1-6.52,4.19c-1.59,2-3.52,3.61-6.2,3.89-2.21.24-4.49-1.75-5.08-5.6-.43-3.18.91-5.47,3.1-7.56a14.48,14.48,0,0,1,7.61-4c.93-.14,2.38.13,2.5,1.28.07.64-.41.95-.85,1.25,1.31.21,1.66,1.07,1.8,2.35.2,1.87-.49,3.45-1.11,5.2,1.9.13,2.92-1.61,4.13-2.73ZM213,159a6.32,6.32,0,0,0-1.32,4.1c.14,1.23,1,1.53,2.05,1.42a4.84,4.84,0,0,0,3.09-2.06,4.7,4.7,0,0,1-.72-1.9c-.24-2.21,1.47-5.11,1.29-5.17A25.77,25.77,0,0,0,213,159Z"/><path class="cls-2" d="M230.81,158.05c1.31.6,1.89,1.95,2.57,3.12l5.36-4.19.63,1.53a24.45,24.45,0,0,1-5.05,4.63,8.57,8.57,0,0,1,.3,2.33c.21,5.1-5.24,10.42-8.29,11.22-1.93.51-2.91-3.38-3.06-4.78-.3-2.77,1.17-6.33,2-8.87a3.38,3.38,0,0,1-1.49-2.29c-.19-1.71.91-2.3,2.07-3.11,2.36-1.63,3.51-3.78,4.56-6.35.88-2.2,5.28-12.91,7.44-13.15.94-.1,1.15,1.08,1.23,1.77a13.82,13.82,0,0,1-1.57,6.19Zm.5,6.23a6.46,6.46,0,0,1-3.1,0,13.16,13.16,0,0,0-1.44,5A6.34,6.34,0,0,0,228,173,9.18,9.18,0,0,0,231.31,164.28Z"/><path class="cls-2" d="M266.81,143.67c-1.56,4.25-1.73,5.86-6.44,6.07-1.25,2-3.29,5.78-3,8.33.1.93.46,1.45,1.44,1.35,1.36-.15,2.75-1.59,6.84-5.21l.41,1.84c-2.26,2.57-6.36,7.62-10,8a2.6,2.6,0,0,1-3-2.56,11.29,11.29,0,0,1,.64-4.37l-.09-.08-2,2-.64-1.57a24.75,24.75,0,0,0,5.73-7.5,15.25,15.25,0,0,0-4,.61l.39-.82c1.89-4,2.16-4.71,6.69-5.37,1.09-1.88,1.81-4,4.27-4.25.55-.06,1.38,0,1.45.66s-1,2.31-1.36,3Z"/><path class="cls-2" d="M268.49,156c1.9-1.88,8.91-9.52,11.25-9.77a2.25,2.25,0,0,1,2.26,1.82c.08.8-1.41,2.86-1.86,3.51-2.29,3.47-2.15,3.59-2.11,4a.89.89,0,0,0,1,.79c1.4-.15,4.26-2.78,5.4-3.72l.4,1.72c-1.79,1.7-6.49,6.42-8.83,6.68a2.08,2.08,0,0,1-2.2-2c-.28-2.68,2.3-6.23,3.61-8.4l-.09-.07c-6.73,5.76-8.37,10.5-9.73,10.64s-2.06-3.13-2.17-4.11c-.31-2.93.57-5.09,1.8-7.68,4.12-8.83,11.77-17.19,13.22-17.34.68-.08,1.86.09,1.95,1,.32,2.89-11.69,18.38-14.12,21.36Z"/><path class="cls-2" d="M300.27,151.58c-2.26,3.3-6.51,7.8-10.72,8.26-3.1.33-4.85-2.28-5.23-5.08-.78-5.55,4.77-11.91,10.3-12.47,1.37-.14,3.1,0,3.29,1.71.22,2.09-1.52,5.46-9.4,9l0,.94c.05,1.63,1.51,2,2.87,1.89,3-.33,6.26-3.82,8.32-5.85Zm-6-6.28c0-.3-.27-.53-.56-.41a9.4,9.4,0,0,0-5.16,6C292.15,149.23,294.38,146,294.26,145.3Z"/><path class="cls-2" d="M328.6,148.51c-2,1.81-5.46,5.28-7.91,5.25-3.4,0-5.09-2.46-5.41-5.44-.39-3.66,1.88-8.46,4.07-11.28,2.59-3.55,9.64-10.38,21.23-13a1.64,1.64,0,0,1,1.82.54,5.49,5.49,0,0,1,1.06,2.64c.12,1.1-.7,1.84-1.49,2.48-5.46,4.46-6.3,4.6-6.69,4.64a.54.54,0,0,1-.61-.54c-.05-.42.74-1.11,1-1.35l1.63-1.64-.09-.08c-12.31,5.12-18.76,16.31-18.06,18.39.31.87.73,1.55,1.66,1.45a6,6,0,0,0,2.75-1.63l14.29-13.5a1.48,1.48,0,0,1,.91-.66,4.87,4.87,0,0,1,1.65.55c.5.21,1.13.48,1.19,1a4.59,4.59,0,0,1-.43,1.55c-1.43,3.9-3.71,7.88-6.43,13.38l.1.08,8.7-7c.12,1.88.45,2.19-4.91,6.73l-6.35,5.37c-1.48,2.57-7.15,10.24-10,10.55-1.06.12-1.62-.68-1.77-1.61-.43-2.84,2.94-7,6.89-9.53A55.32,55.32,0,0,0,333,144.64l-.1-.08Z"/><path class="cls-2" d="M351.08,149.57c-.74.72-3.22,3.23-4.2,3.33-1.19.13-4-2.41-4.28-4.61-.75-5.29,9.72-11.93,14.64-12.59a2.63,2.63,0,0,1,3,1.74c0,.51-1,1.05-1.38,1.22a1.72,1.72,0,0,1,1.42,1.61c.15,1.36-3.23,4.74-3,6.74.08.72.75,1,1.43.88,1.78-.2,4-2.63,5.67-4.06l.51,1.54c-1.6,2.28-6.81,7.45-8.9,7.67a2,2,0,0,1-2.28-2,14.33,14.33,0,0,1,1.06-4.94l-.1-.07Zm-5.26-.55c.06.21.32.95.94.76.83-.26,2.16-.28,9.66-9.69l-.09-.08C346.54,144.21,345.59,146.94,345.82,149Z"/><path class="cls-2" d="M379.27,146.86c-.88,1-2.22,2.95-3.66,3.11a1.85,1.85,0,0,1-2.07-1.58c-.17-1.23.63-3.3,2.94-7.81a1.3,1.3,0,0,0,.2-.58.29.29,0,0,0-.33-.26c-.43,0-1.25,1.17-1.52,1.5-2,2.57-4.06,5.38-5.79,8.07-.41.6-.94,1.3-1.7,1.38-2,.22-3-3-3.16-4.56-.41-4.17,3.48-10.36,6.07-10.29.65,0,1.92-.12,2,.77s-1,2.25-1.41,2.9c-.67,1-1.52,1.85-2.06,2.85-.4.69-1.09,1.45-1,2.35,0,.08.17.36.34.35s.66-.64.77-.78c1.85-2.39,8.61-10.78,11.37-11.08a1.75,1.75,0,0,1,1.95,1.77c.21,1.87-2.44,5.64-3.2,7.4l.1.08,8.63-8.46c.39-.39,1.36-1.36,1.87-1.41.34,0,.88.94,1,1.09a3.67,3.67,0,0,1,.95,1.62c.08.72-.67,1.75-1.08,2.31-2.92,4-3.1,4.73-3,5.71,0,.51.64,1.13,1.13.95.87-.31,1.34-.36,6.19-4.5l.47,2c-1.83,1.79-7.41,7.47-9.79,7.72a2.38,2.38,0,0,1-2.44-2.23c-.23-2.13,1.53-5.37,2.4-7.23l-.09-.07Z"/><path class="cls-2" d="M410.46,139.66c-2.27,3.3-6.52,7.81-10.73,8.26-3.1.34-4.84-2.27-5.23-5.07-.78-5.55,4.78-11.91,10.31-12.47,1.36-.15,3.1,0,3.28,1.71.22,2.08-1.52,5.46-9.39,9v.94c.05,1.63,1.51,2,2.87,1.89,3-.33,6.26-3.82,8.32-5.85Zm-6-6.27c0-.3-.27-.53-.56-.41a9.38,9.38,0,0,0-5.15,6C402.33,137.32,404.57,134.11,404.44,133.39Z"/><path class="cls-2" d="M413.4,144.17c-.16-1.49.37-5.29,1.9-5.46a2.71,2.71,0,0,1,2.93,2.44c.16,1.48-.36,4.6-2.32,4.81A2.32,2.32,0,0,1,413.4,144.17Zm7-26.61c.29-.9.53-2.26,1.64-2.37a10.79,10.79,0,0,1,1.82.19c.44.08,1.7.11,1.77.79a11.22,11.22,0,0,1-.9,3.2l-6,15.66a1.56,1.56,0,0,1,.29.7c.08.77-.35,1.93-1.2,2s-2.69-1-2.8-2a13,13,0,0,1,.88-3.83Z"/></g></g></g></svg>