<svg width="417" height="185" viewBox="0 0 417 185" fill="none" xmlns="http://www.w3.org/2000/svg">
<g clip-path="url(#clip0_5425_442116)">
<path d="M338.578 64.4303C340.253 61.2203 341.129 57.6534 341.131 54.0327C341.133 52.5395 340.961 51.0511 340.618 49.5978C339.914 46.815 338.364 44.319 336.183 42.4533C335.17 41.5838 334.04 40.8618 332.826 40.3087C331.136 39.6004 329.403 38.9996 327.637 38.5099C327.516 38.4724 327.408 38.3997 327.328 38.301C327.248 38.2023 327.199 38.0821 327.187 37.9556C327.179 37.8301 327.206 37.7048 327.265 37.5938C327.324 37.4829 327.413 37.3907 327.522 37.3278C329.301 36.4469 331.011 35.4329 332.637 34.2943C333.677 33.5086 334.634 32.6183 335.493 31.6375C336.39 30.6328 337.156 29.5187 337.773 28.3218C338.399 27.0742 338.853 25.7474 339.122 24.3778C339.423 22.8905 339.574 21.3767 339.572 19.8592C339.646 16.982 339.082 14.1242 337.92 11.4911C336.705 9.0387 334.919 6.91463 332.711 5.29833C330.141 3.4016 327.217 2.03941 324.112 1.29233C320.672 0.424231 317.137 -0.0097547 313.589 0.000495039C309.92 -0.0140721 306.258 0.338101 302.658 1.05177C299.236 1.74456 295.964 3.03714 292.993 4.86977C290.16 6.54585 287.826 8.94942 286.235 11.8312C284.696 14.7556 283.916 18.0193 283.965 21.3235C283.961 22.6364 284.084 23.9465 284.332 25.2359C284.818 27.8608 285.995 30.3087 287.742 32.3278C288.559 33.2827 289.478 34.1457 290.482 34.9013C291.911 35.8915 293.419 36.7626 294.991 37.5057C295.1 37.5655 295.19 37.6554 295.249 37.7649C295.308 37.8743 295.335 37.9986 295.325 38.1227C295.319 38.2463 295.278 38.3655 295.205 38.4659C295.133 38.5662 295.033 38.6432 294.917 38.6877C293.155 39.2748 291.43 39.9664 289.75 40.7587C288.436 41.4389 287.21 42.2766 286.099 43.2534C284.803 44.38 283.698 45.7081 282.825 47.1865C281.878 48.748 281.16 50.4369 280.691 52.202C280.228 53.9943 279.993 55.8379 279.99 57.6891C279.94 60.6712 280.596 63.6228 281.905 66.3031C283.337 68.9857 285.447 71.2468 288.024 72.8617C290.98 74.7918 294.268 76.1589 297.721 76.8939C301.477 77.7118 305.31 78.1204 309.154 78.1124L309.143 78.1022C313.23 78.1027 317.303 77.6466 321.288 76.7423C324.975 75.9462 328.48 74.4666 331.622 72.3801C334.575 70.3598 336.968 67.6249 338.578 64.4303V64.4303ZM319.572 59.0643C318.652 60.5986 317.308 61.8339 315.702 62.6211C314.041 63.4174 312.219 63.8217 310.377 63.8031C308.583 63.816 306.807 63.4449 305.168 62.7147C303.606 62.0258 302.295 60.8714 301.413 59.4091C300.559 57.9878 300.111 56.3601 300.116 54.7022C300.075 53.3867 300.312 52.0774 300.814 50.8605C301.315 49.6435 302.068 48.5465 303.024 47.6417C305.216 45.7385 308.065 44.7664 310.963 44.9323V44.943C313.602 44.7957 316.205 45.6033 318.296 47.2181C319.204 48.0162 319.919 49.0086 320.39 50.1215C320.861 51.2343 321.075 52.439 321.016 53.646C321.051 55.5516 320.551 57.4288 319.572 59.0643L319.572 59.0643ZM318.338 28.897C316.431 30.5967 313.946 31.5023 311.392 31.4281C309.872 31.4411 308.367 31.129 306.978 30.5128C305.606 29.908 304.458 28.8895 303.693 27.5998C302.917 26.3168 302.515 24.8422 302.532 23.3426C302.509 22.1345 302.732 20.9343 303.187 19.8149C303.642 18.6954 304.319 17.6801 305.179 16.8306C306.127 15.9328 307.246 15.2361 308.47 14.7822C309.695 14.3284 310.998 14.1269 312.302 14.1898H312.292C314.634 14.0728 316.933 14.8485 318.725 16.3603C319.532 17.1024 320.17 18.0109 320.592 19.0231C321.015 20.0353 321.213 21.1271 321.173 22.2232C321.209 23.4742 320.975 24.7183 320.486 25.8702C319.996 27.0221 319.264 28.0546 318.338 28.897V28.897Z" fill="white"/>
<path d="M409.907 54.0328C409.911 52.5388 409.735 51.0499 409.384 49.5978C409.043 48.2099 408.481 46.8857 407.721 45.6752C406.971 44.4644 406.036 43.379 404.949 42.4587C403.937 41.5875 402.806 40.8638 401.591 40.3088C399.902 39.6109 398.173 39.0121 396.413 38.5153C396.292 38.4776 396.185 38.405 396.105 38.3067C396.025 38.2083 395.976 38.0886 395.964 37.9625C395.952 37.8363 395.977 37.7093 396.036 37.5974C396.096 37.4855 396.187 37.3937 396.298 37.3333C398.076 36.4525 399.786 35.4401 401.413 34.3046C402.45 33.5107 403.409 32.6213 404.28 31.6481C405.17 30.6404 405.932 29.5266 406.549 28.332C407.177 27.0806 407.635 25.7508 407.909 24.3779C408.208 22.8903 408.355 21.3764 408.348 19.8593C408.43 16.9825 407.869 14.1238 406.706 11.4911C405.491 9.0412 403.704 6.91919 401.497 5.30377C398.931 3.4025 396.006 2.04129 392.899 1.30242C389.455 0.432237 385.917 -0.00352336 382.365 0.00530054C378.699 -0.00998087 375.041 0.340593 371.445 1.05181C368.022 1.75095 364.747 3.04306 361.769 4.86981C358.943 6.5539 356.615 8.95779 355.022 11.836C353.485 14.7597 352.701 18.0206 352.742 21.3235C352.748 22.6377 352.871 23.9487 353.108 25.2413C353.599 27.862 354.78 30.3046 356.528 32.3176C357.343 33.275 358.262 34.1381 359.269 34.8906C360.695 35.8809 362.199 36.7537 363.767 37.5004C363.878 37.5602 363.97 37.6506 364.031 37.7609C364.092 37.8712 364.12 37.9968 364.112 38.1227C364.103 38.2463 364.059 38.3647 363.985 38.4639C363.911 38.5631 363.81 38.6389 363.694 38.6823C361.934 39.2635 360.211 39.9535 358.537 40.7486C357.223 41.4302 355.997 42.2697 354.886 43.2485C353.59 44.3774 352.482 45.7048 351.602 47.1812C350.662 48.7454 349.947 50.434 349.478 52.1973C349.01 53.9885 348.775 55.8325 348.777 57.6838C348.726 60.6642 349.382 63.6144 350.692 66.2924C352.123 68.9737 354.229 71.236 356.8 72.8564C359.76 74.7879 363.051 76.1566 366.507 76.894C370.26 77.713 374.09 78.1216 377.93 78.1125L377.92 78.1023C382.002 78.1047 386.072 77.6502 390.054 76.7473C393.742 75.9518 397.247 74.4704 400.388 72.3802C403.343 70.3647 405.737 67.6308 407.344 64.4357C409.017 61.2225 409.896 57.6553 409.907 54.0328V54.0328ZM388.349 59.0644C387.428 60.6015 386.079 61.8373 384.468 62.6212C382.812 63.421 380.993 63.8256 379.154 63.8032C377.36 63.8171 375.583 63.446 373.945 62.7148C372.381 62.0267 371.066 60.8746 370.179 59.4146C369.329 57.9897 368.881 56.3614 368.882 54.7023C368.841 53.3867 369.079 52.0773 369.583 50.8609C370.086 49.6446 370.842 48.5491 371.8 47.6471C373.995 45.7474 376.841 44.7741 379.74 44.9324L379.729 44.943C382.371 44.7972 384.976 45.6046 387.072 47.2182C387.98 48.0169 388.694 49.0104 389.164 50.1243C389.633 51.2382 389.844 52.4437 389.782 53.6508C389.815 55.5533 389.319 57.4278 388.349 59.0644V59.0644ZM387.093 28.897C385.192 30.6 382.71 31.5079 380.158 31.4334C378.635 31.4447 377.126 31.1308 375.734 30.5129C374.366 29.9099 373.222 28.895 372.459 27.61C371.685 26.3219 371.28 24.8457 371.288 23.3427C371.266 22.1338 371.49 20.933 371.947 19.8135C372.403 18.6939 373.083 17.6791 373.945 16.8307C374.891 15.9338 376.009 15.2375 377.231 14.7837C378.454 14.3299 379.755 14.1279 381.058 14.1898H381.068C383.411 14.0723 385.711 14.8501 387.501 16.3654C388.308 17.1065 388.942 18.0147 389.361 19.0264C389.781 20.0381 389.974 21.1291 389.928 22.2233C389.97 23.475 389.739 24.7209 389.249 25.8738C388.759 27.0266 388.024 28.0584 387.093 28.897V28.897Z" fill="white"/>
<path d="M89.634 66.9619C92.5722 69.6678 96.073 71.6897 99.8852 72.8825C104.052 74.2435 108.41 74.932 112.794 74.922L112.783 74.9326C117.491 74.9536 122.168 74.1682 126.611 72.6105C130.685 71.2303 134.349 68.8535 137.27 65.6962C139.928 62.8471 141.956 59.47 143.222 55.7851C144.404 52.1705 145.001 48.3904 144.99 44.5876C145.01 40.7418 144.344 36.9233 143.024 33.3112C141.717 29.8458 139.635 26.7257 136.936 24.1899C134.014 21.4891 130.552 19.4406 126.779 18.1802C122.724 16.7829 118.463 16.0741 114.174 16.083C109.564 16.0735 104.987 16.8663 100.649 18.426C96.5901 19.8361 92.888 22.1155 89.8016 25.1051C86.985 27.8431 84.8032 31.1657 83.4103 34.8385C82.0588 38.4944 81.375 42.3634 81.3917 46.2611C81.3756 50.1634 82.0777 54.0354 83.4627 57.6837C84.7918 61.2033 86.9018 64.3756 89.634 66.9619V66.9619ZM101.663 46.9516C101.639 44.2167 102.118 41.5007 103.076 38.9389C103.886 36.6479 105.38 34.6602 107.354 33.2431C109.252 31.941 111.507 31.2593 113.808 31.2921V31.3081C115.959 31.2591 118.072 31.8805 119.854 33.0862C121.562 34.2544 122.866 35.9224 123.588 37.8613C124.356 39.9472 124.735 42.1558 124.708 44.3782C124.721 47.1393 124.243 49.8808 123.295 52.4744C122.501 54.815 121.008 56.8557 119.017 58.3215C117.144 59.6376 114.905 60.3328 112.616 60.309C111.134 60.3366 109.665 60.039 108.312 59.4372C106.958 58.8353 105.753 57.9438 104.781 56.8256C102.545 54.0393 101.433 50.5168 101.663 46.9516H101.663Z" fill="white"/>
<path d="M165.995 73.4577C170.178 73.3898 173.965 73.355 177.354 73.3533C180.461 73.3533 184.049 73.3898 188.097 73.4577L190.89 66.3342L204.666 33.2695L211.654 17.5473C208.181 17.6105 204.812 17.6207 201.58 17.6207C198.275 17.6207 194.774 17.5789 191.078 17.4953L182.71 41.742C181.235 45.9784 180.398 48.2905 180.199 48.8029L178.808 53.2905C178.725 53.5518 178.484 53.3948 178.223 53.3948H178.202C177.93 53.3948 177.699 53.5256 177.626 53.2535C175.503 44.4407 173.516 37.0456 171.737 30.6124C170.063 24.6027 168.902 20.2148 168.254 17.5527C165.168 17.6207 161.891 17.6539 158.421 17.6523C155.157 17.6523 151.653 17.6208 147.909 17.5579L160.45 55.5286L165.995 73.4577Z" fill="white"/>
<path d="M210.743 58.756C210.796 61.6745 211.588 64.5319 213.045 67.0614C214.483 69.7299 216.779 71.8359 219.561 73.0394C223.008 74.3974 226.696 75.038 230.399 74.922L230.409 74.9274C233.174 74.9102 235.934 74.6723 238.662 74.2161C239.855 69.6242 240.932 65.9105 241.852 63.1753C240.255 63.7168 238.58 63.9924 236.894 63.9911C235.094 64.1343 233.306 63.5968 231.884 62.485C231.356 62.0193 230.935 61.4459 230.648 60.8035C230.361 60.1612 230.215 59.4648 230.22 58.7612C230.22 57.8803 230.421 57.011 230.806 56.2189C231.271 55.369 231.913 54.6289 232.689 54.0487C233.594 53.3436 234.603 52.7841 235.681 52.3906C236.779 51.9723 238.296 51.4701 240.241 50.8632C242.145 50.2725 243.484 49.828 244.237 49.5297C245.001 49.2421 246.036 48.7611 247.375 48.1017C247.455 48.0569 247.545 48.0318 247.637 48.0284C247.758 48.0284 247.876 48.069 247.972 48.1437C248.061 48.205 248.132 48.2882 248.18 48.3852C248.228 48.4823 248.249 48.5899 248.244 48.6979C247.689 60.7743 247.166 69.1009 246.706 73.4523C250.231 73.3898 253.575 73.3568 256.737 73.3533C260.011 73.3533 263.296 73.395 266.612 73.4523C266.884 61.9301 267.302 52.4479 267.825 45.2617C268.359 37.9764 268.62 33.2484 268.62 31.1875C268.838 27.9382 267.847 24.7231 265.838 22.1605C263.694 19.897 260.946 18.2959 257.919 17.5472C254.196 16.5409 250.353 16.0483 246.497 16.083C237.734 16.2781 229.018 17.425 220.503 19.5036L219.697 25.6439C219.541 26.8988 219.174 29.1058 218.62 32.2025C225.578 29.2061 233.019 27.4875 240.587 27.129C242.46 27.0108 244.326 27.4474 245.953 28.3844C246.588 28.7932 247.106 29.36 247.456 30.0294C247.807 30.6987 247.977 31.4475 247.951 32.2025C247.959 33.4267 247.481 34.6042 246.622 35.4765C246.109 35.9961 245.507 36.4195 244.844 36.7265C243.732 37.2012 242.585 37.5876 241.413 37.8822C239.855 38.3165 238.128 38.7192 236.256 39.1011C232.534 39.8048 228.862 40.7499 225.263 41.9304C222.89 42.6936 220.623 43.7531 218.516 45.0839C216.897 46.1815 215.46 47.5264 214.258 49.0696C213.119 50.4983 212.218 52.102 211.591 53.8185C211.038 55.4064 210.752 57.0747 210.743 58.756V58.756Z" fill="white"/>
<path d="M59.6237 72.7304C63.1803 72.7304 66.9809 72.7602 71.0253 72.8199L71.308 61.167L73.6404 16.6742L74.7704 2.00354C69.9584 2.07154 67.0192 2.09777 65.9415 2.09777C63.6403 2.10791 60.6384 2.07677 56.9564 2.01355C56.9249 6.28161 56.7262 13.4469 56.3497 23.3216C55.9523 34.0694 55.5441 42.5892 55.1569 48.6514C55.1311 48.9521 54.9971 49.2334 54.7798 49.4429C54.5624 49.6524 54.2765 49.7761 53.975 49.7909C53.7548 49.7887 53.5395 49.7255 53.353 49.6082C53.1666 49.491 53.0163 49.3244 52.9188 49.1269L49.9062 43.0337L28.2115 2.01358C23.2323 2.07158 19.3832 2.10794 16.5902 2.10794C12.7615 2.10794 10.0629 2.07156 3.69275 2.01358V9.19509L3.02332 24.6237L0.90991 62.898L0 72.8146C4.48743 72.7566 7.60461 72.7256 9.33069 72.7256C11.3599 72.7304 14.226 72.76 17.9292 72.8146L18.4208 52.5685L19.5294 27.1183C19.5531 26.8119 19.687 26.5244 19.9063 26.3091C20.1255 26.0938 20.4154 25.9652 20.7222 25.9471C20.9453 25.9454 21.1643 26.0075 21.3533 26.1261C21.5423 26.2448 21.6934 26.4149 21.7889 26.6166C23.4627 30.0474 25.0945 33.2484 26.6841 36.1459C29.1322 40.8058 31.7891 45.6388 34.5607 50.5028L43.2428 65.8323C44.0482 67.3073 45.2718 69.6396 46.8937 72.8199V72.83C52.2701 72.7621 56.5135 72.7289 59.6237 72.7304Z" fill="white"/>
<path d="M9.60168 128.922C12.0187 127.421 14.2534 125.644 16.2607 123.627C18.2082 125.647 20.39 127.427 22.7597 128.929V123.969C21.4045 122.748 20.199 121.37 19.1684 119.865C21.2207 116.332 22.4178 111.43 22.7597 105.157H17.6289C17.5071 108.051 17.0479 110.921 16.2607 113.708C15.4844 110.923 15.082 108.048 15.064 105.157H9.59131C9.93311 111.429 11.1872 116.389 13.3535 120.035C12.1919 121.432 10.9348 122.746 9.59131 123.969V128.913C9.34123 128.675 9.14937 128.384 9.0307 128.06C8.91203 127.736 8.86978 127.39 8.90723 127.047V103.618H22.7598V98.8295H3.09229V128.929C2.97754 132.234 4.51676 133.83 7.70996 133.717H21.2207V129.271H10.7886C10.3651 129.291 9.94719 129.168 9.60168 128.922V128.922Z" fill="white"/>
<path d="M32.3369 97.974C32.4217 97.754 32.4791 97.5244 32.5078 97.2904H26.0093C25.5522 102.651 24.4121 106.641 22.5889 109.261V114.221C24.7039 112.919 26.6559 111.369 28.4033 109.604V110.972C28.4033 116.217 27.9473 120.207 27.0352 122.943C25.9993 126.187 24.1781 129.124 21.7334 131.495V136.624C26.6343 134.116 29.9977 130.809 31.8237 126.705C34.1442 130.843 37.6616 134.181 41.9141 136.283V131.152C37.0103 126.593 34.73 119.924 35.0732 111.143V108.748H28.9165C29.7426 107.667 30.3787 106.452 30.7974 105.157H36.0991V111.485H41.9141V100.369H32.1655C32.1807 99.5679 32.2379 98.7686 32.3369 97.974V97.974Z" fill="white"/>
<path d="M98.419 123.969C99.899 120.094 101.096 114.621 102.01 107.551H95.5113C95.1743 113.104 94.2572 118.607 92.775 123.969H98.419Z" fill="white"/>
<path d="M63.873 134.914H102.694V130.126H92.2622V103.618H102.181V98.6586H64.3857V103.618H74.3052V130.126H63.873V134.914ZM81.4878 103.618H85.0791V130.126H81.4878V103.618Z" fill="white"/>
<path d="M70.8848 107.551H64.3858C65.2974 114.621 66.4947 120.094 67.9776 123.969H73.6211C72.1374 118.607 71.2203 113.104 70.8848 107.551V107.551Z" fill="white"/>
<path d="M153.213 136.283V128.929H157.831V125.85C159.462 128.323 161.418 130.566 163.645 132.52V127.047C161.021 122.032 159.824 115.419 160.054 107.209H162.79V102.42H153.213V97.1195H146.201V102.42H136.966V107.209H139.36C139.587 115.418 138.447 122.031 135.94 127.047V132.52C138.129 130.69 139.981 128.491 141.413 126.022V128.929H146.201V136.283L153.213 136.283ZM153.213 107.209H154.239C154.124 115.191 155.093 120.948 157.146 124.482H153.213V107.209ZM142.268 124.482C144.205 120.608 145.231 114.85 145.346 107.209H146.201V124.482H142.268Z" fill="white"/>
<path d="M131.151 97.1195C129.896 103.618 127.672 107.893 124.482 109.946V114.221C124.866 114.061 125.268 113.946 125.679 113.879C126.817 113.537 127.616 113.309 128.073 113.195V136.283H134.914V107.038C136.475 103.893 137.624 100.559 138.334 97.1195H131.151Z" fill="white"/>
<path d="M210.23 97.1195H201.338V99.3422H186.117V104.131H195.865C194.393 105.152 192.85 106.066 191.248 106.868C190.974 107.056 190.688 107.228 190.393 107.38V111.997H199.285C206.58 111.771 212.053 111.486 215.703 111.143L215.875 111.488C215.968 111.822 216.025 112.165 216.045 112.511H223.228C221.938 109.781 220.268 107.248 218.269 104.986H211.77C212.339 105.67 212.852 106.298 213.309 106.868C211.483 107.097 209.659 107.268 207.836 107.38H199.798C200.025 107.268 200.368 107.097 200.824 106.868C202.313 106.058 203.741 105.144 205.1 104.131H225.28V99.3422H210.23V97.1195Z" fill="white"/>
<path d="M189.88 136.112H197.233V129.955H214.506V130.297C214.618 131.553 214.105 132.123 212.967 132.007H211.599V136.112H216.729C220.377 136.224 222.144 134.4 222.031 130.639V113.366H189.88V136.112ZM197.233 117.813H214.506V119.865H197.233V117.813ZM197.233 123.969H214.506V125.85H197.233V123.969Z" fill="white"/>
<path d="M87.6021 166.955L91.5825 160.803C94.3491 156.546 94.5595 155.706 94.4126 154.345C94.3618 153.878 94.1372 153.386 93.5835 153.446C92.6909 153.542 91.1621 156.117 90.7251 156.851L84.0728 167.337L77.6065 168.811L81.8599 163.189C83.3638 161.176 85.6392 158.349 85.354 155.712C85.1284 153.628 83.8403 151.659 80.311 152.04C76.0671 152.652 71.926 153.838 68.0014 155.566C65.6606 156.593 58.812 159.701 57.4697 161.61C56.7688 163.121 56.4461 164.78 56.5293 166.444C56.6123 167.208 57.0381 168.367 58.0166 168.261C58.6134 168.127 59.1726 167.86 59.6533 167.482C61.3788 166.199 63.2361 165.105 65.1938 164.216C65.6855 163.99 66.2109 163.676 66.1464 163.08C66.1049 162.698 65.7939 162.602 65.4819 162.507C72.143 158.861 77.331 156.708 79.5844 156.465C80.0947 156.411 81.0918 156.474 81.1743 157.239C81.2661 158.089 80.1938 159.711 79.7055 160.367C76.4228 165.023 73.7202 168.671 72.2739 170.419C65.9438 172.352 65.9341 172.653 65.4658 172.704C65.1255 172.741 64.7534 172.48 64.4555 172.513C63.3076 172.637 62.3178 175.023 62.4238 176.001C62.58 177.447 64.0005 177.853 66.9502 177.276C66.4785 178.489 63.7768 181.749 63.9052 182.94C64.0349 183.433 64.3351 183.865 64.7527 184.159C65.1702 184.452 65.6782 184.588 66.1865 184.542C67.2075 184.432 67.9594 182.63 68.3911 181.852L72.2524 176.186L79.9668 174.32C79.0451 176.375 78.4398 178.559 78.1714 180.795C78.0962 182.094 78.416 182.662 79.1665 182.839C80.3135 183.101 82.2573 180.784 83.6499 180.934C83.3254 180.125 83.0763 179.287 82.9057 178.432C82.768 177.158 84.1255 174.989 84.644 173.814C86.0824 173.527 87.5571 173.469 89.0136 173.642C90.13 171.311 91.6487 169.195 93.5 167.392C91.6416 166.519 89.5625 166.787 87.6021 166.955Z" fill="white"/>
<path d="M96.397 161.143C97.5945 160.922 98.8144 160.848 100.03 160.921C101.42 160.941 102.805 161.094 104.166 161.378C104.632 161.523 105.119 161.587 105.606 161.567C105.903 161.535 106.197 161.46 106.16 161.12C106.054 160.77 105.877 160.446 105.639 160.168C105.402 159.891 105.11 159.665 104.781 159.506C103.045 158.91 101.256 158.484 99.4375 158.233L96.8457 157.739C96.4054 157.635 95.952 157.597 95.5005 157.626C94.4375 157.742 94.709 158.659 94.7202 159.56C94.7812 161.317 94.6675 161.46 96.397 161.143Z" fill="white"/>
<path d="M125.099 173.14C124.418 173.213 123.749 172.985 123.67 172.263C123.454 170.263 126.832 166.887 126.685 165.526C126.667 165.136 126.516 164.763 126.257 164.47C125.999 164.178 125.648 163.982 125.263 163.916C125.632 163.747 126.691 163.203 126.636 162.692C126.433 162.09 126.019 161.581 125.47 161.261C124.921 160.94 124.275 160.83 123.651 160.95C119.52 161.505 111.478 166.277 109.449 170.928C108.479 171.968 107.513 173.131 105.94 173.017C106.569 171.271 107.259 169.691 107.056 167.82C106.918 166.544 106.567 165.679 105.254 165.477C105.694 165.171 106.177 164.861 106.108 164.223C105.984 163.075 104.535 162.802 103.604 162.945C100.72 163.479 98.0652 164.876 95.9922 166.952C93.8091 169.038 92.4653 171.333 92.895 174.514C93.4834 178.365 95.7642 180.356 97.9756 180.117C99.2228 179.931 100.418 179.489 101.486 178.818C102.553 178.147 103.471 177.262 104.179 176.219C106.038 176.115 107.795 175.339 109.123 174.035C109.736 176.107 112.191 178.278 113.295 178.159C114.272 178.052 116.754 175.548 117.494 174.823L121.065 171.253L121.16 171.329C120.519 172.897 120.161 174.567 120.102 176.261C120.096 176.552 120.153 176.84 120.27 177.107C120.386 177.373 120.558 177.611 120.775 177.804C120.993 177.997 121.249 178.141 121.527 178.226C121.805 178.311 122.098 178.334 122.386 178.294C124.47 178.07 129.676 172.904 131.279 170.622L130.769 169.085C129.074 170.516 126.885 172.947 125.099 173.14ZM100.604 172.992C100.701 173.671 100.947 174.32 101.325 174.893C100.443 175.891 99.6382 176.796 98.2349 176.948C97.1714 177.063 96.3227 176.767 96.189 175.535C96.1322 174.055 96.5998 172.603 97.5093 171.434C98.834 170.072 100.304 168.86 101.894 167.82C102.073 167.885 100.365 170.781 100.604 172.992ZM113.171 175.032C112.547 175.228 112.295 174.482 112.229 174.273C112.004 172.189 112.956 169.462 122.741 165.263L122.836 165.34C115.335 174.754 114.004 174.77 113.171 175.032V175.032Z" fill="white"/>
<path d="M175.712 145.083C174.344 144.757 170.941 150.288 171.699 152.916C164.333 167.952 162.45 169.231 161.342 169.737C160.439 170.137 159.996 168.42 159.97 167.391C159.922 166.148 160.958 162.207 167.26 149.265C167.649 148.494 168.618 146.71 168.526 145.861C168.461 145.263 166.845 142.643 165.318 142.85C162.267 143.267 150.213 151.152 148.146 153.526C147.509 154.314 147.04 155.225 146.768 156.201C146.496 157.178 146.427 158.2 146.566 159.204C146.621 159.714 146.938 161.443 147.745 161.356C148.426 161.283 150.836 159.301 154.623 158.118C154.954 157.996 156.47 157.703 156.401 157.065C156.333 156.427 154.995 156.788 154.655 156.824L152.287 157.208L152.193 157.133C155.159 153.93 158.869 151.636 162.499 149.394L162.593 149.47C155.957 163.695 155.672 167.425 155.813 169.131C156.073 172.329 159.552 174.663 161.252 174.48C163.549 174.232 166.896 168.191 168.064 166.257C177.372 150.882 177.653 145.518 175.712 145.083Z" fill="white"/>
<path d="M177.134 150.65C177.194 152.407 177.081 152.55 178.81 152.233C180.008 152.012 181.227 151.938 182.443 152.011C183.833 152.031 185.218 152.184 186.579 152.468C187.045 152.613 187.532 152.677 188.019 152.657C188.317 152.624 188.61 152.55 188.573 152.209C188.467 151.86 188.29 151.536 188.053 151.258C187.815 150.981 187.523 150.755 187.194 150.596C185.459 150 183.669 149.574 181.852 149.323L179.259 148.828C178.819 148.725 178.365 148.687 177.914 148.716C176.851 148.831 177.122 149.748 177.134 150.65Z" fill="white"/>
<path d="M207.107 162.079C207.735 160.333 208.425 158.753 208.223 156.882C208.085 155.607 207.733 154.742 206.421 154.538C206.861 154.234 207.344 153.923 207.275 153.286C207.151 152.137 205.702 151.864 204.771 152.007C201.886 152.541 199.232 153.938 197.16 156.013C195.218 157.869 193.949 159.893 193.992 162.554C192.36 163.999 190.368 166.083 188.716 166.262C188.036 166.335 187.366 166.106 187.288 165.384C187.071 163.384 190.449 160.009 190.302 158.648C190.284 158.258 190.133 157.885 189.875 157.592C189.616 157.3 189.265 157.104 188.88 157.038C189.249 156.869 190.309 156.325 190.253 155.814C190.051 155.212 189.637 154.703 189.088 154.383C188.539 154.063 187.893 153.952 187.269 154.072C182.351 154.733 171.882 161.372 172.627 166.667C172.951 168.871 175.721 171.41 176.912 171.281C177.89 171.174 180.373 168.67 181.111 167.945L184.683 164.375L184.777 164.451C184.136 166.019 183.778 167.689 183.719 169.383C183.713 169.674 183.77 169.962 183.887 170.229C184.003 170.495 184.176 170.733 184.393 170.926C184.61 171.12 184.866 171.263 185.144 171.348C185.422 171.433 185.715 171.456 186.003 171.416C187.87 171.215 192.231 167.058 194.276 164.551C195.075 167.749 197.13 169.397 199.142 169.179C200.389 168.993 201.584 168.551 202.652 167.88C203.72 167.209 204.637 166.325 205.346 165.282C206.701 165.204 208.013 164.778 209.155 164.043C210.296 163.309 211.229 162.292 211.861 161.091L211.243 159.353C210.031 160.472 209.015 162.217 207.107 162.079ZM176.789 168.154C176.165 168.35 175.912 167.604 175.846 167.395C175.621 165.311 176.574 162.584 186.358 158.385L186.453 158.462C178.953 167.876 177.621 167.892 176.789 168.154ZM201.771 162.054C201.868 162.733 202.114 163.383 202.492 163.955C201.61 164.954 200.805 165.859 199.401 166.01C198.339 166.125 197.489 165.829 197.356 164.596C197.299 163.116 197.767 161.664 198.676 160.496C200.001 159.134 201.471 157.923 203.061 156.882C203.239 156.948 201.531 159.843 201.771 162.054V162.054Z" fill="white"/>
<path d="M341.977 135.367C341.509 135.417 340.252 136.93 339.987 137.259L337.139 140.364C336.328 141.226 335.318 142.625 335.456 143.902C335.484 144.202 335.577 144.492 335.729 144.752C335.882 145.011 336.09 145.234 336.338 145.405C336.586 145.575 336.869 145.688 337.166 145.737C337.464 145.785 337.768 145.767 338.058 145.685C343.328 144.297 353.123 132.226 352.204 126.517C351.787 123.853 349.981 122.67 347.431 122.947C342.37 123.494 334.176 131.262 330.934 135.098C327 139.697 322.496 146.98 323.172 153.232C323.7 158.12 327.42 160.687 332.14 160.176C336.137 159.744 342.92 156.43 350.348 147.539C351.798 145.833 352.413 145.164 352.052 143.009C348.398 147.019 339.797 155.004 334.439 155.583C331.378 155.914 329.738 154.284 329.412 151.265C329.063 148.033 330.722 143.079 333.321 139.27C341.642 127.1 346.471 126.407 347.213 126.111C347.875 125.867 348.375 126.114 348.453 126.836C348.605 128.241 346.34 132.356 342.602 136.374L342.507 136.298C342.646 135.595 342.401 135.321 341.977 135.367Z" fill="white"/>
<path d="M406.416 139.67C404.885 139.835 404.35 143.637 404.51 145.126C404.636 145.682 404.963 146.171 405.427 146.502C405.892 146.832 406.461 146.98 407.027 146.917C408.983 146.706 409.507 143.595 409.346 142.107C409.276 141.397 408.93 140.743 408.381 140.287C407.833 139.831 407.127 139.609 406.416 139.67V139.67Z" fill="white"/>
<path d="M416.713 117.133C416.64 116.453 415.388 116.417 414.948 116.335C414.345 116.226 413.734 116.163 413.121 116.145C412.016 116.265 411.775 117.624 411.485 118.517L406.97 132.856C406.488 134.085 406.193 135.379 406.095 136.695C406.205 137.715 407.916 138.821 408.894 138.715C409.744 138.623 410.178 137.457 410.095 136.692C410.056 136.438 409.956 136.198 409.804 135.992L415.811 120.328C416.27 119.315 416.574 118.238 416.713 117.133V117.133Z" fill="white"/>
<path d="M397.771 131.744C399.601 131.545 400.948 129.291 400.765 127.59C400.742 127.411 400.683 127.239 400.593 127.083C400.502 126.927 400.381 126.791 400.237 126.682C400.093 126.573 399.929 126.495 399.754 126.451C399.579 126.407 399.397 126.398 399.219 126.425C397.561 126.604 395.685 128.355 395.873 130.099C395.882 130.334 395.94 130.565 396.042 130.777C396.144 130.989 396.288 131.178 396.466 131.333C396.644 131.487 396.852 131.603 397.076 131.673C397.301 131.744 397.537 131.768 397.771 131.744Z" fill="white"/>
<path d="M394.887 144.057C392.932 144.269 392.192 143.403 392.344 141.622C393.996 140.196 397.797 135.956 397.567 133.83C397.466 132.895 396.29 132.764 395.567 132.842C393.586 133.057 390.28 136.503 389.158 140.461L389.04 140.129C387.828 141.249 386.811 142.994 384.904 142.856C385.533 141.111 386.223 139.531 386.02 137.66C386.022 137.3 385.952 136.945 385.814 136.613C385.677 136.281 385.474 135.98 385.219 135.728C385.679 135.585 386.104 135.344 386.463 135.023C387.606 133.588 388.608 132.045 389.455 130.417L390.789 128.14C391.035 127.76 391.223 127.346 391.347 126.91C391.595 125.87 390.64 125.819 389.787 125.527C388.112 124.995 388.014 124.84 387.733 126.575C387.54 127.778 387.2 128.952 386.723 130.072C386.25 131.332 385.665 132.548 384.976 133.705C384.619 132.86 383.392 132.657 382.567 132.784C379.683 133.319 377.029 134.715 374.956 136.79C372.962 138.696 371.687 140.783 371.804 143.552C370.474 144.685 368.117 146.736 366.883 146.869C366.763 146.89 366.639 146.885 366.521 146.856C366.403 146.827 366.291 146.774 366.195 146.699C366.098 146.625 366.017 146.532 365.958 146.425C365.899 146.319 365.862 146.201 365.851 146.079C365.805 145.654 365.663 145.539 367.955 142.066C368.4 141.413 369.9 139.36 369.813 138.551C369.712 138.029 369.429 137.559 369.015 137.226C368.601 136.893 368.081 136.718 367.55 136.732C365.212 136.985 358.208 144.625 356.303 146.508L356.124 144.85C358.556 141.876 370.561 126.382 370.248 123.491C370.156 122.64 368.976 122.467 368.296 122.54C366.851 122.697 359.192 131.052 355.071 139.887C353.845 142.472 352.96 144.632 353.277 147.567C353.383 148.544 353.954 151.839 355.442 151.678C356.804 151.531 358.442 146.793 365.176 141.033L365.27 141.108C363.955 143.272 361.371 146.822 361.66 149.5C361.662 149.781 361.722 150.059 361.836 150.316C361.949 150.573 362.114 150.805 362.32 150.996C362.526 151.187 362.769 151.334 363.034 151.428C363.299 151.522 363.58 151.561 363.86 151.542C365.977 151.313 370.015 147.43 372.095 145.433C372.912 148.564 374.947 150.172 376.938 149.956C378.186 149.771 379.381 149.328 380.449 148.658C381.516 147.987 382.434 147.102 383.142 146.059C384.238 146.003 385.308 145.711 386.28 145.201C387.252 144.692 388.101 143.978 388.77 143.109C388.769 143.387 388.781 143.664 388.809 143.941C389.043 146.11 390.504 148.876 393.013 148.605C396.244 148.255 399.572 144.024 401.232 141.478L400.676 139.904C399.108 141.321 397.141 143.814 394.887 144.057ZM379.567 142.831C379.664 143.511 379.911 144.16 380.289 144.733C379.407 145.731 378.603 146.636 377.198 146.787C376.136 146.903 375.286 146.606 375.153 145.373C375.096 143.894 375.564 142.441 376.474 141.273C377.798 139.912 379.268 138.7 380.857 137.66C381.037 137.725 379.328 140.621 379.567 142.831V142.831Z" fill="white"/>
<path d="M244.679 145.886C244.211 145.937 242.955 147.449 242.689 147.779L239.842 150.883C239.031 151.746 238.021 153.145 238.158 154.421C238.186 154.721 238.279 155.012 238.432 155.271C238.584 155.531 238.792 155.754 239.041 155.924C239.289 156.095 239.572 156.208 239.869 156.256C240.167 156.305 240.471 156.287 240.761 156.205C246.031 154.817 255.825 142.745 254.907 137.037C254.489 134.372 252.684 133.19 250.133 133.466C245.072 134.013 236.878 141.782 233.637 145.617C229.703 150.215 225.199 157.499 225.875 163.75C226.403 168.639 230.122 171.206 234.842 170.696C238.839 170.264 245.622 166.95 253.05 158.059C254.5 156.353 255.116 155.684 254.754 153.529C251.101 157.537 242.499 165.524 237.142 166.103C234.08 166.434 232.441 164.803 232.115 161.785C231.766 158.552 233.424 153.599 236.023 149.789C244.345 137.62 249.173 136.925 249.916 136.63C250.577 136.385 251.077 136.633 251.155 137.356C251.308 138.76 249.042 142.875 245.304 146.894L245.209 146.818C245.349 146.115 245.104 145.84 244.679 145.886Z" fill="white"/>
<path d="M299.937 154.796C297.726 155.036 296.563 153.828 296.457 152.849C296.328 151.66 297.024 150.939 297.887 150.157L301.168 147.092C301.299 147.895 301.839 148.912 302.816 148.807C303.965 148.683 306.97 145.045 306.717 142.706C306.73 142.439 306.681 142.173 306.573 141.928C306.465 141.684 306.301 141.468 306.094 141.298C305.888 141.128 305.645 141.009 305.384 140.95C305.123 140.89 304.852 140.893 304.593 140.957C302.211 141.214 298.377 143.952 296.62 145.604C294.727 147.381 293.617 148.644 293.334 150.653L293.274 150.484C292.062 151.604 291.046 153.349 289.139 153.21C289.767 151.464 290.456 149.884 290.254 148.013C290.116 146.738 289.765 145.872 288.452 145.67C288.893 145.365 289.375 145.054 289.306 144.416C289.182 143.268 287.732 142.996 286.802 143.138C283.917 143.672 281.263 145.069 279.19 147.145C278.266 147.909 277.508 148.854 276.964 149.922C276.42 150.991 276.101 152.16 276.027 153.356C274.55 154.807 271.975 157.217 270.614 157.365C269.935 157.438 269.523 157.224 269.45 156.544C269.243 154.631 271.899 150.945 273.127 149.565C273.743 148.895 274.785 147.792 274.59 146.783C274.181 144.59 273.699 144.512 273.359 144.549C272.296 144.664 268.565 149.154 267.76 150.059L263.959 154.298C262.154 156.299 259.948 157.787 259.184 157.87C258.885 157.902 258.797 157.482 258.773 157.269C258.581 155.482 259.5 154.437 260.718 153.359C261.851 152.375 262.829 151.224 263.618 149.948C264.305 149.273 264.806 148.433 265.075 147.509C265.107 146.216 262.98 146.833 262.385 146.898C261.723 146.926 261.086 147.159 260.563 147.567C258.036 149.647 255.307 154.245 255.753 158.369C255.95 160.197 257.355 162.455 259.439 162.229C261.777 161.976 264.213 157.841 265.715 156.216L265.81 156.292C265.416 157.474 265.244 158.718 265.303 159.961C265.311 160.316 265.391 160.665 265.539 160.987C265.687 161.309 265.899 161.598 266.162 161.835C266.426 162.072 266.735 162.253 267.071 162.367C267.406 162.48 267.762 162.524 268.115 162.496C270.833 162.202 274.168 158.154 276.279 155.562C277.057 158.837 279.136 160.53 281.173 160.31C282.42 160.124 283.615 159.682 284.683 159.011C285.751 158.34 286.668 157.456 287.377 156.412C288.564 156.353 289.722 156.017 290.756 155.431C291.791 154.846 292.675 154.027 293.337 153.039C293.684 156.176 295.587 159.052 298.853 158.699C302.893 158.262 307.2 153.537 309.495 150.494L308.806 148.89C306.546 151.07 303.168 154.447 299.937 154.796ZM283.802 153.185C283.899 153.864 284.145 154.513 284.522 155.086C283.642 156.084 282.836 156.99 281.433 157.141C280.369 157.256 279.521 156.96 279.387 155.728C279.33 154.248 279.797 152.796 280.707 151.627C282.032 150.266 283.502 149.054 285.092 148.013C285.271 148.079 283.563 150.974 283.802 153.185Z" fill="white"/>
<path d="M284.074 163.84C283.839 163.684 283.573 163.581 283.294 163.538C283.015 163.496 282.731 163.515 282.46 163.594C281.839 163.741 281.286 164.095 280.894 164.599C280.49 165.066 280.276 165.668 280.295 166.286C280.296 166.554 280.363 166.817 280.488 167.054C280.614 167.29 280.795 167.493 281.016 167.644C281.249 167.803 281.515 167.908 281.795 167.953C282.074 167.998 282.359 167.981 282.631 167.903C283.253 167.752 283.805 167.393 284.195 166.885C284.595 166.42 284.809 165.824 284.796 165.211C284.798 164.94 284.733 164.674 284.607 164.435C284.481 164.196 284.298 163.992 284.074 163.84Z" fill="white"/>
<path d="M280.314 140.101C281.947 139.197 283.511 138.174 284.995 137.042L286.626 135.895L287.423 137.042C288.085 138.178 288.912 139.208 289.877 140.101C290.143 140.232 290.437 140.293 290.732 140.279C291.028 140.264 291.315 140.175 291.566 140.018C291.676 139.941 291.758 139.829 291.798 139.7C291.838 139.572 291.834 139.434 291.787 139.308C291.688 138.959 291.504 138.639 291.253 138.378C290.643 137.54 290.15 136.622 289.787 135.651C289.391 134.755 289.13 133.806 289.011 132.833C288.857 131.659 287.48 131.659 286.47 132.833C285.604 133.846 284.658 134.788 283.643 135.651C282.555 136.637 281.403 137.548 280.193 138.378C279.753 138.638 279.346 138.95 278.982 139.308C278.754 139.548 278.545 139.814 278.685 140.018C278.949 140.4 279.784 140.309 280.314 140.101Z" fill="white"/>
</g>
<defs>
<clipPath id="clip0_5425_442116">
<rect width="416.719" height="184.552" fill="white"/>
</clipPath>
</defs>
</svg>
