<?xml version="1.0" encoding="utf-8"?>
<!-- Generator: Adobe Illustrator 24.0.2, SVG Export Plug-In . SVG Version: 6.00 Build 0)  -->
<svg version="1.1" id="圖層_1" xmlns="http://www.w3.org/2000/svg" xmlns:xlink="http://www.w3.org/1999/xlink" x="0px" y="0px"
	 viewBox="0 0 24 24" style="enable-background:new 0 0 24 24;" xml:space="preserve">
<style type="text/css">
	.st0{fill:#FFFFFF;}
</style>
<path class="st0" d="M20.1,17.6c-0.3,0.7-0.7,1.3-1.1,1.9c-0.6,0.8-1,1.4-1.4,1.7c-0.6,0.5-1.1,0.8-1.8,0.8c-0.5,0-1-0.1-1.6-0.4
	c-0.6-0.3-1.2-0.4-1.8-0.4c-0.6,0-1.2,0.1-1.8,0.4C9.9,21.8,9.4,22,9,22c-0.6,0-1.2-0.2-1.8-0.8c-0.4-0.3-0.9-0.9-1.4-1.7
	c-0.6-0.9-1.1-1.9-1.5-3c-0.4-1.3-0.6-2.5-0.6-3.6c0-1.3,0.3-2.5,0.9-3.5c0.5-0.8,1.1-1.4,1.8-1.8C7,7,7.8,6.8,8.7,6.8
	c0.5,0,1.1,0.1,1.9,0.4c0.8,0.3,1.3,0.4,1.5,0.4c0.2,0,0.7-0.2,1.7-0.5c0.9-0.3,1.7-0.5,2.3-0.4c1.7,0.1,2.9,0.8,3.8,2
	c-1.5,0.9-2.2,2.2-2.2,3.8c0,1.3,0.5,2.3,1.4,3.2c0.4,0.4,0.9,0.7,1.4,0.9C20.3,17,20.2,17.3,20.1,17.6L20.1,17.6z M16.2,2.4
	c0,1-0.4,1.9-1.1,2.8c-0.9,1-1.9,1.6-3.1,1.5c0-0.1,0-0.2,0-0.4c0-1,0.4-2,1.2-2.8c0.4-0.4,0.8-0.8,1.4-1.1C15.1,2.2,15.7,2,16.2,2
	C16.2,2.1,16.2,2.3,16.2,2.4L16.2,2.4z"/>
</svg>
