<?xml version="1.0" encoding="utf-8"?>
<!-- Generator: Adobe Illustrator 24.0.2, SVG Export Plug-In . SVG Version: 6.00 Build 0)  -->
<svg version="1.1" id="圖層_1" xmlns="http://www.w3.org/2000/svg" xmlns:xlink="http://www.w3.org/1999/xlink" x="0px" y="0px"
	 viewBox="0 0 24 24" style="enable-background:new 0 0 24 24;" xml:space="preserve">
<style type="text/css">
	.st0{fill:#FFFFFF;}
</style>
<g>
	<path class="st0" d="M19.2,7.8C18.5,7.8,18,8.3,18,9v5.2c0,0.6,0.5,1.2,1.2,1.2s1.2-0.5,1.2-1.2V9C20.3,8.3,19.8,7.8,19.2,7.8z"/>
	<path class="st0" d="M4.8,7.8C4.2,7.8,3.7,8.3,3.7,9v5.2c0,0.6,0.5,1.2,1.2,1.2c0.6,0,1.2-0.5,1.2-1.2V9C6,8.3,5.5,7.8,4.8,7.8z"/>
	<path class="st0" d="M14.7,3.5l0.9-1.2c0.1-0.1,0-0.2-0.1-0.3c-0.1-0.1-0.2,0-0.3,0.1l-0.9,1.3C13.7,3.1,12.9,3,12,3
		c-0.9,0-1.7,0.1-2.3,0.4L8.8,2C8.7,1.9,8.6,1.9,8.5,2C8.4,2,8.3,2.2,8.4,2.3l0.9,1.2c-2.6,1.2-2.7,4-2.7,4h10.8
		C17.4,7.5,17.3,4.7,14.7,3.5z M9.6,5.8C9.3,5.8,9,5.5,9,5.2s0.3-0.6,0.6-0.6s0.6,0.3,0.6,0.6S10,5.8,9.6,5.8z M14.4,5.8
		c-0.4,0-0.6-0.3-0.6-0.6s0.3-0.6,0.6-0.6S15,4.8,15,5.2S14.7,5.8,14.4,5.8z"/>
	<path class="st0" d="M6.6,17.3c0,0.4,0.3,0.6,0.6,0.6h1.4v2.9c0,0.6,0.5,1.2,1.2,1.2c0.6,0,1.2-0.5,1.2-1.2V18h2.1v2.9
		c0,0.6,0.5,1.2,1.2,1.2s1.2-0.5,1.2-1.2V18h1.4c0.4,0,0.6-0.3,0.6-0.6V8.2H6.6V17.3z"/>
</g>
</svg>
