<?xml version="1.0" encoding="utf-8"?>
<!-- Generator: Adobe Illustrator 24.0.2, SVG Export Plug-In . SVG Version: 6.00 Build 0)  -->
<svg version="1.1" id="圖層_1" xmlns="http://www.w3.org/2000/svg" xmlns:xlink="http://www.w3.org/1999/xlink" x="0px" y="0px"
	 viewBox="0 0 280 280" style="enable-background:new 0 0 280 280;" xml:space="preserve">
<style type="text/css">
	.st0{fill:#FFFFFF;}
</style>
<rect y="0" class="st0" width="280" height="280"/>
<path d="M74.4,24.5v6.2h12.5v-6.2H74.4z M174.3,24.5h-6.2v6.2h6.2V24.5z M205.6,24.5h-12.5v6.2h12.5V24.5z M211.8,24.5v43.7h43.7
	V24.5H211.8z M249.3,62H218V30.7h31.2V62z M99.4,37v-6.2h6.2v-6.2H93.2v6.2h-6.2v12.5h6.2V37H99.4z M149.4,30.7h6.2v-6.2h-12.5v6.2
	h-6.2V37h12.5V30.7z M186.8,24.5h-6.2V37h6.2V24.5z M124.4,37h6.2V24.5h-6.2v6.2h-6.2v12.5h6.2V37z M136.9,43.2V37h-6.2v6.2H136.9z
	 M161.9,43.2V30.7h-6.2v12.5H161.9z M168.1,37v6.2h12.5V37H168.1z M243,37h-18.7v18.7H243V37z M99.4,43.2h-6.2v6.2h6.2V43.2z
	 M149.4,49.5h6.2v-6.2h-6.2V49.5z M55.7,37H37v18.7h18.7V37z M161.9,55.7v-6.2h-6.2v6.2H161.9z M174.3,49.5h-6.2v6.2h6.2V49.5z
	 M143.1,55.7V62h6.2v6.2h6.2V55.7H143.1z M68.2,24.5H24.5v43.7h43.7V24.5z M62,62H30.7V30.7H62V62z M136.9,68.2h6.2V62h-6.2V68.2z
	 M136.9,62V49.5h-6.2v6.2h-6.2v-6.2h-6.2v-6.2h-6.2V37h-6.2v12.5h6.2v18.7h6.2V62h6.2v6.2h-6.2v6.2h6.2v6.2h6.2V62H136.9z
	 M24.5,74.4v6.2h6.2v-6.2H24.5z M55.7,80.7v-6.2h-6.2v6.2H55.7z M249.3,80.7h6.2v-6.2h-6.2V80.7z M30.7,80.7v6.2h12.5v-6.2H30.7z
	 M193.1,86.9v6.2h6.2V80.7h-18.7v6.2H193.1z M236.8,86.9h-6.2v-6.2h6.2v-6.2h-31.2v12.5h6.2v-6.2h12.5v12.5h6.2v12.5h-6.2v6.2H218
	v12.5h12.5v-6.2h6.2v6.2h-6.2v6.2h6.2v6.2h-6.2v-6.2h-6.2v6.2H218v12.5h-12.5v6.2h-6.2v-6.2h-6.2v18.7h18.7v-12.5h6.2v12.5h-6.2v6.2
	h-6.2v6.2h-6.2v-6.2h-6.2v18.7h-6.2v6.2h6.2v6.2h6.2V218h-12.5v6.2h12.5v6.2h-6.2V243h-6.2v6.2h6.2v6.2h6.2V243h6.2v-6.2h6.2v12.5
	h6.2v-12.5h6.2v-6.2h25v-6.2H243V218h-12.5v-12.5H243v6.2h6.2v-6.2h6.2v-12.5h-18.7v6.2H218v-6.2h-6.2v-6.2h6.2v-6.2h6.2v-6.2h6.2
	v-6.2h6.2v6.2h-6.2v6.2h-6.2v6.2H243v-6.2h12.5v-12.5H243v-6.2h-12.5v-6.2h-6.2v-6.2h6.2v-6.2h6.2v6.2h12.5v-6.2H243v-6.2h6.2v-6.2
	H243v-12.5h6.2v-12.5h6.2v-6.2h-6.2v-6.2H243v-6.2h6.2v-6.2h-12.5V86.9z M199.3,193.1v-6.2h6.2v6.2H199.3z M224.3,205.6v18.7h-18.7
	v-18.7H224.3z M243,111.9h-6.2v-6.2h6.2V111.9z M49.5,86.9h-6.2v6.2h6.2V86.9z M68.2,99.4H62v6.2h12.5v-6.2h6.2v-6.2h-6.2v-6.2H55.7
	v6.2h12.5V99.4z M218,93.2v-6.2h-6.2v6.2H218z M55.7,99.4v-6.2h-6.2v6.2H55.7z M86.9,99.4h-6.2v6.2h6.2v6.2h6.2v6.2h6.2v-6.2h6.2
	v12.5h6.2v-12.5h6.2v6.2h12.5v6.2h6.2v6.2h6.2v6.2h6.2v6.2h6.2v6.2h-12.5v6.2h-6.2v-18.7h-6.2v-6.2h-6.2v12.5h6.2v12.5h-6.2v-6.2
	h-6.2v6.2h-6.2v6.2h6.2v18.7h12.5v-6.2h-6.2v-12.5h12.5v6.2h6.2v-6.2h6.2v-6.2h12.5v-18.7h6.2v25h-18.7v6.2h-6.2v6.2h6.2v6.2h6.2
	v-6.2h6.2v-6.2h6.2v25h6.2v-12.5h6.2v-6.2h-6.2v-12.5h6.2v-6.2h-6.2v-43.7h6.2V93.2h-6.2V80.7h6.2V62h6.2v6.2h6.2V55.7h6.2v12.5
	h-6.2v6.2h12.5V43.2h-6.2v6.2h-6.2v-6.2h-12.5v12.5h-6.2v18.7h-6.2v6.2h-6.2v-6.2h6.2V55.7h-6.2v12.5h-6.2v6.2h-12.5v6.2h-12.5v6.2
	h6.2v6.2h-12.5v-6.2h-6.2v6.2h-6.2v12.5h-6.2V93.2h6.2v-6.2h6.2v-6.2h-12.5v6.2h-6.2v18.7h-6.2V86.9h6.2v-6.2h-6.2v-6.2h12.5V55.7
	H93.2v-6.2H80.7v-6.2h-6.2v31.2H62v6.2h18.7v12.5h6.2V99.4z M149.4,80.7h6.2v6.2h12.5v12.5h6.2v6.2h-6.2v25h-6.2v-25h6.2v-6.2h-6.2
	v-6.2h-12.5V80.7z M118.1,99.4h12.5v6.2h6.2v-6.2h18.7v12.5h-6.2v6.2h6.2v12.5h-6.2v-6.2h-6.2v-6.2h-6.2v-6.2h-6.2v-6.2h-12.5V99.4z
	 M93.2,62h6.2v6.2h-6.2V62z M80.7,68.2V62h6.2v6.2H80.7z M186.8,99.4h6.2v-6.2h-6.2V99.4z M205.6,99.4v-6.2h-6.2v6.2H205.6z
	 M37,99.4h6.2v-6.2H30.7v12.5H37V99.4z M205.6,99.4v6.2h18.7v-6.2H205.6z M24.5,105.7v6.2h6.2v-6.2H24.5z M37,105.7v6.2h6.2v-6.2H37
	z M74.4,111.9h6.2v-6.2h-6.2V111.9z M193.1,111.9h-6.2v6.2h18.7v-12.5h-12.5V111.9z M74.4,118.1h-6.2v6.2h6.2V118.1z M80.7,118.1
	v6.2h6.2v-6.2H80.7z M211.8,118.1h-6.2v6.2h-6.2v6.2h-18.7v6.2h6.2v6.2h12.5v-6.2h6.2v6.2h6.2v-12.5h6.2v-6.2h-6.2V118.1z M37,130.6
	h6.2v12.5h6.2v6.2h6.2v6.2h12.5v-6.2H62v-6.2h6.2v-6.2H49.5v-6.2h18.7v-6.2H55.7v-6.2h12.5v-6.2h-25v6.2H37v-6.2h-6.2v12.5H37V130.6
	z M124.4,130.6v-6.2h-12.5v6.2H124.4z M255.5,124.4h-6.2v6.2h6.2V124.4z M37,136.9v-6.2h-6.2v-6.2h-6.2v18.7h6.2v-6.2H37z
	 M86.9,124.4v6.2h-6.2v6.2h-6.2v6.2h18.7v-18.7H86.9z M118.1,136.9h-6.2v-6.2h-6.2v-6.2h-6.2v18.7h18.7V136.9z M105.7,149.4v6.2h6.2
	v-6.2H105.7z M230.5,155.6h6.2v-6.2h-6.2V155.6z M68.2,161.9H62v6.2h6.2V161.9z M55.7,168.1v-6.2h-6.2v12.5H62v-6.2H55.7z
	 M99.4,161.9v-18.7h-6.2v6.2H80.7v18.7H68.2v6.2h12.5v18.7h6.2v-6.2h18.7v-6.2h6.2v-18.7H99.4z M93.2,174.3h-6.2v-6.2h6.2V174.3z
	 M93.2,161.9h-6.2v-6.2h6.2V161.9z M105.7,174.3h-6.2v-6.2h6.2V174.3z M186.8,174.3h6.2v-6.2h-6.2V174.3z M37,174.3v-6.2h6.2v-6.2
	H37v-6.2h6.2v6.2h6.2v-12.5h-6.2v-6.2H30.7v6.2h-6.2v6.2h6.2v25h18.7v-6.2H37z M62,180.6h6.2v-6.2H62V180.6z M161.9,186.8v-6.2h-6.2
	v6.2H161.9z M180.6,180.6v12.5h6.2v-12.5H180.6z M68.2,193.1v-6.2H55.7v-6.2h-6.2v18.7H62v-6.2H68.2z M37,186.8H24.5v12.5H37V186.8z
	 M180.6,199.3v-6.2h-6.2v6.2H180.6z M43.2,205.6h6.2v-6.2h-6.2V205.6z M93.2,199.3H80.7v-6.2H68.2v6.2H62v6.2h12.5V218h6.2v6.2h-6.2
	v6.2h6.2v6.2h6.2v6.2h-6.2v6.2h-6.2v6.2h18.7V243h6.2v-6.2h-6.2v-12.5h-6.2V218h6.2v-6.2h6.2v-6.2h-6.2V199.3z M86.9,211.8h-6.2
	v-6.2h6.2V211.8z M193.1,211.8v-6.2h-25v-6.2h-6.2v-6.2h-12.5v-12.5h-12.5v6.2h6.2v6.2h-6.2v-6.2h-6.2v6.2h-6.2v-6.2h-6.2v-6.2h-6.2
	v12.5h6.2v6.2h6.2v6.2h12.5v-6.2h12.5V218h6.2v-6.2h12.5v6.2h-6.2v12.5h6.2V243h-12.5v12.5h6.2v-6.2h12.5v6.2h6.2V243h-6.2v-6.2
	h12.5v-6.2h-6.2v-6.2h-6.2V218h12.5v-6.2H193.1z M24.5,255.5h43.7v-43.7H24.5V255.5z M30.7,218H62v31.2H30.7V218z M105.7,193.1v6.2
	h-6.2v6.2h6.2v18.7h6.2v-31.2H105.7z M218,211.8h-6.2v6.2h6.2V211.8z M255.5,218h-6.2v6.2h6.2V218z M37,243h18.7v-18.7H37V243z
	 M105.7,243h12.5v-6.2h-6.2v-6.2h-6.2V243z M149.4,230.5v-6.2h-6.2V218h-6.2v-6.2h-12.5v-6.2h-6.2v18.7h-6.2v6.2h12.5v-6.2h12.5v6.2
	h6.2v6.2h6.2v6.2h6.2v-12.5H149.4z M255.5,236.8v-6.2h-6.2v6.2H255.5z M130.6,230.5h-6.2V243h6.2v12.5h6.2V243h6.2v-6.2h-12.5V230.5
	z M230.5,243h-6.2v6.2h6.2V243z M99.4,255.5h12.5v-6.2H99.4V255.5z M118.1,255.5h6.2v-6.2h-6.2V255.5z M143.1,255.5h6.2v-6.2h-6.2
	V255.5z M205.6,255.5h6.2v-6.2h-6.2V255.5z M224.3,255.5v-6.2H218v6.2H224.3z M255.5,255.5v-6.2h-6.2V243h-12.5v6.2h-6.2v6.2H255.5z
	"/>
</svg>
