<?xml version="1.0" encoding="utf-8"?>
<!-- Generator: Adobe Illustrator 24.0.2, SVG Export Plug-In . SVG Version: 6.00 Build 0)  -->
<svg version="1.1" id="圖層_1" xmlns="http://www.w3.org/2000/svg" xmlns:xlink="http://www.w3.org/1999/xlink" x="0px" y="0px"
	 viewBox="0 0 280 280" style="enable-background:new 0 0 280 280;" xml:space="preserve">
<style type="text/css">
	.st0{fill:#FFFFFF;}
</style>
<rect y="0" class="st0" width="280" height="280"/>
<path d="M74.4,24.5V37h6.2V24.5H74.4z M143.1,24.5h-6.2v6.2h6.2V24.5z M205.6,24.5h-6.2v6.2h6.2V24.5z M211.8,24.5v43.7h43.7V24.5
	H211.8z M249.3,62H218V30.7h31.2V62z M149.4,37v6.2h-18.7v12.5h12.5V62h6.2V49.5h6.2V37h6.2v-6.2h6.2v-6.2h-18.7v6.2h-6.2V37H149.4z
	 M180.6,37V24.5h-6.2v6.2h-6.2V37H180.6z M105.7,43.2h6.2V37h6.2v12.5h6.2v-6.2h6.2V37h6.2v-6.2h-6.2v-6.2h-6.2v6.2h-6.2v-6.2H99.4
	V37h6.2V43.2z M243,37h-18.7v18.7H243V37z M74.4,43.2v6.2h6.2v-6.2H74.4z M168.1,43.2h-6.2v6.2h6.2V43.2z M174.3,43.2v12.5h12.5
	v12.5h6.2V55.7h12.5v-6.2h-6.2v-6.2h6.2V37h-12.5v6.2h-6.2V37h-6.2v6.2H174.3z M55.7,37H37v18.7h18.7V37z M111.9,62v-6.2h6.2v-6.2
	h-12.5v-6.2h-6.2V37h-6.2v-6.2h-6.2V37h-6.2v6.2h12.5v6.2H80.7V62h6.2v-6.2h6.2V62h6.2v6.2h6.2V62H111.9z M161.9,62V49.5h-6.2V62
	H161.9z M68.2,24.5H24.5v43.7h43.7V24.5z M62,62H30.7V30.7H62V62z M86.9,68.2h-6.2V62h-6.2v12.5h18.7V62h-6.2V68.2z M130.6,62h-6.2
	v6.2h6.2V62z M136.9,62v6.2h-6.2v6.2h12.5V62H136.9z M155.6,62h-6.2v12.5h-6.2v6.2h12.5v-6.2h6.2v-6.2h-6.2V62z M168.1,68.2V62h-6.2
	v6.2H168.1z M174.3,74.4h6.2V62h-6.2V74.4z M205.6,68.2V62h-6.2v6.2H205.6z M55.7,80.7h18.7v-6.2H55.7V80.7z M168.1,80.7h6.2v-6.2
	h-6.2V80.7z M186.8,80.7h6.2v-6.2h-6.2V80.7z M218,74.4h-6.2v6.2h6.2V74.4z M243,80.7h-6.2v-6.2h-6.2v12.5h18.7v-6.2h6.2v-6.2H243
	V80.7z M105.7,86.9v6.2h6.2V74.4h12.5v-6.2h-6.2V62h-6.2v6.2h-6.2v6.2h-6.2v6.2H80.7v6.2h-6.2v6.2h18.7v-6.2H105.7z M199.3,80.7v6.2
	h12.5v-6.2H199.3z M224.3,86.9v-6.2H218v6.2H224.3z M49.5,93.2v-6.2h-6.2v6.2H49.5z M155.6,86.9v6.2h12.5v-6.2H155.6z M218,86.9
	h-6.2v6.2h6.2V86.9z M37,86.9h6.2v-6.2h6.2v-6.2H37v6.2h-6.2v-6.2h-6.2v12.5h6.2v12.5H37V86.9z M62,93.2h6.2v-6.2H55.7v12.5H62V93.2
	z M149.4,99.4v-6.2h-6.2v-6.2h-6.2v12.5H149.4z M224.3,99.4v-6.2H218v6.2H224.3z M43.2,99.4v6.2h12.5v-6.2H43.2z M68.2,105.7v6.2
	h6.2V99.4H62v6.2H68.2z M130.6,99.4v6.2h6.2v-6.2H130.6z M155.6,105.7v-6.2h-6.2v6.2H155.6z M230.5,99.4h-6.2v6.2H218v-6.2h-6.2
	v-6.2h-6.2v12.5h-6.2v-6.2h-6.2V86.9h-6.2v6.2h-18.7v6.2h-6.2v6.2h18.7v12.5h6.2v-12.5h6.2v6.2h6.2v12.5h6.2v-6.2h6.2v-6.2h12.5v6.2
	h-12.5v6.2h6.2v6.2h6.2v-6.2h6.2v-12.5h6.2v-6.2h-6.2V99.4z M243,93.2h-6.2v12.5h12.5v6.2h6.2V99.4H243V93.2z M30.7,99.4h-6.2v12.5
	h6.2V99.4z M37,111.9h6.2v-6.2H37V111.9z M243,118.1v-6.2h-6.2v6.2H243z M37,118.1h-6.2v6.2H37V118.1z M168.1,124.4v-12.5h-6.2v6.2
	h-6.2v6.2H168.1z M174.3,118.1v6.2h6.2v-6.2H174.3z M193.1,124.4v-6.2h-6.2v6.2H193.1z M180.6,136.9h6.2v-12.5h-6.2V136.9z
	 M230.5,124.4v6.2H243v18.7h6.2v-6.2h6.2v-12.5h-6.2v-6.2h6.2v-6.2H243v6.2H230.5z M43.2,143.1v6.2H62v-6.2h6.2v-6.2H55.7v-6.2h-6.2
	v6.2h-6.2v-6.2h6.2v-6.2h6.2v6.2h18.7v-6.2h18.7v6.2h-6.2v6.2h-6.2v6.2H68.2v6.2h6.2v12.5h12.5v-6.2h-6.2v-6.2h12.5v6.2h6.2v-6.2
	h6.2v-6.2H93.2v-6.2h6.2v-18.7h-6.2v-12.5h18.7v6.2h-6.2v25h6.2v18.7h6.2v-12.5h12.5v-12.5h12.5v-12.5h12.5v-6.2h-6.2v-6.2h-12.5
	v6.2h-6.2v-6.2h-12.5v-6.2h6.2V86.9h12.5v-6.2h-6.2v-6.2h-6.2v6.2h-6.2v12.5h-6.2v6.2h-6.2v-6.2H93.2v6.2h-6.2v18.7h-6.2v-6.2h-6.2
	v6.2h-6.2v6.2H62v-6.2h6.2v-6.2H62v-6.2h-6.2v6.2h-6.2v6.2h-6.2v6.2H37v18.7H43.2z M124.4,136.9h-6.2v-6.2h6.2V136.9z M118.1,118.1
	v-6.2h6.2v12.5h-12.5v-6.2H118.1z M130.6,149.4h-6.2v18.7h12.5v-6.2h-6.2v-6.2h6.2v6.2h6.2v-12.5h-6.2v-6.2h-6.2V149.4z
	 M193.1,161.9v-6.2h6.2v6.2h6.2v18.7H218v-12.5h-6.2v-18.7h-6.2v-6.2h-6.2v-12.5h-6.2v6.2h-6.2v25H193.1z M236.8,136.9H218v-6.2
	h-12.5v6.2h6.2v6.2h6.2v12.5h12.5v6.2h6.2v-6.2h6.2v-6.2h-6.2V136.9z M230.5,149.4h-6.2v-6.2h6.2V149.4z M37,149.4v6.2h6.2v-6.2H37z
	 M68.2,149.4H62v6.2h6.2V149.4z M255.5,155.6v-6.2h-6.2v6.2H255.5z M105.7,161.9v-6.2h-6.2v6.2H105.7z M149.4,161.9h6.2v-6.2h-6.2
	V161.9z M37,161.9v-6.2h-6.2v-6.2H37v-6.2h-6.2v-18.7h-6.2v49.9h6.2v-12.5H37z M93.2,161.9h-6.2v6.2h6.2V161.9z M111.9,168.1v-6.2
	h-6.2v6.2H111.9z M224.3,161.9H218v6.2h6.2V161.9z M193.1,168.1v6.2h6.2v-6.2H193.1z M30.7,174.3v6.2H37v6.2h6.2v-6.2h6.2v-6.2H30.7
	z M93.2,174.3v6.2h6.2v-6.2H93.2z M111.9,180.6h6.2v-6.2h-6.2V180.6z M218,180.6v12.5h6.2v-6.2h6.2v6.2h6.2v-6.2h6.2v12.5h-43.7
	v37.5h12.5v6.2h-6.2v12.5h6.2v-6.2h12.5v6.2h6.2v-6.2h6.2v6.2h18.7v-6.2H243v-12.5h-6.2v-12.5h-6.2v-18.7h6.2V218h12.5v6.2H243v6.2
	h6.2v6.2h6.2v-31.2h-6.2v-6.2h6.2v-6.2h-6.2v-6.2h6.2v-18.7h-6.2v6.2H243v-6.2h-18.7v12.5H218z M224.3,243H218v-12.5h6.2V243z
	 M224.3,224.3h-18.7v-18.7h18.7V224.3z M230.5,174.3h6.2v6.2h-6.2V174.3z M49.5,180.6v6.2h6.2v-6.2H49.5z M205.6,186.8v-6.2h-18.7
	v6.2H205.6z M24.5,186.8v6.2h6.2v-6.2H24.5z M55.7,186.8v6.2h12.5v-6.2H55.7z M180.6,193.1h-6.2v6.2h-6.2v-6.2h-6.2v-12.5h12.5v6.2
	h6.2v-6.2h6.2v-12.5h-6.2v6.2h-12.5v-6.2h6.2v-6.2h6.2v-12.5h-12.5v-12.5h-6.2v-6.2h-6.2v-6.2h-6.2v6.2h-6.2v6.2h-6.2v6.2h6.2v6.2
	h6.2v-12.5h6.2v6.2h6.2v6.2h-6.2v6.2h12.5v6.2h-12.5v6.2h-6.2v6.2h-6.2v-6.2h-6.2v12.5h-12.5v6.2h-6.2v6.2h6.2v6.2h-6.2v6.2h-6.2
	V218H99.4v-6.2h6.2v-12.5h-6.2v-6.2h12.5v-6.2h-6.2v-6.2h-6.2v6.2H80.7v-6.2h-6.2v-6.2h6.2v6.2h6.2v-12.5H74.4v-6.2H62v-6.2H43.2
	v6.2H37v6.2h12.5v-6.2h6.2v6.2h12.5v6.2H55.7v6.2h12.5v6.2h6.2v6.2h-6.2v6.2h6.2v25h6.2v6.2h6.2V218h-6.2v-6.2h6.2v-6.2h6.2v18.7h25
	V218h6.2v-6.2h6.2v6.2h6.2v-6.2h6.2v-12.5h-6.2v6.2h-6.2v-18.7h12.5v-6.2h6.2v6.2h-6.2v6.2h12.5v6.2h-6.2v6.2h18.7v6.2h6.2v-6.2
	h12.5v-6.2h-6.2V193.1z M93.2,199.3h-6.2v-6.2h6.2V199.3z M186.8,193.1v6.2h12.5v-6.2H186.8z M43.2,193.1H30.7v6.2h-6.2v6.2h18.7
	V193.1z M62,205.6h6.2v-6.2H62V205.6z M24.5,255.5h43.7v-43.7H24.5V255.5z M30.7,218H62v31.2H30.7V218z M180.6,218h6.2v12.5h6.2
	v-18.7h-12.5V218z M218,211.8h-6.2v6.2h6.2V211.8z M155.6,218h6.2v-6.2h-12.5v12.5h6.2V218z M37,243h18.7v-18.7H37V243z M74.4,243
	h6.2v-12.5h-6.2V243z M86.9,230.5v6.2h6.2v-6.2H86.9z M111.9,230.5v6.2h-6.2v-6.2h-6.2v6.2h-6.2v6.2h12.5v6.2h6.2V243h6.2v-6.2h6.2
	v-12.5h-6.2v6.2H111.9z M130.6,249.3V243h18.7v6.2h-6.2v6.2h12.5V243h6.2v6.2h6.2V243h12.5v-6.2h-6.2v-6.2h6.2v-6.2h-6.2V218h-12.5
	v12.5h-12.5v6.2h-6.2v-6.2h6.2v-6.2h-12.5v12.5h-12.5v12.5H130.6z M74.4,249.3v6.2h12.5V243h-6.2v6.2H74.4z M93.2,255.5h6.2v-6.2
	h-6.2V255.5z M111.9,255.5h12.5v-6.2h-12.5V255.5z M136.9,255.5v-6.2h-6.2v6.2H136.9z M174.3,249.3v6.2h18.7v-18.7h-6.2v6.2h-6.2
	v6.2H174.3z"/>
</svg>
